<svg width="593" height="108" xmlns="http://www.w3.org/2000/svg" xmlns:xlink="http://www.w3.org/1999/xlink" xmlns:svgjs="http://svgjs.com/svgjs" viewBox="1169 2306 593 108"><svg width="42" height="52" xmlns="http://www.w3.org/2000/svg" xmlns:xlink="http://www.w3.org/1999/xlink" xmlns:svgjs="http://svgjs.com/svgjs" viewBox="0 0.256 42 51.487" fill="#161615" x="1550" y="2335"><svg xmlns="http://www.w3.org/2000/svg" xmlns:xlink="http://www.w3.org/1999/xlink" width="42" height="52" viewBox="0.099 0.662 41.33 50.666"><path paint-order="stroke fill markers" fill-rule="evenodd" d="M.099.662h3.622l17.004 29.603L37.815.662h3.614v50.666h-3.614V7.32L20.87 36.707h-.29L3.575 7.321v44.007H.1V.662z"/></svg></svg><svg width="44" height="52" xmlns="http://www.w3.org/2000/svg" xmlns:xlink="http://www.w3.org/1999/xlink" xmlns:svgjs="http://svgjs.com/svgjs" viewBox="0.016 0 43.969 52" fill="#161615" x="1600" y="2335"><svg xmlns="http://www.w3.org/2000/svg" xmlns:xlink="http://www.w3.org/1999/xlink" width="44" height="52" viewBox="0.364 0.299 43.147 51.028"><path paint-order="stroke fill markers" fill-rule="evenodd" d="M20.129.3h3.617l19.765 51.027h-3.915L34.241 37.14H9.414L4.058 51.327H.364L20.13.3zm12.808 33.583L21.861 4.714l-11.139 29.17h22.215z"/></svg></svg><svg width="39" height="52" xmlns="http://www.w3.org/2000/svg" xmlns:xlink="http://www.w3.org/1999/xlink" xmlns:svgjs="http://svgjs.com/svgjs" viewBox="0 0.1 39 51.801" fill="#161615" x="1650" y="2335"><svg xmlns="http://www.w3.org/2000/svg" xmlns:xlink="http://www.w3.org/1999/xlink" width="39" height="52" viewBox="0.802 0.662 38.146 50.666"><path paint-order="stroke fill markers" fill-rule="evenodd" d="M38.079.662L22.012 25.27l16.935 26.059H34.82L19.766 27.877 4.858 51.327H.802l16.937-25.983L1.594.662h4.129l14.115 22.004L34.026.662h4.053z"/></svg></svg><svg width="39" height="52" xmlns="http://www.w3.org/2000/svg" xmlns:xlink="http://www.w3.org/1999/xlink" xmlns:svgjs="http://svgjs.com/svgjs" viewBox="0 0.103 39 51.794" fill="#161615" x="1696" y="2335"><svg xmlns="http://www.w3.org/2000/svg" xmlns:xlink="http://www.w3.org/1999/xlink" width="39" height="52" viewBox="0.309 0.662 38.151 50.666"><path paint-order="stroke fill markers" fill-rule="evenodd" d="M37.587.662L21.517 25.27 38.46 51.328h-4.13L19.275 27.877 4.365 51.327H.31l16.938-25.983L1.11.662h4.124L19.35 22.666 33.534.662h4.053z"/></svg></svg><svg width="24" height="24" xmlns="http://www.w3.org/2000/svg" xmlns:xlink="http://www.w3.org/1999/xlink" xmlns:svgjs="http://svgjs.com/svgjs" viewBox="0 0.002 24 23.997" fill="#161615" x="1738" y="2334"><svg xmlns="http://www.w3.org/2000/svg" xmlns:xlink="http://www.w3.org/1999/xlink" width="24" height="24" viewBox="0.544 0.641 22.455 22.452"><path paint-order="stroke fill markers" fill-rule="evenodd" d="M11.737 23.093c-1.592 0-3.078-.291-4.455-.874a10.644 10.644 0 0 1-3.545-2.372 10.866 10.866 0 0 1-2.344-3.505c-.57-1.328-.849-2.75-.849-4.26v-.403c0-1.508.279-2.93.85-4.261A10.887 10.887 0 0 1 3.75 3.909c1-1 2.19-1.797 3.57-2.387C8.689.936 10.19.64 11.806.64c1.594 0 3.078.284 4.459.865 1.368.581 2.553 1.37 3.544 2.368a11.229 11.229 0 0 1 2.338 3.512c.57 1.328.852 2.751.852 4.26v.371c0 1.512-.282 2.934-.852 4.265a11.102 11.102 0 0 1-2.354 3.525c-1.005 1.011-2.2 1.81-3.569 2.401-1.379.591-2.873.885-4.487.885zm0-.874c1.5 0 2.882-.263 4.136-.8a9.74 9.74 0 0 0 3.244-2.207 10.203 10.203 0 0 0 2.113-3.25c.505-1.24.765-2.553.765-3.945v-.37c0-1.384-.25-2.693-.744-3.92A9.902 9.902 0 0 0 19.156 4.5c-.905-.923-1.982-1.65-3.227-2.19-1.25-.533-2.625-.805-4.123-.805-1.507 0-2.887.272-4.139.805a9.89 9.89 0 0 0-3.239 2.202A10.187 10.187 0 0 0 2.31 7.757a10.217 10.217 0 0 0-.761 3.922v.404c0 1.38.256 2.695.761 3.922a9.925 9.925 0 0 0 5.338 5.414c1.25.537 2.608.8 4.09.8zm-4.09-16.4h4.577c1.479 0 2.618.36 3.426 1.087.302.268.543.591.728.975.186.386.279.812.279 1.287v.062c0 .907-.29 1.633-.851 2.172-.567.535-1.3.907-2.197 1.115l3.674 4.839h-1.772l-3.426-4.588H9.037v4.588h-1.39V5.818zm4.438 5.798c.872 0 1.618-.194 2.215-.574.605-.383.904-.966.904-1.752V9.23c0-.702-.28-1.244-.832-1.63-.558-.382-1.3-.576-2.223-.576H9.037v4.593h3.048z"/></svg></svg><svg width="24" height="24" xmlns="http://www.w3.org/2000/svg" xmlns:xlink="http://www.w3.org/1999/xlink" xmlns:svgjs="http://svgjs.com/svgjs" viewBox="0 0.002 24 23.997" fill="none" x="1738" y="2334"><svg xmlns="http://www.w3.org/2000/svg" xmlns:xlink="http://www.w3.org/1999/xlink" width="24" height="24" viewBox="0.544 0.641 22.455 22.452"><path paint-order="stroke fill markers" d="M11.737 23.093c-1.592 0-3.078-.291-4.455-.874a10.644 10.644 0 0 1-3.545-2.372 10.866 10.866 0 0 1-2.344-3.505c-.57-1.328-.849-2.75-.849-4.26v-.403c0-1.508.279-2.93.85-4.261A10.887 10.887 0 0 1 3.75 3.909c1-1 2.19-1.797 3.57-2.387C8.689.936 10.19.64 11.806.64c1.594 0 3.078.284 4.459.865 1.368.581 2.553 1.37 3.544 2.368a11.229 11.229 0 0 1 2.338 3.512c.57 1.328.852 2.751.852 4.26v.371c0 1.512-.282 2.934-.852 4.265a11.102 11.102 0 0 1-2.354 3.525c-1.005 1.011-2.2 1.81-3.569 2.401-1.379.591-2.873.885-4.487.885zm0-.874c1.5 0 2.882-.263 4.136-.8a9.74 9.74 0 0 0 3.244-2.207 10.203 10.203 0 0 0 2.113-3.25c.505-1.24.765-2.553.765-3.945v-.37c0-1.384-.25-2.693-.744-3.92A9.902 9.902 0 0 0 19.156 4.5c-.905-.923-1.982-1.65-3.227-2.19-1.25-.533-2.625-.805-4.123-.805-1.507 0-2.887.272-4.139.805a9.89 9.89 0 0 0-3.239 2.202A10.187 10.187 0 0 0 2.31 7.757a10.217 10.217 0 0 0-.761 3.922v.404c0 1.38.256 2.695.761 3.922a9.925 9.925 0 0 0 5.338 5.414c1.25.537 2.608.8 4.09.8zm-4.09-16.4h4.577c1.479 0 2.618.36 3.426 1.087.302.268.543.591.728.975.186.386.279.812.279 1.287v.062c0 .907-.29 1.633-.851 2.172-.567.535-1.3.907-2.197 1.115l3.674 4.839h-1.772l-3.426-4.588H9.037v4.588h-1.39V5.818zm4.438 5.798c.872 0 1.618-.194 2.215-.574.605-.383.904-.966.904-1.752V9.23c0-.702-.28-1.244-.832-1.63-.558-.382-1.3-.576-2.223-.576H9.037v4.593h3.048z"/></svg></svg><svg width="38" height="52" xmlns="http://www.w3.org/2000/svg" xmlns:xlink="http://www.w3.org/1999/xlink" xmlns:svgjs="http://svgjs.com/svgjs" viewBox="0 0.292 38 51.417" fill="#161615" x="1436" y="2335"><svg xmlns="http://www.w3.org/2000/svg" xmlns:xlink="http://www.w3.org/1999/xlink" width="38" height="52" viewBox="0.174 0.662 37.445 50.666"><path paint-order="stroke fill markers" fill-rule="evenodd" d="M26.648 44.99c-1.963-2.241-3.48-4.94-4.566-8.105-1.08-3.157-1.633-6.677-1.633-10.53v-.651c0-3.862.572-7.37 1.71-10.531 1.127-3.158 2.708-5.87 4.74-8.112 2.02-2.238 4.446-3.984 7.275-5.246 1.1-.491 2.255-.852 3.445-1.153H.174l18.061 50.665h18.738c-1.141-.293-2.256-.65-3.311-1.123a20.102 20.102 0 0 1-7.014-5.214z"/></svg></svg><svg width="44" height="52" xmlns="http://www.w3.org/2000/svg" xmlns:xlink="http://www.w3.org/1999/xlink" xmlns:svgjs="http://svgjs.com/svgjs" viewBox="0 0.236 44 51.528" fill="#161615" x="1382" y="2335"><svg xmlns="http://www.w3.org/2000/svg" xmlns:xlink="http://www.w3.org/1999/xlink" width="44" height="52" viewBox="0.709 0.662 43.264 50.666"><path paint-order="stroke fill markers" fill-rule="evenodd" d="M.71.662v41.035h20.478v9.63h4.723L43.973.663H.709z"/></svg></svg><svg width="26" height="12" xmlns="http://www.w3.org/2000/svg" xmlns:xlink="http://www.w3.org/1999/xlink" xmlns:svgjs="http://svgjs.com/svgjs" viewBox="0 0.251 26 11.497" fill="#161615" x="1418" y="2375"><svg xmlns="http://www.w3.org/2000/svg" xmlns:xlink="http://www.w3.org/1999/xlink" width="26" height="12" viewBox="0.484 0.319 24.889 11.006"><path paint-order="stroke fill markers" fill-rule="evenodd" d="M4.175.319L.485 11.325h24.888L21.616.319H4.176z"/></svg></svg><svg width="28" height="52" xmlns="http://www.w3.org/2000/svg" xmlns:xlink="http://www.w3.org/1999/xlink" xmlns:svgjs="http://svgjs.com/svgjs" viewBox="0.207 0 27.586 52" fill="#161615" x="1345" y="2335"><svg xmlns="http://www.w3.org/2000/svg" xmlns:xlink="http://www.w3.org/1999/xlink" width="28" height="52" viewBox="0.338 0.662 26.878 50.666"><path paint-order="stroke fill markers" fill-rule="evenodd" d="M.338.662c2.847 0 5.404.368 7.675 1.124 2.269.747 4.123 1.847 5.576 3.29 1.104 1.156 1.951 2.439 2.527 3.835.58 1.4.872 2.993.872 4.775v.219c0 1.495-.194 2.823-.583 3.982-.383 1.156-.886 2.18-1.516 3.081a11.304 11.304 0 0 1-2.174 2.311c-.822.652-1.69 1.22-2.598 1.7 2.748 1.06 4.941 2.508 6.578 4.343 1.64 1.833 2.463 4.416 2.463 7.745v.365c0 2.268-.434 4.265-1.3 6.005a11.784 11.784 0 0 1-3.73 4.339c-1.61 1.162-3.546 2.038-5.789 2.647-2.244.595-4.737.904-7.492.904h26.369V.662H.338z"/></svg></svg><svg width="16" height="13" xmlns="http://www.w3.org/2000/svg" xmlns:xlink="http://www.w3.org/1999/xlink" xmlns:svgjs="http://svgjs.com/svgjs" viewBox="0 0.358 16 12.284" fill="#161615" x="1336" y="2344"><svg xmlns="http://www.w3.org/2000/svg" xmlns:xlink="http://www.w3.org/1999/xlink" width="16" height="13" viewBox="0.73 0.925 14.906 11.444"><path paint-order="stroke fill markers" fill-rule="evenodd" d="M13.575 10.953c1.379-.947 2.06-2.382 2.06-4.313v-.077c0-1.826-.616-3.225-1.847-4.192C12.561 1.409 10.811.925 8.54.925H.73v11.444h7.304c2.322 0 4.165-.482 5.54-1.416z"/></svg></svg><svg width="18" height="13" xmlns="http://www.w3.org/2000/svg" xmlns:xlink="http://www.w3.org/1999/xlink" xmlns:svgjs="http://svgjs.com/svgjs" viewBox="0 0.243 18 12.515" fill="#161615" x="1336" y="2365"><svg xmlns="http://www.w3.org/2000/svg" xmlns:xlink="http://www.w3.org/1999/xlink" width="18" height="13" viewBox="0.732 0.191 17.078 11.873"><path paint-order="stroke fill markers" fill-rule="evenodd" d="M17.81 6.053c0-1.836-.667-3.27-1.99-4.308C14.497.715 12.523.19 9.92.19H.731v11.873h9.402c2.361 0 4.237-.493 5.614-1.485 1.376-.994 2.061-2.472 2.061-4.45v-.076z"/></svg></svg><svg width="12" height="18" xmlns="http://www.w3.org/2000/svg" xmlns:xlink="http://www.w3.org/1999/xlink" xmlns:svgjs="http://svgjs.com/svgjs" viewBox="0 0.059 12 17.882" fill="#161615" x="1425" y="2349"><svg xmlns="http://www.w3.org/2000/svg" xmlns:xlink="http://www.w3.org/1999/xlink" width="12" height="18" viewBox="0.358 0.558 11.074 16.502"><path paint-order="stroke fill markers" fill-rule="evenodd" d="M.358 17.06H11.43L5.928.557.358 17.059z"/></svg></svg><svg width="36" height="52" xmlns="http://www.w3.org/2000/svg" xmlns:xlink="http://www.w3.org/1999/xlink" xmlns:svgjs="http://svgjs.com/svgjs" viewBox="0 0.207 36 51.586" fill="#161615" x="1467" y="2335"><svg xmlns="http://www.w3.org/2000/svg" xmlns:xlink="http://www.w3.org/1999/xlink" width="36" height="52" viewBox="0.236 0.662 35.358 50.666"><path paint-order="stroke fill markers" fill-rule="evenodd" d="M18.611.662c1.17.294 2.274.653 3.271 1.124a23.924 23.924 0 0 1 6.799 4.879l-6.3 8.11c-1.544-1.547-3.136-2.774-4.773-3.688-1.64-.924-3.498-1.381-5.577-1.381-1.688 0-3.253.377-4.704 1.123-1.44.754-2.687 1.835-3.725 3.256-1.033 1.428-1.863 3.126-2.456 5.103-.608 1.98-.91 4.197-.91 6.66v.214c0 2.513.302 4.771.91 6.776.593 1.993 1.442 3.697 2.531 5.1 1.08 1.398 2.355 2.471 3.795 3.22 1.448.747 3.025 1.121 4.704 1.121 2.027 0 3.852-.457 5.467-1.379 1.62-.91 3.263-2.217 4.958-3.9l6.297 7.451c-2.274 2.361-4.725 4.219-7.386 5.571-1.098.562-2.325.975-3.632 1.305h17.714V.662H18.61z"/></svg></svg><svg width="17" height="23" xmlns="http://www.w3.org/2000/svg" xmlns:xlink="http://www.w3.org/1999/xlink" xmlns:svgjs="http://svgjs.com/svgjs" viewBox="0 0.287 17 22.425" fill="#161615" x="1513" y="2335"><svg xmlns="http://www.w3.org/2000/svg" xmlns:xlink="http://www.w3.org/1999/xlink" width="17" height="23" viewBox="0.09 0.662 16.57 21.859"><path paint-order="stroke fill markers" fill-rule="evenodd" d="M16.66.662H.09v21.859L16.66.662z"/></svg></svg><svg width="18" height="52" xmlns="http://www.w3.org/2000/svg" xmlns:xlink="http://www.w3.org/1999/xlink" xmlns:svgjs="http://svgjs.com/svgjs" viewBox="0 0.284 18 51.433" fill="#161615" x="1525" y="2335"><svg xmlns="http://www.w3.org/2000/svg" xmlns:xlink="http://www.w3.org/1999/xlink" width="18" height="52" viewBox="0.03 0.662 17.732 50.666"><path paint-order="stroke fill markers" fill-rule="evenodd" d="M17.034.662L.03 22.162l17.732 29.166V.662h-.728z"/></svg></svg><svg width="18" height="22" xmlns="http://www.w3.org/2000/svg" xmlns:xlink="http://www.w3.org/1999/xlink" xmlns:svgjs="http://svgjs.com/svgjs" viewBox="0 0.196 18 21.608" fill="#161615" x="1513" y="2365"><svg xmlns="http://www.w3.org/2000/svg" xmlns:xlink="http://www.w3.org/1999/xlink" width="18" height="22" viewBox="0.086 0.48 17.366 20.847"><path paint-order="stroke fill markers" fill-rule="evenodd" d="M.086 6.419v14.908h17.366L4.794.48.086 6.42z"/></svg></svg><svg width="18" height="46" xmlns="http://www.w3.org/2000/svg" xmlns:xlink="http://www.w3.org/1999/xlink" xmlns:svgjs="http://svgjs.com/svgjs" viewBox="0.63 0 16.739 46" fill="#161615" x="1210" y="2322"><svg xmlns="http://www.w3.org/2000/svg" xmlns:xlink="http://www.w3.org/1999/xlink" width="18" height="46" viewBox="0.829 0.658 16.447 45.195"><path paint-order="stroke fill markers" fill-rule="evenodd" d="M.83 28.697l6.243 17.157 10.203-28.045L11.032.66l-.102.28L.83 28.697z"/></svg></svg><svg width="24" height="38" xmlns="http://www.w3.org/2000/svg" xmlns:xlink="http://www.w3.org/1999/xlink" xmlns:svgjs="http://svgjs.com/svgjs" viewBox="0 0.329 24 37.343" fill="#161615" x="1238" y="2363"><svg xmlns="http://www.w3.org/2000/svg" xmlns:xlink="http://www.w3.org/1999/xlink" width="24" height="38" viewBox="0.111 0.482 23.529 36.61"><path paint-order="stroke fill markers" fill-rule="evenodd" d="M.111 37.088l20.41.004 3.12-8.575L13.437.482.11 37.088z"/></svg></svg><svg width="25" height="38" xmlns="http://www.w3.org/2000/svg" xmlns:xlink="http://www.w3.org/1999/xlink" xmlns:svgjs="http://svgjs.com/svgjs" viewBox="0.291 0 24.417 38" fill="#161615" x="1264" y="2318"><svg xmlns="http://www.w3.org/2000/svg" xmlns:xlink="http://www.w3.org/1999/xlink" width="25" height="38" viewBox="0.709 0.442 23.529 36.617"><path paint-order="stroke fill markers" fill-rule="evenodd" d="M24.238.442H3.828L.707 9.02l10.205 28.04L24.238.442z"/></svg></svg><svg width="24" height="38" xmlns="http://www.w3.org/2000/svg" xmlns:xlink="http://www.w3.org/1999/xlink" xmlns:svgjs="http://svgjs.com/svgjs" viewBox="0 0.326 24 37.349" fill="#161615" x="1169" y="2318"><svg xmlns="http://www.w3.org/2000/svg" xmlns:xlink="http://www.w3.org/1999/xlink" width="24" height="38" viewBox="0.376 0.442 23.529 36.616"><path paint-order="stroke fill markers" fill-rule="evenodd" d="M23.905 9.019L20.785.442H.376l13.327 36.615L23.905 9.02z"/></svg></svg><svg width="25" height="38" xmlns="http://www.w3.org/2000/svg" xmlns:xlink="http://www.w3.org/1999/xlink" xmlns:svgjs="http://svgjs.com/svgjs" viewBox="0.292 0 24.416 38" fill="#161615" x="1195" y="2363"><svg xmlns="http://www.w3.org/2000/svg" xmlns:xlink="http://www.w3.org/1999/xlink" width="25" height="38" viewBox="0.973 0.478 23.525 36.614"><path paint-order="stroke fill markers" fill-rule="evenodd" d="M.973 28.518l3.118 8.566 20.407.007L11.175.478.973 28.518z"/></svg></svg><svg width="51" height="83" xmlns="http://www.w3.org/2000/svg" xmlns:xlink="http://www.w3.org/1999/xlink" xmlns:svgjs="http://svgjs.com/svgjs" viewBox="0.024 0 50.952 83" fill="#161615" x="1169" y="2318"><svg xmlns="http://www.w3.org/2000/svg" xmlns:xlink="http://www.w3.org/1999/xlink" width="51" height="83" viewBox="0.376 0.442 50.122 81.648"><path paint-order="stroke fill markers" fill-rule="evenodd" d="M50.498.442H30.095l-.004.004L.376 82.086l20.41.005L50.497.442z"/></svg></svg><svg width="51" height="83" xmlns="http://www.w3.org/2000/svg" xmlns:xlink="http://www.w3.org/1999/xlink" xmlns:svgjs="http://svgjs.com/svgjs" viewBox="0.02 0 50.96 83" fill="#161615" x="1238" y="2318"><svg xmlns="http://www.w3.org/2000/svg" xmlns:xlink="http://www.w3.org/1999/xlink" width="51" height="83" viewBox="0.11 0.443 50.129 81.646"><path paint-order="stroke fill markers" fill-rule="evenodd" d="M20.527.45l-.003-.007H.11l29.712 81.641 20.417.005L20.527.449z"/></svg></svg><svg width="29" height="51" xmlns="http://www.w3.org/2000/svg" xmlns:xlink="http://www.w3.org/1999/xlink" xmlns:svgjs="http://svgjs.com/svgjs" viewBox="0 0.063 29 50.873" fill="#161615" x="1218" y="2322"><svg xmlns="http://www.w3.org/2000/svg" xmlns:xlink="http://www.w3.org/1999/xlink" width="29" height="51" viewBox="0.608 0.659 28.175 49.426"><path paint-order="stroke fill markers" fill-rule="evenodd" d="M20.814 50.085h-.004L.608 50.064 18.578.659l10.205 28.039-7.97 21.387z"/></svg></svg><svg width="7" height="6" xmlns="http://www.w3.org/2000/svg" xmlns:xlink="http://www.w3.org/1999/xlink" xmlns:svgjs="http://svgjs.com/svgjs" viewBox="0.5 0 6 6" fill="#161615" x="1307" y="2306"><svg xmlns="http://www.w3.org/2000/svg" xmlns:xlink="http://www.w3.org/1999/xlink" width="7" height="6" viewBox="0.708 0 5.47 5.47"><path paint-order="stroke fill markers" fill-rule="evenodd" d="M3.443 5.47a2.735 2.735 0 1 0 0-5.47 2.735 2.735 0 0 0 0 5.47z"/></svg></svg><svg width="7" height="6" xmlns="http://www.w3.org/2000/svg" xmlns:xlink="http://www.w3.org/1999/xlink" xmlns:svgjs="http://svgjs.com/svgjs" viewBox="0.5 0 6 6" fill="#161615" x="1307" y="2316"><svg xmlns="http://www.w3.org/2000/svg" xmlns:xlink="http://www.w3.org/1999/xlink" width="7" height="6" viewBox="0.708 0.206 5.47 5.47"><path paint-order="stroke fill markers" fill-rule="evenodd" d="M3.443 5.676a2.735 2.735 0 1 0 0-5.47 2.735 2.735 0 0 0 0 5.47z"/></svg></svg><svg width="7" height="6" xmlns="http://www.w3.org/2000/svg" xmlns:xlink="http://www.w3.org/1999/xlink" xmlns:svgjs="http://svgjs.com/svgjs" viewBox="0.5 0 6 6" fill="#161615" x="1307" y="2326"><svg xmlns="http://www.w3.org/2000/svg" xmlns:xlink="http://www.w3.org/1999/xlink" width="7" height="6" viewBox="0.708 0.41 5.47 5.47"><path paint-order="stroke fill markers" fill-rule="evenodd" d="M3.443 5.88a2.735 2.735 0 1 0 0-5.469 2.735 2.735 0 0 0 0 5.47z"/></svg></svg><svg width="7" height="7" xmlns="http://www.w3.org/2000/svg" xmlns:xlink="http://www.w3.org/1999/xlink" xmlns:svgjs="http://svgjs.com/svgjs" fill="#161615" x="1307" y="2336"><svg xmlns="http://www.w3.org/2000/svg" xmlns:xlink="http://www.w3.org/1999/xlink" width="7" height="7" viewBox="0.708 0.615 5.47 5.47"><path paint-order="stroke fill markers" fill-rule="evenodd" d="M3.443 6.085a2.735 2.735 0 1 0 0-5.47 2.735 2.735 0 0 0 0 5.47z"/></svg></svg><svg width="7" height="7" xmlns="http://www.w3.org/2000/svg" xmlns:xlink="http://www.w3.org/1999/xlink" xmlns:svgjs="http://svgjs.com/svgjs" fill="#161615" x="1307" y="2346"><svg xmlns="http://www.w3.org/2000/svg" xmlns:xlink="http://www.w3.org/1999/xlink" width="7" height="7" viewBox="0.708 0.819 5.47 5.47"><path paint-order="stroke fill markers" fill-rule="evenodd" d="M3.443 6.29a2.735 2.735 0 1 0 0-5.47 2.735 2.735 0 0 0 0 5.47z"/></svg></svg><svg width="7" height="6" xmlns="http://www.w3.org/2000/svg" xmlns:xlink="http://www.w3.org/1999/xlink" xmlns:svgjs="http://svgjs.com/svgjs" viewBox="0.5 0 6 6" fill="#161615" x="1307" y="2357"><svg xmlns="http://www.w3.org/2000/svg" xmlns:xlink="http://www.w3.org/1999/xlink" width="7" height="6" viewBox="0.708 0.026 5.47 5.47"><path paint-order="stroke fill markers" fill-rule="evenodd" d="M3.443 5.496a2.735 2.735 0 1 0 0-5.47 2.735 2.735 0 0 0 0 5.47z"/></svg></svg><svg width="7" height="6" xmlns="http://www.w3.org/2000/svg" xmlns:xlink="http://www.w3.org/1999/xlink" xmlns:svgjs="http://svgjs.com/svgjs" viewBox="0.5 0 6 6" fill="#161615" x="1307" y="2367"><svg xmlns="http://www.w3.org/2000/svg" xmlns:xlink="http://www.w3.org/1999/xlink" width="7" height="6" viewBox="0.708 0.23 5.47 5.47"><path paint-order="stroke fill markers" fill-rule="evenodd" d="M3.443 5.7a2.735 2.735 0 1 0 0-5.47 2.735 2.735 0 0 0 0 5.47z"/></svg></svg><svg width="7" height="6" xmlns="http://www.w3.org/2000/svg" xmlns:xlink="http://www.w3.org/1999/xlink" xmlns:svgjs="http://svgjs.com/svgjs" viewBox="0.5 0 6 6" fill="#161615" x="1307" y="2377"><svg xmlns="http://www.w3.org/2000/svg" xmlns:xlink="http://www.w3.org/1999/xlink" width="7" height="6" viewBox="0.708 0.435 5.47 5.47"><path paint-order="stroke fill markers" fill-rule="evenodd" d="M3.443 5.905a2.735 2.735 0 1 0 0-5.47 2.735 2.735 0 0 0 0 5.47z"/></svg></svg><svg width="7" height="7" xmlns="http://www.w3.org/2000/svg" xmlns:xlink="http://www.w3.org/1999/xlink" xmlns:svgjs="http://svgjs.com/svgjs" fill="#161615" x="1307" y="2387"><svg xmlns="http://www.w3.org/2000/svg" xmlns:xlink="http://www.w3.org/1999/xlink" width="7" height="7" viewBox="0.708 0.641 5.47 5.47"><path paint-order="stroke fill markers" fill-rule="evenodd" d="M3.443 6.111a2.735 2.735 0 1 0 0-5.47 2.735 2.735 0 0 0 0 5.47z"/></svg></svg><svg width="7" height="7" xmlns="http://www.w3.org/2000/svg" xmlns:xlink="http://www.w3.org/1999/xlink" xmlns:svgjs="http://svgjs.com/svgjs" fill="#161615" x="1307" y="2397"><svg xmlns="http://www.w3.org/2000/svg" xmlns:xlink="http://www.w3.org/1999/xlink" width="7" height="7" viewBox="0.708 0.845 5.47 5.47"><path paint-order="stroke fill markers" fill-rule="evenodd" d="M3.443 6.316a2.735 2.735 0 1 0 0-5.47 2.735 2.735 0 0 0 0 5.47z"/></svg></svg><svg width="7" height="6" xmlns="http://www.w3.org/2000/svg" xmlns:xlink="http://www.w3.org/1999/xlink" xmlns:svgjs="http://svgjs.com/svgjs" viewBox="0.5 0 6 6" fill="#161615" x="1307" y="2408"><svg xmlns="http://www.w3.org/2000/svg" width="7" height="6" viewBox="0.708 0.05 5.47 5.47"><path paint-order="stroke fill markers" fill-rule="evenodd" d="M3.443 5.52a2.735 2.735 0 1 0 0-5.47 2.735 2.735 0 0 0 0 5.47z"/></svg></svg></svg>