<svg width="387" height="109" xmlns="http://www.w3.org/2000/svg" xmlns:xlink="http://www.w3.org/1999/xlink" xmlns:svgjs="http://svgjs.com/svgjs" viewBox="180 5497 387 109"><svg width="222" height="109" xmlns="http://www.w3.org/2000/svg" xmlns:xlink="http://www.w3.org/1999/xlink" xmlns:svgjs="http://svgjs.com/svgjs" viewBox="0 0.252 222 108.496" fill="#161615" x="343" y="5497"><svg xmlns="http://www.w3.org/2000/svg" xmlns:xlink="http://www.w3.org/1999/xlink" width="222" height="109" viewBox="0.587 0 221.215 108.112"><path paint-order="stroke fill markers" fill-rule="evenodd" d="M.587 54.054l110.608 54.058 110.608-54.058L111.195 0 .587 54.054z"/></svg></svg><svg width="145" height="31" xmlns="http://www.w3.org/2000/svg" xmlns:xlink="http://www.w3.org/1999/xlink" xmlns:svgjs="http://svgjs.com/svgjs" viewBox="0 0.732 145 29.537" fill="#fff" x="382" y="5560"><svg xmlns="http://www.w3.org/2000/svg" xmlns:xlink="http://www.w3.org/1999/xlink" width="145" height="31" viewBox="0.331 0.827 143.895 29.312"><path paint-order="stroke fill markers" fill-rule="evenodd" d="M.33 30.139h143.895V.827H.331V30.14z"/></svg></svg><svg width="142" height="27" xmlns="http://www.w3.org/2000/svg" xmlns:xlink="http://www.w3.org/1999/xlink" xmlns:svgjs="http://svgjs.com/svgjs" viewBox="0 0.103 142 26.793" fill="#161615" x="383" y="5562"><svg xmlns="http://www.w3.org/2000/svg" xmlns:xlink="http://www.w3.org/1999/xlink" width="142" height="27" viewBox="0.664 0.157 141.23 26.648"><path paint-order="stroke fill markers" fill-rule="evenodd" d="M.664 26.805h141.23V.157H.664v26.648z"/></svg></svg><svg width="10" height="12" xmlns="http://www.w3.org/2000/svg" xmlns:xlink="http://www.w3.org/1999/xlink" xmlns:svgjs="http://svgjs.com/svgjs" viewBox="0 0.317 10 11.366" fill="#fff" x="387" y="5571"><svg xmlns="http://www.w3.org/2000/svg" xmlns:xlink="http://www.w3.org/1999/xlink" width="10" height="12" viewBox="0.228 0.751 9.107 10.351"><path paint-order="stroke fill markers" fill-rule="evenodd" d="M9.334 6.48v-1c0-3.563-1.49-4.729-4.422-4.729C1.613.751.228 2.173.228 5.935c0 3.75 1.14 5.167 4.684 5.167 3.034 0 4.278-1.327 4.318-3.707h-3.3C5.93 8.74 5.542 9.1 4.894 9.1c-.51 0-1.002-.27-1.002-1.327V6.48h5.442z"/></svg></svg><svg width="3" height="3" xmlns="http://www.w3.org/2000/svg" xmlns:xlink="http://www.w3.org/1999/xlink" xmlns:svgjs="http://svgjs.com/svgjs" viewBox="0 0.053 3 2.895" fill="#161615" x="390" y="5573"><svg xmlns="http://www.w3.org/2000/svg" xmlns:xlink="http://www.w3.org/1999/xlink" width="3" height="3" viewBox="0.892 0.755 2.015 1.945"><path paint-order="stroke fill markers" fill-rule="evenodd" d="M2.908 2.7H.892v-.438c0-1.032.245-1.507 1-1.507.77 0 1.016.475 1.016 1.507V2.7z"/></svg></svg><svg width="11" height="10" xmlns="http://www.w3.org/2000/svg" xmlns:xlink="http://www.w3.org/1999/xlink" xmlns:svgjs="http://svgjs.com/svgjs" viewBox="0.436 0 10.128 10" fill="#fff" x="397" y="5572"><svg xmlns="http://www.w3.org/2000/svg" xmlns:xlink="http://www.w3.org/1999/xlink" width="11" height="10" viewBox="0.169 0.011 9.962 9.836"><path paint-order="stroke fill markers" fill-rule="evenodd" d="M3.08 4.772L.169 9.847h3.664L5.18 6.882l1.286 2.965h3.664L7.215 4.772 9.988.011H6.322L5.06 2.644 3.957.01H.289l2.79 4.761z"/></svg></svg><svg width="7" height="13" xmlns="http://www.w3.org/2000/svg" xmlns:xlink="http://www.w3.org/1999/xlink" xmlns:svgjs="http://svgjs.com/svgjs" viewBox="0.292 0 6.417 13" fill="#fff" x="408" y="5569"><svg xmlns="http://www.w3.org/2000/svg" xmlns:xlink="http://www.w3.org/1999/xlink" width="7" height="13" viewBox="0.379 0.114 6.34 12.844"><path paint-order="stroke fill markers" fill-rule="evenodd" d="M.38 5.21h1.226v5.238c0 2.182.873 2.51 3.114 2.51.61 0 1.327-.035 2-.11v-2.182h-.572c-.592 0-.877-.2-.877-.763V5.21h1.448v-2.2H5.271V.114H1.606V3.01H.38v2.2z"/></svg></svg><svg width="8" height="11" xmlns="http://www.w3.org/2000/svg" xmlns:xlink="http://www.w3.org/1999/xlink" xmlns:svgjs="http://svgjs.com/svgjs" viewBox="0.381 0 7.238 11" fill="#fff" x="416" y="5571"><svg xmlns="http://www.w3.org/2000/svg" xmlns:xlink="http://www.w3.org/1999/xlink" width="8" height="11" viewBox="0.559 0.751 6.644 10.097"><path paint-order="stroke fill markers" fill-rule="evenodd" d="M.559 10.848H4.22V5.482c0-1.294.753-1.743 2.062-1.743.305 0 .59.016.92.07V.75h-.599c-1.08 0-2.056.64-2.461 1.823h-.044V1.01H.559v9.838z"/></svg></svg><svg width="11" height="12" xmlns="http://www.w3.org/2000/svg" xmlns:xlink="http://www.w3.org/1999/xlink" xmlns:svgjs="http://svgjs.com/svgjs" viewBox="0.078 0 10.843 12" fill="#fff" x="423" y="5571"><svg xmlns="http://www.w3.org/2000/svg" xmlns:xlink="http://www.w3.org/1999/xlink" width="11" height="12" viewBox="0.986 0.751 9.353 10.351"><path paint-order="stroke fill markers" fill-rule="evenodd" d="M10.338 10.848c-.305-.508-.342-1.218-.342-2.127V3.918C9.996 1.355 8.2.751 5.633.751c-1.672 0-4.216.494-4.216 3.311H4.59c.023-1.035.35-1.307 1.043-1.307.627 0 .936.31.936.908 0 .602-.287.909-1.077 1.072l-1.453.312C1.698 5.536.986 6.39.986 8.211c0 1.692.855 2.89 3.053 2.89 1.101 0 2.083-.488 2.487-1.363h.043c.063.4.103.767.224 1.11h3.545z"/></svg></svg><svg width="3" height="3" xmlns="http://www.w3.org/2000/svg" xmlns:xlink="http://www.w3.org/1999/xlink" xmlns:svgjs="http://svgjs.com/svgjs" viewBox="0.41 0 2.181 3" fill="#161615" x="427" y="5577"><svg xmlns="http://www.w3.org/2000/svg" xmlns:xlink="http://www.w3.org/1999/xlink" width="3" height="3" viewBox="0.531 0.1 2.036 2.802"><path paint-order="stroke fill markers" fill-rule="evenodd" d="M1.428 2.902c-.549 0-.897-.417-.897-1.074 0-.652.187-1.039.75-1.275C1.815.338 2.327.356 2.526.1h.043v1.183c0 1.07-.327 1.619-1.14 1.619z"/></svg></svg><svg width="10" height="14" xmlns="http://www.w3.org/2000/svg" xmlns:xlink="http://www.w3.org/1999/xlink" xmlns:svgjs="http://svgjs.com/svgjs" viewBox="0.444 0 9.113 14" fill="#fff" x="484" y="5568"><svg xmlns="http://www.w3.org/2000/svg" xmlns:xlink="http://www.w3.org/1999/xlink" width="10" height="14" viewBox="0.787 0.862 8.453 12.986"><path paint-order="stroke fill markers" fill-rule="evenodd" d="M.787 13.848h8.452v-2.763H4.574V.862H.787v12.986z"/></svg></svg><svg width="4" height="10" xmlns="http://www.w3.org/2000/svg" xmlns:xlink="http://www.w3.org/1999/xlink" xmlns:svgjs="http://svgjs.com/svgjs" viewBox="0.135 0 3.729 10" fill="#fff" x="495" y="5572"><svg xmlns="http://www.w3.org/2000/svg" xmlns:xlink="http://www.w3.org/1999/xlink" width="4" height="10" viewBox="0.036 0.009 3.669 9.838"><path paint-order="stroke fill markers" fill-rule="evenodd" d="M.036 9.847h3.668V.01H.036v9.838z"/></svg></svg><svg width="4" height="4" xmlns="http://www.w3.org/2000/svg" xmlns:xlink="http://www.w3.org/1999/xlink" xmlns:svgjs="http://svgjs.com/svgjs" viewBox="0 0.671 4 2.658" fill="#fff" x="495" y="5568"><svg xmlns="http://www.w3.org/2000/svg" xmlns:xlink="http://www.w3.org/1999/xlink" width="4" height="4" viewBox="0.036 0.861 3.669 2.438"><path paint-order="stroke fill markers" fill-rule="evenodd" d="M.036 3.299h3.668V.86H.036V3.3z"/></svg></svg><svg width="10" height="11" xmlns="http://www.w3.org/2000/svg" xmlns:xlink="http://www.w3.org/1999/xlink" xmlns:svgjs="http://svgjs.com/svgjs" viewBox="0.027 0 9.946 11" fill="#fff" x="501" y="5571"><svg xmlns="http://www.w3.org/2000/svg" xmlns:xlink="http://www.w3.org/1999/xlink" width="10" height="11" viewBox="0.071 0.751 9.129 10.097"><path paint-order="stroke fill markers" fill-rule="evenodd" d="M.071 10.848h3.666V4.355c0-.818.25-1.161.901-1.161.648 0 .891.343.891 1.16v6.494h3.672V3.426C9.2 1.32 7.935.751 6.327.751c-1.265 0-2.2.494-2.667 1.454h-.041V1.01H.07v9.838z"/></svg></svg><svg width="10" height="12" xmlns="http://www.w3.org/2000/svg" xmlns:xlink="http://www.w3.org/1999/xlink" xmlns:svgjs="http://svgjs.com/svgjs" viewBox="0 0.316 10 11.368" fill="#fff" x="512" y="5571"><svg xmlns="http://www.w3.org/2000/svg" xmlns:xlink="http://www.w3.org/1999/xlink" width="10" height="12" viewBox="0.225 0.751 9.105 10.351"><path paint-order="stroke fill markers" fill-rule="evenodd" d="M9.33 6.48v-1C9.33 1.918 7.845.752 4.91.752 1.61.751.226 2.173.226 5.935c0 3.75 1.138 5.167 4.686 5.167 3.03 0 4.273-1.327 4.314-3.707h-3.3c0 1.345-.383 1.706-1.037 1.706-.51 0-.999-.27-.999-1.327V6.48h5.44z"/></svg></svg><svg width="3" height="3" xmlns="http://www.w3.org/2000/svg" xmlns:xlink="http://www.w3.org/1999/xlink" xmlns:svgjs="http://svgjs.com/svgjs" viewBox="0 0.053 3 2.895" fill="#161615" x="515" y="5573"><svg xmlns="http://www.w3.org/2000/svg" xmlns:xlink="http://www.w3.org/1999/xlink" width="3" height="3" viewBox="0.889 0.755 2.015 1.945"><path paint-order="stroke fill markers" fill-rule="evenodd" d="M2.905 2.7H.889v-.438c0-1.032.245-1.507.999-1.507.771 0 1.017.475 1.017 1.507V2.7z"/></svg></svg><svg width="45" height="23" xmlns="http://www.w3.org/2000/svg" xmlns:xlink="http://www.w3.org/1999/xlink" xmlns:svgjs="http://svgjs.com/svgjs" viewBox="0 0.608 45 21.784" fill="#fff" x="437" y="5564"><svg xmlns="http://www.w3.org/2000/svg" xmlns:xlink="http://www.w3.org/1999/xlink" width="45" height="23" viewBox="0.026 0.77 44.258 21.425"><path paint-order="stroke fill markers" fill-rule="evenodd" d="M42.76 5.755C42.76 2.43 35.86.77 22.076.77c-8.599 0-14.348.387-17.231 1.166C1.963 2.708.522 4.267.522 6.606c0 2.467 1.821 4.09 5.464 4.875 3.651.785 11.26 1.176 22.838 1.176 4.968 0 7.46 1.097 7.46 3.286 0 1.528-.99 2.53-2.973 3.008-1.974.477-6.1.719-12.382.719-5.117 0-8.541-.231-10.283-.687-1.742-.46-2.613-1.37-2.613-2.733l-.058-.982H.085l-.059 1.134c0 2.21 1.61 3.722 4.819 4.55 3.21.828 9.083 1.242 17.61 1.242 8.308 0 14.026-.436 17.149-1.306 3.117-.872 4.68-2.473 4.68-4.81 0-3.76-4.722-5.737-14.154-5.925L22.344 10l-6.146-.127c-5.117-.105-7.68-1.222-7.68-3.358 0-1.406.764-2.292 2.286-2.665 1.528-.37 5.119-.557 10.78-.557 6.095 0 9.879.177 11.348.525 1.471.346 2.208 1.247 2.208 2.697h7.62v-.76z"/></svg></svg><svg width="16" height="32" xmlns="http://www.w3.org/2000/svg" xmlns:xlink="http://www.w3.org/1999/xlink" xmlns:svgjs="http://svgjs.com/svgjs" viewBox="0 0.339 16 31.322" fill="#161615" x="342" y="5523"><svg xmlns="http://www.w3.org/2000/svg" xmlns:xlink="http://www.w3.org/1999/xlink" width="16" height="32" viewBox="0.021 0.985 15.759 30.851"><path paint-order="stroke fill markers" fill-rule="evenodd" d="M15.78 23.486h-4.744c-.043 1.104-.211 2.203-.72 2.965-.424.681-1.102 1.106-2.246 1.106-1.142 0-1.82-.47-2.244-1.147-.89-1.44-1.06-4.49-1.06-10.001 0-5.508.17-8.558 1.06-10.002.423-.676 1.102-1.143 2.244-1.143 1.144 0 1.782.426 2.204 1.103.508.763.677 1.823.719 2.924h4.744c-.083-2.672-.928-4.959-2.414-6.355C11.967 1.66 10.357.986 8.07.986c-2.88 0-4.575 1.102-5.846 2.542C-.02 6.072.02 10.52.02 16.453c0 5.93-.041 10.296 2.203 12.837 1.271 1.443 2.965 2.546 5.846 2.546 2.247 0 3.855-.685 5.211-1.91 1.528-1.396 2.414-3.73 2.5-6.44z"/></svg></svg><svg width="16" height="32" xmlns="http://www.w3.org/2000/svg" xmlns:xlink="http://www.w3.org/1999/xlink" xmlns:svgjs="http://svgjs.com/svgjs" viewBox="0 0.339 16 31.322" fill="none" x="342" y="5523"><svg xmlns="http://www.w3.org/2000/svg" xmlns:xlink="http://www.w3.org/1999/xlink" width="16" height="32" viewBox="0.021 0.985 15.759 30.851"><path paint-order="stroke fill markers" d="M15.78 23.486h-4.744c-.043 1.104-.211 2.203-.72 2.965-.424.681-1.102 1.106-2.246 1.106-1.142 0-1.82-.47-2.244-1.147-.89-1.44-1.06-4.49-1.06-10.001 0-5.508.17-8.558 1.06-10.002.423-.676 1.102-1.143 2.244-1.143 1.144 0 1.782.426 2.204 1.103.508.763.677 1.823.719 2.924h4.744c-.083-2.672-.928-4.959-2.414-6.355C11.967 1.66 10.357.986 8.07.986c-2.88 0-4.575 1.102-5.846 2.542C-.02 6.072.02 10.52.02 16.453c0 5.93-.041 10.296 2.203 12.837 1.271 1.443 2.965 2.546 5.846 2.546 2.247 0 3.855-.685 5.211-1.91 1.528-1.396 2.414-3.73 2.5-6.44z"/></svg></svg><svg width="18" height="31" xmlns="http://www.w3.org/2000/svg" xmlns:xlink="http://www.w3.org/1999/xlink" xmlns:svgjs="http://svgjs.com/svgjs" viewBox="0.622 0 16.757 31" fill="#161615" x="360" y="5524"><svg xmlns="http://www.w3.org/2000/svg" xmlns:xlink="http://www.w3.org/1999/xlink" width="18" height="31" viewBox="0.891 0.324 16.309 30.172"><path paint-order="stroke fill markers" fill-rule="evenodd" d="M17.2 30.497l-4.49-13.393c2.753-1.482 3.515-4.151 3.515-7.88 0-6.231-2.203-8.9-7.71-8.9H.89v30.173h4.743V18.12h2.667l3.944 12.377H17.2zM11.71 9.253c0 1.53 0 4.181-3.544 4.181H6.489h-.82v-.82-7.276-.82h2.496c3.544 0 3.544 2.86 3.544 4.394v.341z"/></svg></svg><svg width="18" height="31" xmlns="http://www.w3.org/2000/svg" xmlns:xlink="http://www.w3.org/1999/xlink" xmlns:svgjs="http://svgjs.com/svgjs" viewBox="0.622 0 16.757 31" fill="none" x="360" y="5524"><svg xmlns="http://www.w3.org/2000/svg" xmlns:xlink="http://www.w3.org/1999/xlink" width="18" height="31" viewBox="0.891 0.324 16.309 30.172"><path paint-order="stroke fill markers" d="M17.2 30.497l-4.49-13.393c2.753-1.482 3.515-4.151 3.515-7.88 0-6.231-2.203-8.9-7.71-8.9H.89v30.173h4.743V18.12h2.667l3.944 12.377H17.2zM11.71 9.253c0 1.53 0 4.181-3.544 4.181H6.489h-.82v-.82-7.276-.82h2.496c3.544 0 3.544 2.86 3.544 4.394v.341z"/></svg></svg><svg width="13" height="31" xmlns="http://www.w3.org/2000/svg" xmlns:xlink="http://www.w3.org/1999/xlink" xmlns:svgjs="http://svgjs.com/svgjs" viewBox="0 0.019 13 30.961" fill="#161615" x="380" y="5524"><svg xmlns="http://www.w3.org/2000/svg" xmlns:xlink="http://www.w3.org/1999/xlink" width="13" height="31" viewBox="0.313 0.325 12.668 30.171"><path paint-order="stroke fill markers" fill-rule="evenodd" d="M12.981 30.496v-4.281H5.058v-8.773h6.821v-4.279H5.058v-8.56h7.923V.326H.313v30.171h12.668z"/></svg></svg><svg width="13" height="31" xmlns="http://www.w3.org/2000/svg" xmlns:xlink="http://www.w3.org/1999/xlink" xmlns:svgjs="http://svgjs.com/svgjs" viewBox="0 0.019 13 30.961" fill="none" x="380" y="5524"><svg xmlns="http://www.w3.org/2000/svg" xmlns:xlink="http://www.w3.org/1999/xlink" width="13" height="31" viewBox="0.313 0.325 12.668 30.171"><path paint-order="stroke fill markers" d="M12.981 30.496v-4.281H5.058v-8.773h6.821v-4.279H5.058v-8.56h7.923V.326H.313v30.171h12.668z"/></svg></svg><svg width="20" height="31" xmlns="http://www.w3.org/2000/svg" xmlns:xlink="http://www.w3.org/1999/xlink" xmlns:svgjs="http://svgjs.com/svgjs" viewBox="0.053 0 19.894 31" fill="#161615" x="395" y="5524"><svg xmlns="http://www.w3.org/2000/svg" xmlns:xlink="http://www.w3.org/1999/xlink" width="20" height="31" viewBox="0.097 0.324 19.363 30.172"><path paint-order="stroke fill markers" fill-rule="evenodd" d="M19.46 30.497L12.128.324H7.512L.097 30.497h5.001l1.187-5.98h6.988l1.23 5.98h4.957zM12.383 20.24H7.215L9.798 7.614l2.585 12.626z"/></svg></svg><svg width="20" height="31" xmlns="http://www.w3.org/2000/svg" xmlns:xlink="http://www.w3.org/1999/xlink" xmlns:svgjs="http://svgjs.com/svgjs" viewBox="0.053 0 19.894 31" fill="none" x="395" y="5524"><svg xmlns="http://www.w3.org/2000/svg" xmlns:xlink="http://www.w3.org/1999/xlink" width="20" height="31" viewBox="0.097 0.324 19.363 30.172"><path paint-order="stroke fill markers" d="M19.46 30.497L12.128.324H7.512L.097 30.497h5.001l1.187-5.98h6.988l1.23 5.98h4.957zM12.383 20.24H7.215L9.798 7.614l2.585 12.626z"/></svg></svg><svg width="16" height="31" xmlns="http://www.w3.org/2000/svg" xmlns:xlink="http://www.w3.org/1999/xlink" xmlns:svgjs="http://svgjs.com/svgjs" viewBox="0.359 0 15.281 31" fill="#161615" x="413" y="5524"><svg xmlns="http://www.w3.org/2000/svg" xmlns:xlink="http://www.w3.org/1999/xlink" width="16" height="31" viewBox="0.543 0.326 14.872 30.171"><path paint-order="stroke fill markers" fill-rule="evenodd" d="M15.415 4.604V.326H.543v4.278h5.042v25.893h4.748V4.604h5.082z"/></svg></svg><svg width="16" height="31" xmlns="http://www.w3.org/2000/svg" xmlns:xlink="http://www.w3.org/1999/xlink" xmlns:svgjs="http://svgjs.com/svgjs" viewBox="0.359 0 15.281 31" fill="none" x="413" y="5524"><svg xmlns="http://www.w3.org/2000/svg" xmlns:xlink="http://www.w3.org/1999/xlink" width="16" height="31" viewBox="0.543 0.326 14.872 30.171"><path paint-order="stroke fill markers" d="M15.415 4.604V.326H.543v4.278h5.042v25.893h4.748V4.604h5.082z"/></svg></svg><svg width="6" height="31" xmlns="http://www.w3.org/2000/svg" xmlns:xlink="http://www.w3.org/1999/xlink" xmlns:svgjs="http://svgjs.com/svgjs" viewBox="0.564 0 4.872 31" fill="#161615" x="431" y="5524"><svg xmlns="http://www.w3.org/2000/svg" xmlns:xlink="http://www.w3.org/1999/xlink" width="6" height="31" viewBox="0.277 0.325 4.742 30.171"><path paint-order="stroke fill markers" fill-rule="evenodd" d="M5.02.325H.276v30.171H5.02V.326z"/></svg></svg><svg width="6" height="31" xmlns="http://www.w3.org/2000/svg" xmlns:xlink="http://www.w3.org/1999/xlink" xmlns:svgjs="http://svgjs.com/svgjs" viewBox="0.564 0 4.872 31" fill="none" x="431" y="5524"><svg xmlns="http://www.w3.org/2000/svg" xmlns:xlink="http://www.w3.org/1999/xlink" width="6" height="31" viewBox="0.277 0.325 4.742 30.171"><path paint-order="stroke fill markers" d="M5.02.325H.276v30.171H5.02V.326z"/></svg></svg><svg width="19" height="31" xmlns="http://www.w3.org/2000/svg" xmlns:xlink="http://www.w3.org/1999/xlink" xmlns:svgjs="http://svgjs.com/svgjs" viewBox="0.163 0 18.675 31" fill="#161615" x="438" y="5524"><svg xmlns="http://www.w3.org/2000/svg" xmlns:xlink="http://www.w3.org/1999/xlink" width="19" height="31" viewBox="0.53 0.326 18.175 30.171"><path paint-order="stroke fill markers" fill-rule="evenodd" d="M18.706.326H13.49l-3.897 22.88L5.737.326H.53l6.606 30.17h4.917L18.706.327z"/></svg></svg><svg width="19" height="31" xmlns="http://www.w3.org/2000/svg" xmlns:xlink="http://www.w3.org/1999/xlink" xmlns:svgjs="http://svgjs.com/svgjs" viewBox="0.163 0 18.675 31" fill="none" x="438" y="5524"><svg xmlns="http://www.w3.org/2000/svg" xmlns:xlink="http://www.w3.org/1999/xlink" width="19" height="31" viewBox="0.53 0.326 18.175 30.171"><path paint-order="stroke fill markers" d="M18.706.326H13.49l-3.897 22.88L5.737.326H.53l6.606 30.17h4.917L18.706.327z"/></svg></svg><svg width="9" height="5" xmlns="http://www.w3.org/2000/svg" xmlns:xlink="http://www.w3.org/1999/xlink" xmlns:svgjs="http://svgjs.com/svgjs" viewBox="0 0.249 9 4.502" fill="#161615" x="457" y="5540"><svg xmlns="http://www.w3.org/2000/svg" xmlns:xlink="http://www.w3.org/1999/xlink" width="9" height="5" viewBox="0.176 0.131 8.553 4.279"><path paint-order="stroke fill markers" fill-rule="evenodd" d="M8.729.13H.176v4.28h8.553V.13z"/></svg></svg><svg width="9" height="5" xmlns="http://www.w3.org/2000/svg" xmlns:xlink="http://www.w3.org/1999/xlink" xmlns:svgjs="http://svgjs.com/svgjs" viewBox="0 0.249 9 4.502" fill="none" x="457" y="5540"><svg xmlns="http://www.w3.org/2000/svg" xmlns:xlink="http://www.w3.org/1999/xlink" width="9" height="5" viewBox="0.176 0.131 8.553 4.279"><path paint-order="stroke fill markers" d="M8.729.13H.176v4.28h8.553V.13z"/></svg></svg><svg width="17" height="31" xmlns="http://www.w3.org/2000/svg" xmlns:xlink="http://www.w3.org/1999/xlink" xmlns:svgjs="http://svgjs.com/svgjs" viewBox="0.426 0 16.148 31" fill="#161615" x="469" y="5524"><svg xmlns="http://www.w3.org/2000/svg" xmlns:xlink="http://www.w3.org/1999/xlink" width="17" height="31" viewBox="0.316 0.326 15.716 30.17"><path paint-order="stroke fill markers" fill-rule="evenodd" d="M16.032 15.41c0-5.804.04-10.084-2.206-12.586C12.601 1.427 10.866.326 7.983.326H.316v30.17h7.667c2.882 0 4.618-1.102 5.843-2.502 2.246-2.5 2.206-6.778 2.206-12.584zm-4.745-.042c0 5.255-.13 8.222-1.018 9.623-.465.716-1.273 1.225-2.411 1.225h-2.8V4.605h2.8c1.138 0 1.946.508 2.41 1.227.888 1.4 1.02 4.28 1.02 9.536z"/></svg></svg><svg width="17" height="31" xmlns="http://www.w3.org/2000/svg" xmlns:xlink="http://www.w3.org/1999/xlink" xmlns:svgjs="http://svgjs.com/svgjs" viewBox="0.426 0 16.148 31" fill="none" x="469" y="5524"><svg xmlns="http://www.w3.org/2000/svg" xmlns:xlink="http://www.w3.org/1999/xlink" width="17" height="31" viewBox="0.316 0.326 15.716 30.17"><path paint-order="stroke fill markers" d="M16.032 15.41c0-5.804.04-10.084-2.206-12.586C12.601 1.427 10.866.326 7.983.326H.316v30.17h7.667c2.882 0 4.618-1.102 5.843-2.502 2.246-2.5 2.206-6.778 2.206-12.584zm-4.745-.042c0 5.255-.13 8.222-1.018 9.623-.465.716-1.273 1.225-2.411 1.225h-2.8V4.605h2.8c1.138 0 1.946.508 2.41 1.227.888 1.4 1.02 4.28 1.02 9.536z"/></svg></svg><svg width="14" height="31" xmlns="http://www.w3.org/2000/svg" xmlns:xlink="http://www.w3.org/1999/xlink" xmlns:svgjs="http://svgjs.com/svgjs" viewBox="0.491 0 13.018 31" fill="#161615" x="488" y="5524"><svg xmlns="http://www.w3.org/2000/svg" xmlns:xlink="http://www.w3.org/1999/xlink" width="14" height="31" viewBox="0.556 0.325 12.67 30.171"><path paint-order="stroke fill markers" fill-rule="evenodd" d="M13.226 30.496v-4.281H5.301v-8.773h6.828v-4.279H5.301v-8.56h7.925V.326H.556v30.171h12.67z"/></svg></svg><svg width="14" height="31" xmlns="http://www.w3.org/2000/svg" xmlns:xlink="http://www.w3.org/1999/xlink" xmlns:svgjs="http://svgjs.com/svgjs" viewBox="0.491 0 13.018 31" fill="none" x="488" y="5524"><svg xmlns="http://www.w3.org/2000/svg" xmlns:xlink="http://www.w3.org/1999/xlink" width="14" height="31" viewBox="0.556 0.325 12.67 30.171"><path paint-order="stroke fill markers" d="M13.226 30.496v-4.281H5.301v-8.773h6.828v-4.279H5.301v-8.56h7.925V.326H.556v30.171h12.67z"/></svg></svg><svg width="17" height="31" xmlns="http://www.w3.org/2000/svg" xmlns:xlink="http://www.w3.org/1999/xlink" xmlns:svgjs="http://svgjs.com/svgjs" viewBox="0.612 0 15.775 31" fill="#161615" x="503" y="5524"><svg xmlns="http://www.w3.org/2000/svg" xmlns:xlink="http://www.w3.org/1999/xlink" width="17" height="31" viewBox="0.778 0.07 15.633 30.72"><path paint-order="stroke fill markers" fill-rule="evenodd" d="M16.41 22.147c0-5.085-.976-7.035-4.576-8.473l-3.56-1.441c-2.116-.85-2.504-1.61-2.504-4.07 0-1.312.26-2.331.811-2.967.462-.506 1.062-.847 2.033-.847 1.016 0 1.694.341 2.118.891.634.805.721 1.866.721 3.221h4.745c0-2.881-.552-5.042-2.122-6.569C12.849.708 11.066.07 8.656.07c-2.16 0-3.856.68-5.17 1.822-1.648 1.482-2.46 3.688-2.46 6.4 0 4.661 1.145 6.312 4.197 7.584l3.602 1.484c2.328.973 2.84 1.738 2.84 4.96 0 1.61-.174 2.623-.803 3.346-.469.55-1.188.847-2.292.847-1.062 0-1.776-.341-2.202-.806-.676-.764-.845-1.778-.845-3.386H.778c0 3.174.51 5.037 1.946 6.482 1.27 1.27 3.223 1.987 5.846 1.987 2.67 0 4.666-.8 5.89-1.987 1.524-1.484 1.95-3.563 1.95-6.656z"/></svg></svg><svg width="17" height="31" xmlns="http://www.w3.org/2000/svg" xmlns:xlink="http://www.w3.org/1999/xlink" xmlns:svgjs="http://svgjs.com/svgjs" viewBox="0.612 0 15.775 31" fill="none" x="503" y="5524"><svg xmlns="http://www.w3.org/2000/svg" xmlns:xlink="http://www.w3.org/1999/xlink" width="17" height="31" viewBox="0.778 0.07 15.633 30.72"><path paint-order="stroke fill markers" d="M16.41 22.147c0-5.085-.976-7.035-4.576-8.473l-3.56-1.441c-2.116-.85-2.504-1.61-2.504-4.07 0-1.312.26-2.331.811-2.967.462-.506 1.062-.847 2.033-.847 1.016 0 1.694.341 2.118.891.634.805.721 1.866.721 3.221h4.745c0-2.881-.552-5.042-2.122-6.569C12.849.708 11.066.07 8.656.07c-2.16 0-3.856.68-5.17 1.822-1.648 1.482-2.46 3.688-2.46 6.4 0 4.661 1.145 6.312 4.197 7.584l3.602 1.484c2.328.973 2.84 1.738 2.84 4.96 0 1.61-.174 2.623-.803 3.346-.469.55-1.188.847-2.292.847-1.062 0-1.776-.341-2.202-.806-.676-.764-.845-1.778-.845-3.386H.778c0 3.174.51 5.037 1.946 6.482 1.27 1.27 3.223 1.987 5.846 1.987 2.67 0 4.666-.8 5.89-1.987 1.524-1.484 1.95-3.563 1.95-6.656z"/></svg></svg><svg width="6" height="31" xmlns="http://www.w3.org/2000/svg" xmlns:xlink="http://www.w3.org/1999/xlink" xmlns:svgjs="http://svgjs.com/svgjs" viewBox="0.564 0 4.872 31" fill="#161615" x="522" y="5524"><svg xmlns="http://www.w3.org/2000/svg" xmlns:xlink="http://www.w3.org/1999/xlink" width="6" height="31" viewBox="0.7 0.325 4.742 30.171"><path paint-order="stroke fill markers" fill-rule="evenodd" d="M5.442.325H.7v30.171h4.742V.326z"/></svg></svg><svg width="6" height="31" xmlns="http://www.w3.org/2000/svg" xmlns:xlink="http://www.w3.org/1999/xlink" xmlns:svgjs="http://svgjs.com/svgjs" viewBox="0.564 0 4.872 31" fill="none" x="522" y="5524"><svg xmlns="http://www.w3.org/2000/svg" xmlns:xlink="http://www.w3.org/1999/xlink" width="6" height="31" viewBox="0.7 0.325 4.742 30.171"><path paint-order="stroke fill markers" d="M5.442.325H.7v30.171h4.742V.326z"/></svg></svg><svg width="17" height="32" xmlns="http://www.w3.org/2000/svg" xmlns:xlink="http://www.w3.org/1999/xlink" xmlns:svgjs="http://svgjs.com/svgjs" viewBox="0.326 0 16.347 32" fill="#161615" x="530" y="5523"><svg xmlns="http://www.w3.org/2000/svg" xmlns:xlink="http://www.w3.org/1999/xlink" width="17" height="32" viewBox="0.999 0.985 15.759 30.849"><path paint-order="stroke fill markers" fill-rule="evenodd" d="M16.758 23.443v-8.348H9.046v3.899h2.968v4.703c0 2.08-.934 3.858-2.968 3.858-1.139 0-1.82-.467-2.244-1.145-.89-1.442-1.06-4.492-1.06-10.001 0-5.51.17-8.56 1.06-10.002.423-.676 1.105-1.141 2.244-1.141 2.541 0 2.925 2.37 2.968 4.067h4.744c-.087-2.585-.85-4.788-2.333-6.313C13.159 1.749 11.376.985 9.045.985c-2.88 0-4.575 1.101-5.844 2.543C.952 6.072.999 10.477.999 16.408.999 22.344.952 26.75 3.2 29.29c1.269 1.443 2.964 2.544 5.845 2.544 4.49 0 7.712-2.922 7.712-8.39z"/></svg></svg><svg width="17" height="32" xmlns="http://www.w3.org/2000/svg" xmlns:xlink="http://www.w3.org/1999/xlink" xmlns:svgjs="http://svgjs.com/svgjs" viewBox="0.326 0 16.347 32" fill="none" x="530" y="5523"><svg xmlns="http://www.w3.org/2000/svg" xmlns:xlink="http://www.w3.org/1999/xlink" width="17" height="32" viewBox="0.999 0.985 15.759 30.849"><path paint-order="stroke fill markers" d="M16.758 23.443v-8.348H9.046v3.899h2.968v4.703c0 2.08-.934 3.858-2.968 3.858-1.139 0-1.82-.467-2.244-1.145-.89-1.442-1.06-4.492-1.06-10.001 0-5.51.17-8.56 1.06-10.002.423-.676 1.105-1.141 2.244-1.141 2.541 0 2.925 2.37 2.968 4.067h4.744c-.087-2.585-.85-4.788-2.333-6.313C13.159 1.749 11.376.985 9.045.985c-2.88 0-4.575 1.101-5.844 2.543C.952 6.072.999 10.477.999 16.408.999 22.344.952 26.75 3.2 29.29c1.269 1.443 2.964 2.544 5.845 2.544 4.49 0 7.712-2.922 7.712-8.39z"/></svg></svg><svg width="17" height="31" xmlns="http://www.w3.org/2000/svg" xmlns:xlink="http://www.w3.org/1999/xlink" xmlns:svgjs="http://svgjs.com/svgjs" viewBox="0.253 0 16.495 31" fill="#161615" x="550" y="5524"><svg xmlns="http://www.w3.org/2000/svg" xmlns:xlink="http://www.w3.org/1999/xlink" width="17" height="31" viewBox="0.312 0.325 16.054 30.171"><path paint-order="stroke fill markers" fill-rule="evenodd" d="M16.365 30.496V.326h-4.743v17.923L4.545.325H.312v30.171h4.744V12.57l7.116 17.926h4.193z"/></svg></svg><svg width="17" height="31" xmlns="http://www.w3.org/2000/svg" xmlns:xlink="http://www.w3.org/1999/xlink" xmlns:svgjs="http://svgjs.com/svgjs" viewBox="0.253 0 16.495 31" fill="none" x="550" y="5524"><svg xmlns="http://www.w3.org/2000/svg" xmlns:xlink="http://www.w3.org/1999/xlink" width="17" height="31" viewBox="0.312 0.325 16.054 30.171"><path paint-order="stroke fill markers" d="M16.365 30.496V.326h-4.743v17.923L4.545.325H.312v30.171h4.744V12.57l7.116 17.926h4.193z"/></svg></svg><svg width="16" height="32" xmlns="http://www.w3.org/2000/svg" xmlns:xlink="http://www.w3.org/1999/xlink" xmlns:svgjs="http://svgjs.com/svgjs" viewBox="0 0.339 16 31.322" fill="#fff" x="342" y="5523"><svg xmlns="http://www.w3.org/2000/svg" xmlns:xlink="http://www.w3.org/1999/xlink" width="16" height="32" viewBox="0.021 0.985 15.759 30.851"><path paint-order="stroke fill markers" fill-rule="evenodd" d="M15.78 23.486h-4.744c-.043 1.104-.211 2.203-.72 2.965-.424.681-1.102 1.106-2.246 1.106-1.142 0-1.82-.47-2.244-1.147-.89-1.44-1.06-4.49-1.06-10.001 0-5.508.17-8.558 1.06-10.002.423-.676 1.102-1.143 2.244-1.143 1.144 0 1.782.426 2.204 1.103.508.763.677 1.823.719 2.924h4.744c-.083-2.672-.928-4.959-2.414-6.355C11.967 1.66 10.357.986 8.07.986c-2.88 0-4.575 1.102-5.846 2.542C-.02 6.072.02 10.52.02 16.453c0 5.93-.041 10.296 2.203 12.837 1.271 1.443 2.965 2.546 5.846 2.546 2.247 0 3.855-.685 5.211-1.91 1.528-1.396 2.414-3.73 2.5-6.44z"/></svg></svg><svg width="18" height="31" xmlns="http://www.w3.org/2000/svg" xmlns:xlink="http://www.w3.org/1999/xlink" xmlns:svgjs="http://svgjs.com/svgjs" viewBox="0.622 0 16.757 31" fill="#fff" x="360" y="5524"><svg xmlns="http://www.w3.org/2000/svg" xmlns:xlink="http://www.w3.org/1999/xlink" width="18" height="31" viewBox="0.891 0.324 16.309 30.172"><path paint-order="stroke fill markers" fill-rule="evenodd" d="M17.2 30.497l-4.49-13.393c2.753-1.482 3.515-4.151 3.515-7.88 0-6.231-2.203-8.9-7.71-8.9H.89v30.173h4.743V18.12h2.667l3.944 12.377H17.2zM11.71 9.253c0 1.53 0 4.181-3.544 4.181H6.489h-.82v-.82-7.276-.82h2.496c3.544 0 3.544 2.86 3.544 4.394v.341z"/></svg></svg><svg width="13" height="31" xmlns="http://www.w3.org/2000/svg" xmlns:xlink="http://www.w3.org/1999/xlink" xmlns:svgjs="http://svgjs.com/svgjs" viewBox="0 0.019 13 30.961" fill="#fff" x="380" y="5524"><svg xmlns="http://www.w3.org/2000/svg" xmlns:xlink="http://www.w3.org/1999/xlink" width="13" height="31" viewBox="0.313 0.325 12.668 30.171"><path paint-order="stroke fill markers" fill-rule="evenodd" d="M12.981 30.496v-4.281H5.058v-8.773h6.821v-4.279H5.058v-8.56h7.923V.326H.313v30.171h12.668z"/></svg></svg><svg width="20" height="31" xmlns="http://www.w3.org/2000/svg" xmlns:xlink="http://www.w3.org/1999/xlink" xmlns:svgjs="http://svgjs.com/svgjs" viewBox="0.053 0 19.894 31" fill="#fff" x="395" y="5524"><svg xmlns="http://www.w3.org/2000/svg" xmlns:xlink="http://www.w3.org/1999/xlink" width="20" height="31" viewBox="0.097 0.324 19.363 30.172"><path paint-order="stroke fill markers" fill-rule="evenodd" d="M19.46 30.497L12.128.324H7.512L.097 30.497h5.001l1.187-5.98h6.988l1.23 5.98h4.957zM12.383 20.24H7.215L9.798 7.614l2.585 12.626z"/></svg></svg><svg width="16" height="31" xmlns="http://www.w3.org/2000/svg" xmlns:xlink="http://www.w3.org/1999/xlink" xmlns:svgjs="http://svgjs.com/svgjs" viewBox="0.359 0 15.281 31" fill="#fff" x="413" y="5524"><svg xmlns="http://www.w3.org/2000/svg" xmlns:xlink="http://www.w3.org/1999/xlink" width="16" height="31" viewBox="0.543 0.326 14.872 30.171"><path paint-order="stroke fill markers" fill-rule="evenodd" d="M15.415 4.604V.326H.543v4.278h5.042v25.893h4.748V4.604h5.082z"/></svg></svg><svg width="6" height="31" xmlns="http://www.w3.org/2000/svg" xmlns:xlink="http://www.w3.org/1999/xlink" xmlns:svgjs="http://svgjs.com/svgjs" viewBox="0.564 0 4.872 31" fill="#fff" x="431" y="5524"><svg xmlns="http://www.w3.org/2000/svg" xmlns:xlink="http://www.w3.org/1999/xlink" width="6" height="31" viewBox="0.277 0.325 4.742 30.171"><path paint-order="stroke fill markers" fill-rule="evenodd" d="M5.02.325H.276v30.171H5.02V.326z"/></svg></svg><svg width="19" height="31" xmlns="http://www.w3.org/2000/svg" xmlns:xlink="http://www.w3.org/1999/xlink" xmlns:svgjs="http://svgjs.com/svgjs" viewBox="0.163 0 18.675 31" fill="#fff" x="438" y="5524"><svg xmlns="http://www.w3.org/2000/svg" xmlns:xlink="http://www.w3.org/1999/xlink" width="19" height="31" viewBox="0.53 0.326 18.175 30.171"><path paint-order="stroke fill markers" fill-rule="evenodd" d="M18.706.326H13.49l-3.897 22.88L5.737.326H.53l6.606 30.17h4.917L18.706.327z"/></svg></svg><svg width="9" height="5" xmlns="http://www.w3.org/2000/svg" xmlns:xlink="http://www.w3.org/1999/xlink" xmlns:svgjs="http://svgjs.com/svgjs" viewBox="0 0.249 9 4.502" fill="#fff" x="457" y="5540"><svg xmlns="http://www.w3.org/2000/svg" xmlns:xlink="http://www.w3.org/1999/xlink" width="9" height="5" viewBox="0.176 0.131 8.553 4.279"><path paint-order="stroke fill markers" fill-rule="evenodd" d="M8.729.13H.176v4.28h8.553V.13z"/></svg></svg><svg width="17" height="31" xmlns="http://www.w3.org/2000/svg" xmlns:xlink="http://www.w3.org/1999/xlink" xmlns:svgjs="http://svgjs.com/svgjs" viewBox="0.426 0 16.148 31" fill="#fff" x="469" y="5524"><svg xmlns="http://www.w3.org/2000/svg" xmlns:xlink="http://www.w3.org/1999/xlink" width="17" height="31" viewBox="0.316 0.326 15.716 30.17"><path paint-order="stroke fill markers" fill-rule="evenodd" d="M16.032 15.41c0-5.804.04-10.084-2.206-12.586C12.601 1.427 10.866.326 7.983.326H.316v30.17h7.667c2.882 0 4.618-1.102 5.843-2.502 2.246-2.5 2.206-6.778 2.206-12.584zm-4.745-.042c0 5.255-.13 8.22-1.018 9.621-.465.718-1.273 1.227-2.411 1.227h-2.8V4.605h2.8c1.138 0 1.946.508 2.41 1.227.888 1.399 1.02 4.28 1.02 9.536z"/></svg></svg><svg width="14" height="31" xmlns="http://www.w3.org/2000/svg" xmlns:xlink="http://www.w3.org/1999/xlink" xmlns:svgjs="http://svgjs.com/svgjs" viewBox="0.491 0 13.018 31" fill="#fff" x="488" y="5524"><svg xmlns="http://www.w3.org/2000/svg" xmlns:xlink="http://www.w3.org/1999/xlink" width="14" height="31" viewBox="0.556 0.325 12.67 30.171"><path paint-order="stroke fill markers" fill-rule="evenodd" d="M13.226 30.496v-4.281H5.301v-8.773h6.828v-4.279H5.301v-8.56h7.925V.326H.556v30.171h12.67z"/></svg></svg><svg width="17" height="31" xmlns="http://www.w3.org/2000/svg" xmlns:xlink="http://www.w3.org/1999/xlink" xmlns:svgjs="http://svgjs.com/svgjs" viewBox="0.612 0 15.775 31" fill="#fff" x="503" y="5524"><svg xmlns="http://www.w3.org/2000/svg" xmlns:xlink="http://www.w3.org/1999/xlink" width="17" height="31" viewBox="0.778 0.07 15.633 30.72"><path paint-order="stroke fill markers" fill-rule="evenodd" d="M16.41 22.147c0-5.085-.976-7.035-4.576-8.473l-3.56-1.441c-2.116-.85-2.504-1.61-2.504-4.07 0-1.312.26-2.331.811-2.967.462-.506 1.062-.847 2.033-.847 1.016 0 1.694.341 2.117.891.635.805.722 1.866.722 3.221h4.745c0-2.881-.552-5.042-2.122-6.569C12.849.708 11.066.07 8.656.07c-2.16 0-3.856.68-5.17 1.822-1.648 1.482-2.46 3.688-2.46 6.4 0 4.661 1.145 6.312 4.197 7.584l3.602 1.484c2.328.973 2.84 1.738 2.84 4.96 0 1.61-.174 2.623-.803 3.346-.469.55-1.188.847-2.292.847-1.062 0-1.776-.341-2.202-.806-.676-.764-.845-1.778-.845-3.386H.778c0 3.174.51 5.037 1.946 6.482 1.27 1.27 3.223 1.987 5.846 1.987 2.67 0 4.666-.8 5.89-1.987 1.524-1.484 1.95-3.563 1.95-6.656z"/></svg></svg><svg width="6" height="31" xmlns="http://www.w3.org/2000/svg" xmlns:xlink="http://www.w3.org/1999/xlink" xmlns:svgjs="http://svgjs.com/svgjs" viewBox="0.564 0 4.872 31" fill="#fff" x="522" y="5524"><svg xmlns="http://www.w3.org/2000/svg" xmlns:xlink="http://www.w3.org/1999/xlink" width="6" height="31" viewBox="0.7 0.325 4.742 30.171"><path paint-order="stroke fill markers" fill-rule="evenodd" d="M5.442.325H.7v30.171h4.742V.326z"/></svg></svg><svg width="17" height="32" xmlns="http://www.w3.org/2000/svg" xmlns:xlink="http://www.w3.org/1999/xlink" xmlns:svgjs="http://svgjs.com/svgjs" viewBox="0.326 0 16.347 32" fill="#fff" x="530" y="5523"><svg xmlns="http://www.w3.org/2000/svg" xmlns:xlink="http://www.w3.org/1999/xlink" width="17" height="32" viewBox="0.999 0.985 15.759 30.849"><path paint-order="stroke fill markers" fill-rule="evenodd" d="M16.758 23.443v-8.348H9.046v3.899h2.968v4.703c0 2.08-.934 3.858-2.968 3.858-1.139 0-1.82-.467-2.244-1.145-.89-1.442-1.06-4.492-1.06-10.001 0-5.51.17-8.56 1.06-10.002.423-.676 1.105-1.141 2.244-1.141 2.541 0 2.925 2.37 2.968 4.067h4.744c-.087-2.585-.85-4.788-2.333-6.313C13.159 1.749 11.376.985 9.045.985c-2.88 0-4.575 1.101-5.844 2.543C.952 6.072.999 10.477.999 16.408.999 22.344.952 26.75 3.2 29.29c1.269 1.443 2.964 2.544 5.845 2.544 4.49 0 7.712-2.922 7.712-8.39z"/></svg></svg><svg width="17" height="31" xmlns="http://www.w3.org/2000/svg" xmlns:xlink="http://www.w3.org/1999/xlink" xmlns:svgjs="http://svgjs.com/svgjs" viewBox="0.253 0 16.495 31" fill="#fff" x="550" y="5524"><svg xmlns="http://www.w3.org/2000/svg" xmlns:xlink="http://www.w3.org/1999/xlink" width="17" height="31" viewBox="0.312 0.325 16.054 30.171"><path paint-order="stroke fill markers" fill-rule="evenodd" d="M16.365 30.496V.326h-4.743v17.923L4.545.325H.312v30.171h4.744V12.57l7.116 17.926h4.193z"/></svg></svg><svg width="18" height="46" xmlns="http://www.w3.org/2000/svg" xmlns:xlink="http://www.w3.org/1999/xlink" xmlns:svgjs="http://svgjs.com/svgjs" viewBox="0.63 0 16.74 46" fill="#161615" x="221" y="5513"><svg xmlns="http://www.w3.org/2000/svg" xmlns:xlink="http://www.w3.org/1999/xlink" width="18" height="46" viewBox="0.681 0.285 16.537 45.443"><path paint-order="stroke fill markers" fill-rule="evenodd" d="M.68 28.477l6.279 17.25L17.218 17.53 10.939.285l-.102.282L.68 28.477z"/></svg></svg><svg width="24" height="38" xmlns="http://www.w3.org/2000/svg" xmlns:xlink="http://www.w3.org/1999/xlink" xmlns:svgjs="http://svgjs.com/svgjs" viewBox="0 0.33 24 37.341" fill="#161615" x="249" y="5554"><svg xmlns="http://www.w3.org/2000/svg" xmlns:xlink="http://www.w3.org/1999/xlink" width="24" height="38" viewBox="0.112 0.332 23.658 36.809"><path paint-order="stroke fill markers" fill-rule="evenodd" d="M.112 37.138l20.523.003 3.135-8.621L13.511.332.112 37.138z"/></svg></svg><svg width="25" height="37" xmlns="http://www.w3.org/2000/svg" xmlns:xlink="http://www.w3.org/1999/xlink" xmlns:svgjs="http://svgjs.com/svgjs" viewBox="0.613 0 23.775 37" fill="#161615" x="275" y="5509"><svg xmlns="http://www.w3.org/2000/svg" xmlns:xlink="http://www.w3.org/1999/xlink" width="25" height="37" viewBox="0.854 0.044 23.659 36.82"><path paint-order="stroke fill markers" fill-rule="evenodd" d="M24.513.044H3.99L.854 8.67l10.262 28.195L24.513.044z"/></svg></svg><svg width="24" height="37" xmlns="http://www.w3.org/2000/svg" xmlns:xlink="http://www.w3.org/1999/xlink" xmlns:svgjs="http://svgjs.com/svgjs" viewBox="0.112 0 23.776 37" fill="#161615" x="180" y="5509"><svg xmlns="http://www.w3.org/2000/svg" xmlns:xlink="http://www.w3.org/1999/xlink" width="24" height="37" viewBox="0 0.044 23.658 36.816"><path paint-order="stroke fill markers" fill-rule="evenodd" d="M23.658 8.668L20.52.044H0l13.4 36.817L23.657 8.668z"/></svg></svg><svg width="25" height="38" xmlns="http://www.w3.org/2000/svg" xmlns:xlink="http://www.w3.org/1999/xlink" xmlns:svgjs="http://svgjs.com/svgjs" viewBox="0.292 0 24.417 38" fill="#161615" x="206" y="5554"><svg xmlns="http://www.w3.org/2000/svg" xmlns:xlink="http://www.w3.org/1999/xlink" width="25" height="38" viewBox="0.742 0.327 23.655 36.814"><path paint-order="stroke fill markers" fill-rule="evenodd" d="M.742 28.521l3.135 8.613 20.52.007L11 .327.742 28.521z"/></svg></svg><svg width="51" height="83" xmlns="http://www.w3.org/2000/svg" xmlns:xlink="http://www.w3.org/1999/xlink" xmlns:svgjs="http://svgjs.com/svgjs" viewBox="0.024 0 50.951 83" fill="#161615" x="180" y="5509"><svg xmlns="http://www.w3.org/2000/svg" xmlns:xlink="http://www.w3.org/1999/xlink" width="51" height="83" viewBox="0 0.044 50.397 82.097"><path paint-order="stroke fill markers" fill-rule="evenodd" d="M50.397.044H29.88l-.004.003L0 82.138l20.52.003L50.397.044z"/></svg></svg><svg width="51" height="83" xmlns="http://www.w3.org/2000/svg" xmlns:xlink="http://www.w3.org/1999/xlink" xmlns:svgjs="http://svgjs.com/svgjs" viewBox="0.021 0 50.959 83" fill="#161615" x="249" y="5509"><svg xmlns="http://www.w3.org/2000/svg" xmlns:xlink="http://www.w3.org/1999/xlink" width="51" height="83" viewBox="0.112 0.044 50.404 82.096"><path paint-order="stroke fill markers" fill-rule="evenodd" d="M20.64.051l-.004-.007H.112l29.874 82.09 20.53.006L20.639.051z"/></svg></svg><svg width="29" height="50" xmlns="http://www.w3.org/2000/svg" xmlns:xlink="http://www.w3.org/1999/xlink" xmlns:svgjs="http://svgjs.com/svgjs" viewBox="0.243 0 28.515 50" fill="#161615" x="229" y="5513"><svg xmlns="http://www.w3.org/2000/svg" xmlns:xlink="http://www.w3.org/1999/xlink" width="29" height="50" viewBox="0.503 0.283 28.329 49.674"><path paint-order="stroke fill markers" fill-rule="evenodd" d="M20.856 49.876h-.003l-20.35.082L18.571.283l10.26 28.195-7.975 21.398z"/></svg></svg><svg width="7" height="6" xmlns="http://www.w3.org/2000/svg" xmlns:xlink="http://www.w3.org/1999/xlink" xmlns:svgjs="http://svgjs.com/svgjs" viewBox="0.5 0 6 6" fill="#161615" x="319" y="5497"><svg xmlns="http://www.w3.org/2000/svg" xmlns:xlink="http://www.w3.org/1999/xlink" width="7" height="6" viewBox="0.606 0.001 5.5 5.501"><path paint-order="stroke fill markers" fill-rule="evenodd" d="M3.356 5.502a2.75 2.75 0 1 0 0-5.5 2.75 2.75 0 0 0 0 5.5z"/></svg></svg><svg width="7" height="6" xmlns="http://www.w3.org/2000/svg" xmlns:xlink="http://www.w3.org/1999/xlink" xmlns:svgjs="http://svgjs.com/svgjs" viewBox="0.5 0 6 6" fill="#161615" x="319" y="5507"><svg xmlns="http://www.w3.org/2000/svg" xmlns:xlink="http://www.w3.org/1999/xlink" width="7" height="6" viewBox="0.606 0.264 5.5 5.501"><path paint-order="stroke fill markers" fill-rule="evenodd" d="M3.356 5.764a2.75 2.75 0 1 0 0-5.5 2.75 2.75 0 0 0 0 5.5z"/></svg></svg><svg width="7" height="7" xmlns="http://www.w3.org/2000/svg" xmlns:xlink="http://www.w3.org/1999/xlink" xmlns:svgjs="http://svgjs.com/svgjs" fill="#161615" x="319" y="5517"><svg xmlns="http://www.w3.org/2000/svg" xmlns:xlink="http://www.w3.org/1999/xlink" width="7" height="7" viewBox="0.606 0.524 5.5 5.5"><path paint-order="stroke fill markers" fill-rule="evenodd" d="M3.356 6.025a2.75 2.75 0 1 0 0-5.5 2.75 2.75 0 0 0 0 5.5z"/></svg></svg><svg width="7" height="7" xmlns="http://www.w3.org/2000/svg" xmlns:xlink="http://www.w3.org/1999/xlink" xmlns:svgjs="http://svgjs.com/svgjs" fill="#161615" x="319" y="5527"><svg xmlns="http://www.w3.org/2000/svg" xmlns:xlink="http://www.w3.org/1999/xlink" width="7" height="7" viewBox="0.606 0.785 5.5 5.501"><path paint-order="stroke fill markers" fill-rule="evenodd" d="M3.356 6.285a2.75 2.75 0 1 0-.001-5.5 2.75 2.75 0 0 0 0 5.5z"/></svg></svg><svg width="7" height="6" xmlns="http://www.w3.org/2000/svg" xmlns:xlink="http://www.w3.org/1999/xlink" xmlns:svgjs="http://svgjs.com/svgjs" viewBox="0.5 0 6 6" fill="#161615" x="319" y="5538"><svg xmlns="http://www.w3.org/2000/svg" xmlns:xlink="http://www.w3.org/1999/xlink" width="7" height="6" viewBox="0.606 0.045 5.5 5.5"><path paint-order="stroke fill markers" fill-rule="evenodd" d="M3.356 5.546a2.75 2.75 0 1 0 0-5.5 2.75 2.75 0 0 0 0 5.5z"/></svg></svg><svg width="7" height="6" xmlns="http://www.w3.org/2000/svg" xmlns:xlink="http://www.w3.org/1999/xlink" xmlns:svgjs="http://svgjs.com/svgjs" viewBox="0.5 0 6 6" fill="#161615" x="319" y="5548"><svg xmlns="http://www.w3.org/2000/svg" xmlns:xlink="http://www.w3.org/1999/xlink" width="7" height="6" viewBox="0.606 0.307 5.5 5.501"><path paint-order="stroke fill markers" fill-rule="evenodd" d="M3.356 5.808a2.75 2.75 0 1 0 0-5.5 2.75 2.75 0 0 0 0 5.5z"/></svg></svg><svg width="7" height="7" xmlns="http://www.w3.org/2000/svg" xmlns:xlink="http://www.w3.org/1999/xlink" xmlns:svgjs="http://svgjs.com/svgjs" fill="#161615" x="319" y="5558"><svg xmlns="http://www.w3.org/2000/svg" xmlns:xlink="http://www.w3.org/1999/xlink" width="7" height="7" viewBox="0.606 0.568 5.5 5.5"><path paint-order="stroke fill markers" fill-rule="evenodd" d="M3.356 6.068a2.75 2.75 0 1 0 0-5.5 2.75 2.75 0 0 0 0 5.5z"/></svg></svg><svg width="7" height="7" xmlns="http://www.w3.org/2000/svg" xmlns:xlink="http://www.w3.org/1999/xlink" xmlns:svgjs="http://svgjs.com/svgjs" fill="#161615" x="319" y="5568"><svg xmlns="http://www.w3.org/2000/svg" xmlns:xlink="http://www.w3.org/1999/xlink" width="7" height="7" viewBox="0.606 0.828 5.5 5.501"><path paint-order="stroke fill markers" fill-rule="evenodd" d="M3.356 6.329a2.75 2.75 0 1 0 0-5.5 2.75 2.75 0 0 0 0 5.5z"/></svg></svg><svg width="7" height="6" xmlns="http://www.w3.org/2000/svg" xmlns:xlink="http://www.w3.org/1999/xlink" xmlns:svgjs="http://svgjs.com/svgjs" viewBox="0.5 0 6 6" fill="#161615" x="319" y="5579"><svg xmlns="http://www.w3.org/2000/svg" xmlns:xlink="http://www.w3.org/1999/xlink" width="7" height="6" viewBox="0.606 0.091 5.5 5.5"><path paint-order="stroke fill markers" fill-rule="evenodd" d="M3.356 5.59a2.75 2.75 0 1 0 0-5.5 2.75 2.75 0 0 0 0 5.5z"/></svg></svg><svg width="7" height="6" xmlns="http://www.w3.org/2000/svg" xmlns:xlink="http://www.w3.org/1999/xlink" xmlns:svgjs="http://svgjs.com/svgjs" viewBox="0.5 0 6 6" fill="#161615" x="319" y="5589"><svg xmlns="http://www.w3.org/2000/svg" xmlns:xlink="http://www.w3.org/1999/xlink" width="7" height="6" viewBox="0.606 0.351 5.5 5.501"><path paint-order="stroke fill markers" fill-rule="evenodd" d="M3.356 5.852a2.75 2.75 0 1 0 0-5.5 2.75 2.75 0 0 0 0 5.5z"/></svg></svg><svg width="7" height="7" xmlns="http://www.w3.org/2000/svg" xmlns:xlink="http://www.w3.org/1999/xlink" xmlns:svgjs="http://svgjs.com/svgjs" fill="#161615" x="319" y="5599"><svg xmlns="http://www.w3.org/2000/svg" width="7" height="7" viewBox="0.606 0.612 5.5 5.5"><path paint-order="stroke fill markers" fill-rule="evenodd" d="M3.356 6.112a2.75 2.75 0 1 0 0-5.5 2.75 2.75 0 0 0 0 5.5z"/></svg></svg></svg>