<svg width="558" height="119" xmlns="http://www.w3.org/2000/svg" xmlns:xlink="http://www.w3.org/1999/xlink" xmlns:svgjs="http://svgjs.com/svgjs" viewBox="160 1193 558 119"><svg width="50" height="57" xmlns="http://www.w3.org/2000/svg" xmlns:xlink="http://www.w3.org/1999/xlink" xmlns:svgjs="http://svgjs.com/svgjs" viewBox="0 0.047 50 56.906" fill="#161615" x="335" y="1224"><svg xmlns="http://www.w3.org/2000/svg" xmlns:xlink="http://www.w3.org/1999/xlink" width="50" height="57" viewBox="0.289 0.617 48.866 55.615"><path paint-order="stroke fill markers" fill-rule="evenodd" d="M12.441.617L24.68 23.18 37.076.617h12.08V56.23H37.95V20.88L24.919 43.675h-.24L.289.617h12.152z"/></svg></svg><svg width="37" height="57" xmlns="http://www.w3.org/2000/svg" xmlns:xlink="http://www.w3.org/1999/xlink" xmlns:svgjs="http://svgjs.com/svgjs" viewBox="0 0.042 37 56.917" fill="#161615" x="395" y="1224"><svg xmlns="http://www.w3.org/2000/svg" xmlns:xlink="http://www.w3.org/1999/xlink" width="37" height="57" viewBox="0.829 0.617 36.154 55.615"><path paint-order="stroke fill markers" fill-rule="evenodd" d="M.83 23.02h32.895v10.41H12.27v12.398h24.713v10.403H.829v-33.21zM.83.618h35.835v10.401H.829V.617z"/></svg></svg><svg width="40" height="12" xmlns="http://www.w3.org/2000/svg" xmlns:xlink="http://www.w3.org/1999/xlink" xmlns:svgjs="http://svgjs.com/svgjs" viewBox="0 0.721 40 10.558" fill="#161615" x="438" y="1224"><svg xmlns="http://www.w3.org/2000/svg" xmlns:xlink="http://www.w3.org/1999/xlink" width="40" height="12" viewBox="0.067 0.617 39.41 10.402"><path paint-order="stroke fill markers" fill-rule="evenodd" d="M.067.617h39.41v10.402H.067V.617z"/></svg></svg><svg width="12" height="34" xmlns="http://www.w3.org/2000/svg" xmlns:xlink="http://www.w3.org/1999/xlink" xmlns:svgjs="http://svgjs.com/svgjs" viewBox="0.142 0 11.717 34" fill="#161615" x="452" y="1247"><svg xmlns="http://www.w3.org/2000/svg" xmlns:xlink="http://www.w3.org/1999/xlink" width="12" height="34" viewBox="0.051 0.021 11.444 33.21"><path paint-order="stroke fill markers" fill-rule="evenodd" d="M.05.021h11.445v33.21H.051V.021z"/></svg></svg><svg width="46" height="57" xmlns="http://www.w3.org/2000/svg" xmlns:xlink="http://www.w3.org/1999/xlink" xmlns:svgjs="http://svgjs.com/svgjs" viewBox="0 0.307 46 56.387" fill="#161615" x="485" y="1224"><svg xmlns="http://www.w3.org/2000/svg" xmlns:xlink="http://www.w3.org/1999/xlink" width="46" height="57" viewBox="0.531 0.617 45.37 55.615"><path paint-order="stroke fill markers" fill-rule="evenodd" d="M.531.617h3.976l18.667 32.495L41.93.617h3.971V56.23h-3.97V7.928L23.331 40.184h-.317L4.348 7.928V56.23H.531V.617z"/></svg></svg><svg width="49" height="57" xmlns="http://www.w3.org/2000/svg" xmlns:xlink="http://www.w3.org/1999/xlink" xmlns:svgjs="http://svgjs.com/svgjs" viewBox="0.403 0 48.194 57" fill="#161615" x="540" y="1224"><svg xmlns="http://www.w3.org/2000/svg" xmlns:xlink="http://www.w3.org/1999/xlink" width="49" height="57" viewBox="0.711 0.219 47.361 56.014"><path paint-order="stroke fill markers" fill-rule="evenodd" d="M22.407.22h3.972l21.693 56.014H43.78l-5.883-15.576h-27.25l-5.88 15.576H.711L22.407.219zM36.47 37.083L24.309 5.065 12.08 37.084h24.389z"/></svg></svg><svg width="42" height="57" xmlns="http://www.w3.org/2000/svg" xmlns:xlink="http://www.w3.org/1999/xlink" xmlns:svgjs="http://svgjs.com/svgjs" viewBox="0 0.61 42 55.78" fill="#161615" x="596" y="1224"><svg xmlns="http://www.w3.org/2000/svg" xmlns:xlink="http://www.w3.org/1999/xlink" width="42" height="57" viewBox="0.075 0.617 41.876 55.615"><path paint-order="stroke fill markers" fill-rule="evenodd" d="M40.997.617L23.359 27.628l18.592 28.603h-4.532L20.893 30.49 4.528 56.231H.075l18.594-28.519L.945.617h4.533L20.973 24.77 36.55.617h4.448z"/></svg></svg><svg width="42" height="57" xmlns="http://www.w3.org/2000/svg" xmlns:xlink="http://www.w3.org/1999/xlink" xmlns:svgjs="http://svgjs.com/svgjs" viewBox="0 0.612 42 55.775" fill="#161615" x="646" y="1224"><svg xmlns="http://www.w3.org/2000/svg" xmlns:xlink="http://www.w3.org/1999/xlink" width="42" height="57" viewBox="0.032 0.617 41.879 55.615"><path paint-order="stroke fill markers" fill-rule="evenodd" d="M40.95.617L23.31 27.628l18.602 28.603h-4.536L20.846 30.49 4.485 56.231H.032l18.593-28.519L.912.617H5.44l15.49 24.153L36.503.617h4.448z"/></svg></svg><svg width="12" height="34" xmlns="http://www.w3.org/2000/svg" xmlns:xlink="http://www.w3.org/1999/xlink" xmlns:svgjs="http://svgjs.com/svgjs" viewBox="0.224 0 11.552 34" fill="#161615" x="335" y="1247"><svg xmlns="http://www.w3.org/2000/svg" xmlns:xlink="http://www.w3.org/1999/xlink" width="12" height="34" viewBox="0.289 0.018 11.286 33.215"><path paint-order="stroke fill markers" fill-rule="evenodd" d="M11.575 19.943v13.29H.289V.019l11.286 19.925z"/></svg></svg><svg width="26" height="26" xmlns="http://www.w3.org/2000/svg" xmlns:xlink="http://www.w3.org/1999/xlink" xmlns:svgjs="http://svgjs.com/svgjs" viewBox="0 0.003 26 25.994" fill="#161615" x="692" y="1223"><svg xmlns="http://www.w3.org/2000/svg" xmlns:xlink="http://www.w3.org/1999/xlink" width="26" height="26" viewBox="0.392 0.496 24.651 24.645"><path paint-order="stroke fill markers" fill-rule="evenodd" d="M12.68 25.141c-1.75 0-3.379-.32-4.89-.96-1.51-.628-2.81-1.498-3.893-2.603a11.94 11.94 0 0 1-2.573-3.846 11.832 11.832 0 0 1-.932-4.675v-.444c0-1.657.312-3.217.932-4.68A12.005 12.005 0 0 1 3.913 4.08C5.01 2.983 6.318 2.11 7.832 1.465 9.334.82 10.98.496 12.755.496c1.749 0 3.38.312 4.895.948 1.502.642 2.8 1.506 3.89 2.603a12.302 12.302 0 0 1 2.567 3.854c.626 1.457.936 3.02.936 4.675v.411c0 1.654-.31 3.218-.936 4.68a12.164 12.164 0 0 1-2.584 3.867c-1.103 1.108-2.416 1.987-3.918 2.636-1.514.647-3.153.971-4.925.971zm0-.96c1.645 0 3.163-.286 4.54-.874 1.386-.595 2.572-1.399 3.56-2.423a11.233 11.233 0 0 0 2.32-3.57c.555-1.363.84-2.803.84-4.327v-.41c0-1.52-.275-2.953-.816-4.302a10.865 10.865 0 0 0-2.3-3.543c-.996-1.014-2.176-1.807-3.543-2.402-1.374-.59-2.882-.886-4.526-.886-1.653 0-3.169.296-4.544.886-1.386.595-2.566 1.397-3.554 2.415A11.16 11.16 0 0 0 2.33 8.308a11.211 11.211 0 0 0-.835 4.305v.444c0 1.518.28 2.958.835 4.305a10.93 10.93 0 0 0 5.86 5.945c1.373.588 2.863.874 4.49.874zM8.19 6.178h5.025c1.622 0 2.872.397 3.76 1.194.332.298.595.649.8 1.07.202.424.305.891.305 1.413v.07c0 .996-.318 1.79-.934 2.384-.623.587-1.427.994-2.411 1.225l4.033 5.311h-1.946l-3.76-5.037H9.715v5.037H8.19V6.178zm4.871 6.366c.958 0 1.776-.21 2.431-.628.665-.42.993-1.063.993-1.922v-.07c0-.767-.306-1.366-.913-1.789-.613-.418-1.427-.635-2.44-.635H9.716v5.044h3.345z"/></svg></svg><svg width="26" height="26" xmlns="http://www.w3.org/2000/svg" xmlns:xlink="http://www.w3.org/1999/xlink" xmlns:svgjs="http://svgjs.com/svgjs" viewBox="0 0.003 26 25.994" fill="none" x="692" y="1223"><svg xmlns="http://www.w3.org/2000/svg" xmlns:xlink="http://www.w3.org/1999/xlink" width="26" height="26" viewBox="0.392 0.496 24.651 24.645"><path paint-order="stroke fill markers" d="M12.68 25.141c-1.75 0-3.379-.32-4.89-.96-1.51-.628-2.81-1.498-3.893-2.603a11.94 11.94 0 0 1-2.573-3.846 11.832 11.832 0 0 1-.932-4.675v-.444c0-1.657.312-3.217.932-4.68A12.005 12.005 0 0 1 3.913 4.08C5.01 2.983 6.318 2.11 7.832 1.465 9.334.82 10.98.496 12.755.496c1.749 0 3.38.312 4.895.948 1.502.642 2.8 1.506 3.89 2.603a12.302 12.302 0 0 1 2.567 3.854c.626 1.457.936 3.02.936 4.675v.411c0 1.654-.31 3.218-.936 4.68a12.164 12.164 0 0 1-2.584 3.867c-1.103 1.108-2.416 1.987-3.918 2.636-1.514.647-3.153.971-4.925.971zm0-.96c1.645 0 3.163-.286 4.54-.874 1.386-.595 2.572-1.399 3.56-2.423a11.233 11.233 0 0 0 2.32-3.57c.555-1.363.84-2.803.84-4.327v-.41c0-1.52-.275-2.953-.816-4.302a10.865 10.865 0 0 0-2.3-3.543c-.996-1.014-2.176-1.807-3.543-2.402-1.374-.59-2.882-.886-4.526-.886-1.653 0-3.169.296-4.544.886-1.386.595-2.566 1.397-3.554 2.415A11.16 11.16 0 0 0 2.33 8.308a11.211 11.211 0 0 0-.835 4.305v.444c0 1.518.28 2.958.835 4.305a10.93 10.93 0 0 0 5.86 5.945c1.373.588 2.863.874 4.49.874zM8.19 6.178h5.025c1.622 0 2.872.397 3.76 1.194.332.298.595.649.8 1.07.202.424.305.891.305 1.413v.07c0 .996-.318 1.79-.934 2.384-.623.587-1.427.994-2.411 1.225l4.033 5.311h-1.946l-3.76-5.037H9.715v5.037H8.19V6.178zm4.871 6.366c.958 0 1.776-.21 2.431-.628.665-.42.993-1.063.993-1.922v-.07c0-.767-.306-1.366-.913-1.789-.613-.418-1.427-.635-2.44-.635H9.716v5.044h3.345z"/></svg></svg><svg width="19" height="50" xmlns="http://www.w3.org/2000/svg" xmlns:xlink="http://www.w3.org/1999/xlink" xmlns:svgjs="http://svgjs.com/svgjs" viewBox="0.402 0 18.196 50" fill="#161615" x="205" y="1212"><svg xmlns="http://www.w3.org/2000/svg" xmlns:xlink="http://www.w3.org/1999/xlink" width="19" height="50" viewBox="0.506 0.042 18.055 49.614"><path paint-order="stroke fill markers" fill-rule="evenodd" d="M.506 30.822L7.36 49.656l11.2-30.788L11.707.042l-.113.306L.506 30.822z"/></svg></svg><svg width="27" height="42" xmlns="http://www.w3.org/2000/svg" xmlns:xlink="http://www.w3.org/1999/xlink" xmlns:svgjs="http://svgjs.com/svgjs" viewBox="0.004 0 26.992 42" fill="#161615" x="235" y="1256"><svg xmlns="http://www.w3.org/2000/svg" xmlns:xlink="http://www.w3.org/1999/xlink" width="27" height="42" viewBox="0.455 0.854 25.829 40.19"><path paint-order="stroke fill markers" fill-rule="evenodd" d="M.455 41.04l22.406.004 3.423-9.413L15.084.854.455 41.04z"/></svg></svg><svg width="27" height="41" xmlns="http://www.w3.org/2000/svg" xmlns:xlink="http://www.w3.org/1999/xlink" xmlns:svgjs="http://svgjs.com/svgjs" viewBox="0.327 0 26.346 41" fill="#161615" x="264" y="1207"><svg xmlns="http://www.w3.org/2000/svg" xmlns:xlink="http://www.w3.org/1999/xlink" width="27" height="41" viewBox="0.652 0.412 25.829 40.195"><path paint-order="stroke fill markers" fill-rule="evenodd" d="M26.481.412H4.076L.652 9.827l11.202 30.78L26.481.412z"/></svg></svg><svg width="26" height="41" xmlns="http://www.w3.org/2000/svg" xmlns:xlink="http://www.w3.org/1999/xlink" xmlns:svgjs="http://svgjs.com/svgjs" viewBox="0 0.269 26 40.461" fill="#161615" x="160" y="1207"><svg xmlns="http://www.w3.org/2000/svg" xmlns:xlink="http://www.w3.org/1999/xlink" width="26" height="41" viewBox="0 0.412 25.829 40.195"><path paint-order="stroke fill markers" fill-rule="evenodd" d="M25.829 9.827L22.405.412H0l14.63 40.195 11.199-30.78z"/></svg></svg><svg width="27" height="42" xmlns="http://www.w3.org/2000/svg" xmlns:xlink="http://www.w3.org/1999/xlink" xmlns:svgjs="http://svgjs.com/svgjs" viewBox="0.007 0 26.987 42" fill="#161615" x="189" y="1256"><svg xmlns="http://www.w3.org/2000/svg" xmlns:xlink="http://www.w3.org/1999/xlink" width="27" height="42" viewBox="0.196 0.85 25.826 40.193"><path paint-order="stroke fill markers" fill-rule="evenodd" d="M.196 31.633l3.424 9.403 22.402.007L11.396.85.196 31.633z"/></svg></svg><svg width="56" height="91" xmlns="http://www.w3.org/2000/svg" xmlns:xlink="http://www.w3.org/1999/xlink" xmlns:svgjs="http://svgjs.com/svgjs" viewBox="0.069 0 55.862 91" fill="#161615" x="160" y="1207"><svg xmlns="http://www.w3.org/2000/svg" xmlns:xlink="http://www.w3.org/1999/xlink" width="56" height="91" viewBox="0 0.412 55.022 89.631"><path paint-order="stroke fill markers" fill-rule="evenodd" d="M55.022.412H32.623l-.003.004L0 90.04l22.405.004L55.022.412z"/></svg></svg><svg width="56" height="91" xmlns="http://www.w3.org/2000/svg" xmlns:xlink="http://www.w3.org/1999/xlink" xmlns:svgjs="http://svgjs.com/svgjs" viewBox="0.064 0 55.872 91" fill="#161615" x="235" y="1207"><svg xmlns="http://www.w3.org/2000/svg" xmlns:xlink="http://www.w3.org/1999/xlink" width="56" height="91" viewBox="0.454 0.413 55.03 89.628"><path paint-order="stroke fill markers" fill-rule="evenodd" d="M22.866.42l-.003-.007H.454L33.07 90.036l22.414.005L22.866.421z"/></svg></svg><svg width="31" height="55" xmlns="http://www.w3.org/2000/svg" xmlns:xlink="http://www.w3.org/1999/xlink" xmlns:svgjs="http://svgjs.com/svgjs" viewBox="0 0.322 31 54.357" fill="#161615" x="214" y="1212"><svg xmlns="http://www.w3.org/2000/svg" xmlns:xlink="http://www.w3.org/1999/xlink" width="31" height="55" viewBox="0.045 0.041 30.93 54.233"><path paint-order="stroke fill markers" fill-rule="evenodd" d="M22.251 54.24h-.003l-22.203.034L19.772.041l11.203 30.78L22.25 54.24z"/></svg></svg><svg width="7" height="7" xmlns="http://www.w3.org/2000/svg" xmlns:xlink="http://www.w3.org/1999/xlink" xmlns:svgjs="http://svgjs.com/svgjs" viewBox="0 0 6.999 7" fill="#161615" x="311" y="1193"><svg xmlns="http://www.w3.org/2000/svg" xmlns:xlink="http://www.w3.org/1999/xlink" width="7" height="7" viewBox="0.855 0.212 6.005 6.005"><path paint-order="stroke fill markers" fill-rule="evenodd" d="M3.858 6.217a3.002 3.002 0 1 0 0-6.004 3.002 3.002 0 0 0 0 6.004z"/></svg></svg><svg width="7" height="7" xmlns="http://www.w3.org/2000/svg" xmlns:xlink="http://www.w3.org/1999/xlink" xmlns:svgjs="http://svgjs.com/svgjs" fill="#161615" x="311" y="1204"><svg xmlns="http://www.w3.org/2000/svg" xmlns:xlink="http://www.w3.org/1999/xlink" width="7" height="7" viewBox="0.855 0.416 6.005 6.005"><path paint-order="stroke fill markers" fill-rule="evenodd" d="M3.858 6.421a3.002 3.002 0 1 0 0-6.004 3.002 3.002 0 0 0 0 6.004z"/></svg></svg><svg width="7" height="7" xmlns="http://www.w3.org/2000/svg" xmlns:xlink="http://www.w3.org/1999/xlink" xmlns:svgjs="http://svgjs.com/svgjs" viewBox="0 0 6.999 7" fill="#161615" x="311" y="1215"><svg xmlns="http://www.w3.org/2000/svg" xmlns:xlink="http://www.w3.org/1999/xlink" width="7" height="7" viewBox="0.855 0.618 6.005 6.005"><path paint-order="stroke fill markers" fill-rule="evenodd" d="M3.858 6.624a3.002 3.002 0 1 0 0-6.006 3.002 3.002 0 1 0 0 6.006z"/></svg></svg><svg width="7" height="7" xmlns="http://www.w3.org/2000/svg" xmlns:xlink="http://www.w3.org/1999/xlink" xmlns:svgjs="http://svgjs.com/svgjs" viewBox="0 0 6.999 7" fill="#161615" x="311" y="1226"><svg xmlns="http://www.w3.org/2000/svg" xmlns:xlink="http://www.w3.org/1999/xlink" width="7" height="7" viewBox="0.855 0.82 6.005 6.005"><path paint-order="stroke fill markers" fill-rule="evenodd" d="M3.858 6.826a3.002 3.002 0 1 0 0-6.005 3.002 3.002 0 0 0 0 6.005z"/></svg></svg><svg width="7" height="7" xmlns="http://www.w3.org/2000/svg" xmlns:xlink="http://www.w3.org/1999/xlink" xmlns:svgjs="http://svgjs.com/svgjs" fill="#161615" x="311" y="1238"><svg xmlns="http://www.w3.org/2000/svg" xmlns:xlink="http://www.w3.org/1999/xlink" width="7" height="7" viewBox="0.855 0.023 6.005 6.005"><path paint-order="stroke fill markers" fill-rule="evenodd" d="M3.858 6.028a3.002 3.002 0 1 0 0-6.005 3.002 3.002 0 0 0 0 6.005z"/></svg></svg><svg width="7" height="7" xmlns="http://www.w3.org/2000/svg" xmlns:xlink="http://www.w3.org/1999/xlink" xmlns:svgjs="http://svgjs.com/svgjs" viewBox="0 0 6.999 7" fill="#161615" x="311" y="1249"><svg xmlns="http://www.w3.org/2000/svg" xmlns:xlink="http://www.w3.org/1999/xlink" width="7" height="7" viewBox="0.855 0.227 6.005 6.005"><path paint-order="stroke fill markers" fill-rule="evenodd" d="M3.858 6.232a3.002 3.002 0 1 0 0-6.005 3.002 3.002 0 0 0 0 6.005z"/></svg></svg><svg width="7" height="7" xmlns="http://www.w3.org/2000/svg" xmlns:xlink="http://www.w3.org/1999/xlink" xmlns:svgjs="http://svgjs.com/svgjs" fill="#161615" x="311" y="1260"><svg xmlns="http://www.w3.org/2000/svg" xmlns:xlink="http://www.w3.org/1999/xlink" width="7" height="7" viewBox="0.855 0.429 6.005 6.005"><path paint-order="stroke fill markers" fill-rule="evenodd" d="M3.858 6.434a3.002 3.002 0 1 0 0-6.004 3.002 3.002 0 0 0 0 6.004z"/></svg></svg><svg width="7" height="7" xmlns="http://www.w3.org/2000/svg" xmlns:xlink="http://www.w3.org/1999/xlink" xmlns:svgjs="http://svgjs.com/svgjs" fill="#161615" x="311" y="1271"><svg xmlns="http://www.w3.org/2000/svg" xmlns:xlink="http://www.w3.org/1999/xlink" width="7" height="7" viewBox="0.855 0.631 6.005 6.005"><path paint-order="stroke fill markers" fill-rule="evenodd" d="M3.858 6.636a3.002 3.002 0 1 0 0-6.005 3.002 3.002 0 0 0 0 6.005z"/></svg></svg><svg width="7" height="7" xmlns="http://www.w3.org/2000/svg" xmlns:xlink="http://www.w3.org/1999/xlink" xmlns:svgjs="http://svgjs.com/svgjs" fill="#161615" x="311" y="1282"><svg xmlns="http://www.w3.org/2000/svg" xmlns:xlink="http://www.w3.org/1999/xlink" width="7" height="7" viewBox="0.855 0.837 6.005 6.005"><path paint-order="stroke fill markers" fill-rule="evenodd" d="M3.858 6.842A3.003 3.003 0 1 0 3.856.835a3.003 3.003 0 0 0 .002 6.007z"/></svg></svg><svg width="7" height="7" xmlns="http://www.w3.org/2000/svg" xmlns:xlink="http://www.w3.org/1999/xlink" xmlns:svgjs="http://svgjs.com/svgjs" viewBox="0 0 6.999 7" fill="#161615" x="311" y="1294"><svg xmlns="http://www.w3.org/2000/svg" xmlns:xlink="http://www.w3.org/1999/xlink" width="7" height="7" viewBox="0.855 0.039 6.005 6.005"><path paint-order="stroke fill markers" fill-rule="evenodd" d="M3.858 6.044a3.002 3.002 0 1 0 0-6.004 3.002 3.002 0 0 0 0 6.004z"/></svg></svg><svg width="7" height="7" xmlns="http://www.w3.org/2000/svg" xmlns:xlink="http://www.w3.org/1999/xlink" xmlns:svgjs="http://svgjs.com/svgjs" viewBox="0 0 6.999 7" fill="#161615" x="311" y="1305"><svg xmlns="http://www.w3.org/2000/svg" width="7" height="7" viewBox="0.855 0.239 6.005 6.005"><path paint-order="stroke fill markers" fill-rule="evenodd" d="M3.858 6.244a3.002 3.002 0 1 0 0-6.004 3.002 3.002 0 0 0 0 6.004z"/></svg></svg></svg>