<svg width="440" height="113" xmlns="http://www.w3.org/2000/svg" xmlns:xlink="http://www.w3.org/1999/xlink" xmlns:svgjs="http://svgjs.com/svgjs" viewBox="1328 4416 440 113"><svg width="32" height="49" xmlns="http://www.w3.org/2000/svg" xmlns:xlink="http://www.w3.org/1999/xlink" xmlns:svgjs="http://svgjs.com/svgjs" viewBox="0 0.102 32 48.796" fill="#161615" x="1497" y="4445"><svg xmlns="http://www.w3.org/2000/svg" xmlns:xlink="http://www.w3.org/1999/xlink" width="32" height="49" viewBox="0.276 0.829 31.019 47.3"><path paint-order="stroke fill markers" fill-rule="evenodd" d="M14.066 3.94H.276V.829h31.02v3.11H17.44v44.19h-3.374V3.939z"/></svg></svg><svg width="33" height="49" xmlns="http://www.w3.org/2000/svg" xmlns:xlink="http://www.w3.org/1999/xlink" xmlns:svgjs="http://svgjs.com/svgjs" viewBox="0 0.284 33 48.432" fill="#161615" x="1536" y="4445"><svg xmlns="http://www.w3.org/2000/svg" xmlns:xlink="http://www.w3.org/1999/xlink" width="33" height="49" viewBox="0.673 0.827 32.23 47.303"><path paint-order="stroke fill markers" fill-rule="evenodd" d="M.673.827h3.379v21.962h25.477V.827h3.375v47.302h-3.375V25.897H4.052V48.13H.673V.827z"/></svg></svg><svg width="41" height="49" xmlns="http://www.w3.org/2000/svg" xmlns:xlink="http://www.w3.org/1999/xlink" xmlns:svgjs="http://svgjs.com/svgjs" viewBox="0 0.251 41 48.497" fill="#161615" x="1577" y="4445"><svg xmlns="http://www.w3.org/2000/svg" xmlns:xlink="http://www.w3.org/1999/xlink" width="41" height="49" viewBox="0.287 0.486 40.278 47.643"><path paint-order="stroke fill markers" fill-rule="evenodd" d="M18.74.486h3.38L40.565 48.13h-3.651l-5.001-13.244H8.738L3.733 48.13H.287L18.739.486zm11.958 31.358L20.356 4.613 9.953 31.844h20.745z"/></svg></svg><svg width="35" height="49" xmlns="http://www.w3.org/2000/svg" xmlns:xlink="http://www.w3.org/1999/xlink" xmlns:svgjs="http://svgjs.com/svgjs" viewBox="0.038 0 34.925 49" fill="#161615" x="1625" y="4445"><svg xmlns="http://www.w3.org/2000/svg" xmlns:xlink="http://www.w3.org/1999/xlink" width="35" height="49" viewBox="0.942 0.827 33.715 47.303"><path paint-order="stroke fill markers" fill-rule="evenodd" d="M.942.827h3.244l27.232 40.744V.827h3.239v47.302h-2.7L4.187 6.437V48.13H.942V.827z"/></svg></svg><svg width="52" height="76" xmlns="http://www.w3.org/2000/svg" xmlns:xlink="http://www.w3.org/1999/xlink" xmlns:svgjs="http://svgjs.com/svgjs" viewBox="0 0.008 52 75.984" fill="#161615" x="1693" y="4438"><svg xmlns="http://www.w3.org/2000/svg" xmlns:xlink="http://www.w3.org/1999/xlink" width="52" height="76" viewBox="0.795 0.736 50.981 74.495"><path paint-order="stroke fill markers" fill-rule="evenodd" d="M43.659 1.873c1.231-.643 3.651-.978 4.908-.768 1.172-.547 3.183-.436 3.12.013C52.77.245 43.848 13.592 36.51 24.215c-5.146 7.58-6.514 12.233-6.514 12.233s8.289 14.754 12.627 25.717c-.173 1.078-4.04 1.157-4.04 1.157-1.344.16-3.23 1.315-3.9 1.052-3.164-6.578-6.226-11.28-10.124-19.058L5.665 75.128c-.819.538-1.668-1.156-2.454-1.913-.633-.449-1.918-.392-2.416-1.393 1.461-9.884 19.42-34.002 19.258-34.655 0 0-2.845-7-9.486-21.025.05-1.917 2.476-2.258 3.557-3.125.698-.688 1.668-2.397 2.742-2.227 3.291 6.366 5.47 11.025 7.507 16.493C27.916 22.345 39.55 4.18 43.659 1.873z"/></svg></svg><svg width="67" height="97" xmlns="http://www.w3.org/2000/svg" xmlns:xlink="http://www.w3.org/1999/xlink" xmlns:svgjs="http://svgjs.com/svgjs" viewBox="0.299 0 66.401 97" fill="#161615" x="1656" y="4422"><svg xmlns="http://www.w3.org/2000/svg" xmlns:xlink="http://www.w3.org/1999/xlink" width="67" height="97" viewBox="0.741 0.465 65.56 95.771"><path paint-order="stroke fill markers" fill-rule="evenodd" d="M55.854 1.928c1.584-.83 4.699-1.263 6.314-.99 1.504-.702 4.089-.559 4.018.014 1.39-1.121-10.085 16.04-19.525 29.702-6.608 9.738-8.363 15.732-8.363 15.732s10.655 18.962 16.23 33.053c-.224 1.388-5.198 1.495-5.198 1.495-1.73.206-4.147 1.686-5.01 1.344-4.07-8.455-8.007-14.496-13.022-24.505L7.01 96.098c-1.053.707-2.141-1.471-3.16-2.438-.806-.583-2.463-.515-3.108-1.806C2.628 79.159 25.708 48.142 25.506 47.3c0 0-3.655-8.996-12.189-27.036.057-2.46 3.174-2.892 4.57-4.011.89-.89 2.139-3.085 3.524-2.862 4.235 8.184 7.033 14.17 9.657 21.198 4.551-6.343 19.508-29.695 24.786-32.661z"/></svg></svg><svg width="24" height="24" xmlns="http://www.w3.org/2000/svg" xmlns:xlink="http://www.w3.org/1999/xlink" xmlns:svgjs="http://svgjs.com/svgjs" viewBox="0 0.005 24 23.99" fill="#161615" x="1744" y="4444"><svg xmlns="http://www.w3.org/2000/svg" xmlns:xlink="http://www.w3.org/1999/xlink" width="24" height="24" viewBox="0.583 0.498 23.416 23.407"><path paint-order="stroke fill markers" fill-rule="evenodd" d="M12.256 23.905c-1.66 0-3.209-.304-4.646-.91-1.435-.596-2.669-1.423-3.698-2.47a11.43 11.43 0 0 1-2.444-3.655 11.25 11.25 0 0 1-.885-4.443v-.418c0-1.578.297-3.06.885-4.445a11.388 11.388 0 0 1 2.46-3.662c1.045-1.042 2.286-1.87 3.724-2.485 1.426-.613 2.988-.92 4.675-.92 1.664 0 3.209.297 4.648.9 1.429.61 2.663 1.43 3.695 2.474A11.68 11.68 0 0 1 23.11 7.53c.596 1.386.89 2.868.89 4.444v.387c0 1.574-.294 3.056-.89 4.444a11.62 11.62 0 0 1-2.453 3.675c-1.05 1.053-2.295 1.888-3.721 2.504-1.438.614-2.998.92-4.679.92zm0-.91c1.563 0 3.004-.272 4.312-.834 1.315-.561 2.442-1.325 3.38-2.3a10.604 10.604 0 0 0 2.205-3.391c.527-1.294.8-2.662.8-4.11v-.386c0-1.447-.263-2.808-.778-4.087a10.324 10.324 0 0 0-2.184-3.364c-.942-.963-2.065-1.72-3.364-2.285-1.305-.558-2.738-.842-4.3-.842-1.57 0-3.011.284-4.317.842-1.314.565-2.437 1.329-3.377 2.295a10.626 10.626 0 0 0-2.207 3.385 10.617 10.617 0 0 0-.793 4.091v.418c0 1.442.265 2.81.793 4.093a10.419 10.419 0 0 0 2.207 3.36 10.38 10.38 0 0 0 3.357 2.281c1.304.562 2.721.835 4.266.835zM7.99 5.896h4.773c1.54 0 2.73.375 3.572 1.131.316.284.565.62.76 1.017.192.403.29.85.29 1.342v.066c0 .947-.3 1.704-.887 2.265-.592.562-1.357.947-2.292 1.164l3.834 5.046H16.19L12.62 13.14H9.441v4.787h-1.45V5.894zm4.63 6.044c.907 0 1.683-.199 2.308-.597.631-.397.943-1.007.943-1.824V9.45c0-.729-.293-1.296-.87-1.697-.582-.4-1.352-.604-2.316-.604H9.441v4.789h3.178z"/></svg></svg><svg width="24" height="24" xmlns="http://www.w3.org/2000/svg" xmlns:xlink="http://www.w3.org/1999/xlink" xmlns:svgjs="http://svgjs.com/svgjs" viewBox="0 0.005 24 23.99" fill="none" x="1744" y="4444"><svg xmlns="http://www.w3.org/2000/svg" xmlns:xlink="http://www.w3.org/1999/xlink" width="24" height="24" viewBox="0.583 0.498 23.416 23.407"><path paint-order="stroke fill markers" d="M12.256 23.905c-1.66 0-3.209-.304-4.646-.91-1.435-.596-2.669-1.423-3.698-2.47a11.43 11.43 0 0 1-2.444-3.655 11.25 11.25 0 0 1-.885-4.443v-.418c0-1.578.297-3.06.885-4.445a11.388 11.388 0 0 1 2.46-3.662c1.045-1.042 2.286-1.87 3.724-2.485 1.426-.613 2.988-.92 4.675-.92 1.664 0 3.209.297 4.648.9 1.429.61 2.663 1.43 3.695 2.474A11.68 11.68 0 0 1 23.11 7.53c.596 1.386.89 2.868.89 4.444v.387c0 1.574-.294 3.056-.89 4.444a11.62 11.62 0 0 1-2.453 3.675c-1.05 1.053-2.295 1.888-3.721 2.504-1.438.614-2.998.92-4.679.92zm0-.91c1.563 0 3.004-.272 4.312-.834 1.315-.561 2.442-1.325 3.38-2.3a10.604 10.604 0 0 0 2.205-3.391c.527-1.294.8-2.662.8-4.11v-.386c0-1.447-.263-2.808-.778-4.087a10.324 10.324 0 0 0-2.184-3.364c-.942-.963-2.065-1.72-3.364-2.285-1.305-.558-2.738-.842-4.3-.842-1.57 0-3.011.284-4.317.842-1.314.565-2.437 1.329-3.377 2.295a10.626 10.626 0 0 0-2.207 3.385 10.617 10.617 0 0 0-.793 4.091v.418c0 1.442.265 2.81.793 4.093a10.419 10.419 0 0 0 2.207 3.36 10.38 10.38 0 0 0 3.357 2.281c1.304.562 2.721.835 4.266.835zM7.99 5.896h4.773c1.54 0 2.73.375 3.572 1.131.316.284.565.62.76 1.017.192.403.29.85.29 1.342v.066c0 .947-.3 1.704-.887 2.265-.592.562-1.357.947-2.292 1.164l3.834 5.046H16.19L12.62 13.14H9.441v4.787h-1.45V5.894zm4.63 6.044c.907 0 1.683-.199 2.308-.597.631-.397.943-1.007.943-1.824V9.45c0-.729-.293-1.296-.87-1.697-.582-.4-1.352-.604-2.316-.604H9.441v4.789h3.178z"/></svg></svg><svg width="18" height="49" xmlns="http://www.w3.org/2000/svg" xmlns:xlink="http://www.w3.org/1999/xlink" xmlns:svgjs="http://svgjs.com/svgjs" viewBox="0.085 0 17.831 49" fill="#161615" x="1372" y="4432"><svg xmlns="http://www.w3.org/2000/svg" xmlns:xlink="http://www.w3.org/1999/xlink" width="18" height="49" viewBox="0.12 0.885 17.149 47.126"><path paint-order="stroke fill markers" fill-rule="evenodd" d="M.12 30.122c2.6 7.142 5.005 13.75 6.51 17.889L17.27 18.769 10.759.885l-.108.293L.121 30.122z"/></svg></svg><svg width="26" height="39" xmlns="http://www.w3.org/2000/svg" xmlns:xlink="http://www.w3.org/1999/xlink" xmlns:svgjs="http://svgjs.com/svgjs" viewBox="0.467 0 25.066 39" fill="#161615" x="1400" y="4475"><svg xmlns="http://www.w3.org/2000/svg" xmlns:xlink="http://www.w3.org/1999/xlink" width="26" height="39" viewBox="0.567 0.453 24.534 38.172"><path paint-order="stroke fill markers" fill-rule="evenodd" d="M.567 38.621l21.282.004 3.251-8.941L14.463.454.567 38.62z"/></svg></svg><svg width="25" height="39" xmlns="http://www.w3.org/2000/svg" xmlns:xlink="http://www.w3.org/1999/xlink" xmlns:svgjs="http://svgjs.com/svgjs" viewBox="0 0.046 25 38.907" fill="#161615" x="1428" y="4428"><svg xmlns="http://www.w3.org/2000/svg" xmlns:xlink="http://www.w3.org/1999/xlink" width="25" height="39" viewBox="0.3 0.488 24.535 38.183"><path paint-order="stroke fill markers" fill-rule="evenodd" d="M24.834.488H3.552L.3 9.433 10.94 38.67 24.834.488z"/></svg></svg><svg width="26" height="39" xmlns="http://www.w3.org/2000/svg" xmlns:xlink="http://www.w3.org/1999/xlink" xmlns:svgjs="http://svgjs.com/svgjs" viewBox="0.469 0 25.062 39" fill="#161615" x="1328" y="4428"><svg xmlns="http://www.w3.org/2000/svg" xmlns:xlink="http://www.w3.org/1999/xlink" width="26" height="39" viewBox="0.896 0.489 24.535 38.179"><path paint-order="stroke fill markers" fill-rule="evenodd" d="M25.43 9.431L22.177.49H.896l13.896 38.179L25.43 9.43z"/></svg></svg><svg width="26" height="39" xmlns="http://www.w3.org/2000/svg" xmlns:xlink="http://www.w3.org/1999/xlink" xmlns:svgjs="http://svgjs.com/svgjs" viewBox="0.471 0 25.058 39" fill="#161615" x="1356" y="4475"><svg xmlns="http://www.w3.org/2000/svg" xmlns:xlink="http://www.w3.org/1999/xlink" width="26" height="39" viewBox="0.629 0.447 24.53 38.178"><path paint-order="stroke fill markers" fill-rule="evenodd" d="M.629 29.686l3.251 8.932 21.279.007L11.267.447.629 29.686z"/></svg></svg><svg width="54" height="86" xmlns="http://www.w3.org/2000/svg" xmlns:xlink="http://www.w3.org/1999/xlink" xmlns:svgjs="http://svgjs.com/svgjs" viewBox="0.604 0 52.793 86" fill="#161615" x="1328" y="4428"><svg xmlns="http://www.w3.org/2000/svg" xmlns:xlink="http://www.w3.org/1999/xlink" width="54" height="86" viewBox="0.896 0.488 52.263 85.137"><path paint-order="stroke fill markers" fill-rule="evenodd" d="M53.159.488H31.884l-.004.004L.896 85.622l21.28.003L53.16.488z"/></svg></svg><svg width="53" height="86" xmlns="http://www.w3.org/2000/svg" xmlns:xlink="http://www.w3.org/1999/xlink" xmlns:svgjs="http://svgjs.com/svgjs" viewBox="0.1 0 52.8 86" fill="#161615" x="1400" y="4428"><svg xmlns="http://www.w3.org/2000/svg" xmlns:xlink="http://www.w3.org/1999/xlink" width="53" height="86" viewBox="0.567 0.488 52.269 85.135"><path paint-order="stroke fill markers" fill-rule="evenodd" d="M21.854.495l-.003-.007H.567l30.98 85.13 21.289.005L21.854.495z"/></svg></svg><svg width="30" height="53" xmlns="http://www.w3.org/2000/svg" xmlns:xlink="http://www.w3.org/1999/xlink" xmlns:svgjs="http://svgjs.com/svgjs" viewBox="0 0.198 30 52.604" fill="#161615" x="1380" y="4432"><svg xmlns="http://www.w3.org/2000/svg" xmlns:xlink="http://www.w3.org/1999/xlink" width="30" height="53" viewBox="0.232 0.885 29.378 51.513"><path paint-order="stroke fill markers" fill-rule="evenodd" d="M21.34 52.313h-.005l-21.103.085L18.97.885l10.64 29.238-8.27 22.19z"/></svg></svg><svg width="7" height="6" xmlns="http://www.w3.org/2000/svg" xmlns:xlink="http://www.w3.org/1999/xlink" xmlns:svgjs="http://svgjs.com/svgjs" viewBox="0.5 0 6 6" fill="#161615" x="1473" y="4416"><svg xmlns="http://www.w3.org/2000/svg" xmlns:xlink="http://www.w3.org/1999/xlink" width="7" height="6" viewBox="0.67 0 5.703 5.704"><path paint-order="stroke fill markers" fill-rule="evenodd" d="M3.521 5.704A2.852 2.852 0 1 0 3.522 0a2.852 2.852 0 0 0 0 5.704z"/></svg></svg><svg width="7" height="7" xmlns="http://www.w3.org/2000/svg" xmlns:xlink="http://www.w3.org/1999/xlink" xmlns:svgjs="http://svgjs.com/svgjs" viewBox="0 0 6.999 7" fill="#161615" x="1473" y="4426"><svg xmlns="http://www.w3.org/2000/svg" xmlns:xlink="http://www.w3.org/1999/xlink" width="7" height="7" viewBox="0.67 0.642 5.703 5.704"><path paint-order="stroke fill markers" fill-rule="evenodd" d="M3.521 6.346A2.852 2.852 0 1 0 3.522.643a2.852 2.852 0 0 0 0 5.703z"/></svg></svg><svg width="7" height="6" xmlns="http://www.w3.org/2000/svg" xmlns:xlink="http://www.w3.org/1999/xlink" xmlns:svgjs="http://svgjs.com/svgjs" viewBox="0.5 0 6 6" fill="#161615" x="1473" y="4437"><svg xmlns="http://www.w3.org/2000/svg" xmlns:xlink="http://www.w3.org/1999/xlink" width="7" height="6" viewBox="0.67 0.282 5.703 5.704"><path paint-order="stroke fill markers" fill-rule="evenodd" d="M3.521 5.986a2.851 2.851 0 1 0 0-5.704 2.851 2.851 0 1 0 0 5.704z"/></svg></svg><svg width="7" height="7" xmlns="http://www.w3.org/2000/svg" xmlns:xlink="http://www.w3.org/1999/xlink" xmlns:svgjs="http://svgjs.com/svgjs" viewBox="0 0 6.999 7" fill="#161615" x="1473" y="4447"><svg xmlns="http://www.w3.org/2000/svg" xmlns:xlink="http://www.w3.org/1999/xlink" width="7" height="7" viewBox="0.67 0.922 5.703 5.704"><path paint-order="stroke fill markers" fill-rule="evenodd" d="M3.521 6.627A2.852 2.852 0 1 0 3.522.923a2.852 2.852 0 0 0 0 5.704z"/></svg></svg><svg width="7" height="7" xmlns="http://www.w3.org/2000/svg" xmlns:xlink="http://www.w3.org/1999/xlink" xmlns:svgjs="http://svgjs.com/svgjs" viewBox="0 0 6.999 7" fill="#161615" x="1473" y="4458"><svg xmlns="http://www.w3.org/2000/svg" xmlns:xlink="http://www.w3.org/1999/xlink" width="7" height="7" viewBox="0.67 0.563 5.703 5.704"><path paint-order="stroke fill markers" fill-rule="evenodd" d="M3.521 6.267A2.852 2.852 0 1 0 3.522.564a2.852 2.852 0 0 0 0 5.703z"/></svg></svg><svg width="7" height="6" xmlns="http://www.w3.org/2000/svg" xmlns:xlink="http://www.w3.org/1999/xlink" xmlns:svgjs="http://svgjs.com/svgjs" viewBox="0.5 0 5.999 6" fill="#161615" x="1473" y="4469"><svg xmlns="http://www.w3.org/2000/svg" xmlns:xlink="http://www.w3.org/1999/xlink" width="7" height="6" viewBox="0.67 0.205 5.703 5.704"><path paint-order="stroke fill markers" fill-rule="evenodd" d="M3.521 5.91A2.852 2.852 0 1 0 3.522.205a2.852 2.852 0 0 0 0 5.703z"/></svg></svg><svg width="7" height="7" xmlns="http://www.w3.org/2000/svg" xmlns:xlink="http://www.w3.org/1999/xlink" xmlns:svgjs="http://svgjs.com/svgjs" viewBox="0 0 6.999 7" fill="#161615" x="1473" y="4479"><svg xmlns="http://www.w3.org/2000/svg" xmlns:xlink="http://www.w3.org/1999/xlink" width="7" height="7" viewBox="0.67 0.845 5.703 5.704"><path paint-order="stroke fill markers" fill-rule="evenodd" d="M3.521 6.55A2.852 2.852 0 1 0 3.522.845a2.852 2.852 0 0 0 0 5.703z"/></svg></svg><svg width="7" height="7" xmlns="http://www.w3.org/2000/svg" xmlns:xlink="http://www.w3.org/1999/xlink" xmlns:svgjs="http://svgjs.com/svgjs" viewBox="0 0 6.999 7" fill="#161615" x="1473" y="4490"><svg xmlns="http://www.w3.org/2000/svg" xmlns:xlink="http://www.w3.org/1999/xlink" width="7" height="7" viewBox="0.67 0.485 5.703 5.704"><path paint-order="stroke fill markers" fill-rule="evenodd" d="M3.521 6.19A2.852 2.852 0 1 0 3.522.485a2.852 2.852 0 0 0 0 5.703z"/></svg></svg><svg width="7" height="6" xmlns="http://www.w3.org/2000/svg" xmlns:xlink="http://www.w3.org/1999/xlink" xmlns:svgjs="http://svgjs.com/svgjs" viewBox="0.5 0 6 6" fill="#161615" x="1473" y="4501"><svg xmlns="http://www.w3.org/2000/svg" xmlns:xlink="http://www.w3.org/1999/xlink" width="7" height="6" viewBox="0.67 0.129 5.703 5.704"><path paint-order="stroke fill markers" fill-rule="evenodd" d="M3.521 5.833a2.853 2.853 0 1 0 0-5.705 2.853 2.853 0 0 0 0 5.705z"/></svg></svg><svg width="7" height="7" xmlns="http://www.w3.org/2000/svg" xmlns:xlink="http://www.w3.org/1999/xlink" xmlns:svgjs="http://svgjs.com/svgjs" viewBox="0 0 6.999 7" fill="#161615" x="1473" y="4511"><svg xmlns="http://www.w3.org/2000/svg" xmlns:xlink="http://www.w3.org/1999/xlink" width="7" height="7" viewBox="0.67 0.77 5.703 5.704"><path paint-order="stroke fill markers" fill-rule="evenodd" d="M3.521 6.474A2.852 2.852 0 1 0 3.522.77a2.852 2.852 0 0 0 0 5.703z"/></svg></svg><svg width="7" height="7" xmlns="http://www.w3.org/2000/svg" xmlns:xlink="http://www.w3.org/1999/xlink" xmlns:svgjs="http://svgjs.com/svgjs" fill="#161615" x="1473" y="4522"><svg xmlns="http://www.w3.org/2000/svg" width="7" height="7" viewBox="0.67 0.408 5.703 5.704"><path paint-order="stroke fill markers" fill-rule="evenodd" d="M3.521 6.112a2.851 2.851 0 1 0 0-5.704 2.851 2.851 0 1 0 0 5.704z"/></svg></svg></svg>