<svg width="459" height="98" xmlns="http://www.w3.org/2000/svg" xmlns:xlink="http://www.w3.org/1999/xlink" xmlns:svgjs="http://svgjs.com/svgjs" viewBox="160 3399 459 98"><svg width="16" height="41" xmlns="http://www.w3.org/2000/svg" xmlns:xlink="http://www.w3.org/1999/xlink" xmlns:svgjs="http://svgjs.com/svgjs" viewBox="0.54 0 14.919 41" fill="#161615" x="197" y="3414"><svg xmlns="http://www.w3.org/2000/svg" xmlns:xlink="http://www.w3.org/1999/xlink" width="16" height="41" viewBox="0.398 0.141 14.837 40.774"><path paint-order="stroke fill markers" fill-rule="evenodd" d="M.398 25.437l5.633 15.478 9.205-25.3L9.602.14 9.51.394.398 25.437z"/></svg></svg><svg width="22" height="34" xmlns="http://www.w3.org/2000/svg" xmlns:xlink="http://www.w3.org/1999/xlink" xmlns:svgjs="http://svgjs.com/svgjs" viewBox="0.074 0 21.851 34" fill="#161615" x="222" y="3450"><svg xmlns="http://www.w3.org/2000/svg" xmlns:xlink="http://www.w3.org/1999/xlink" width="22" height="34" viewBox="0.011 0.969 21.227 33.029"><path paint-order="stroke fill markers" fill-rule="evenodd" d="M.011 33.995l18.414.003 2.813-7.736L12.034.97.01 33.995z"/></svg></svg><svg width="22" height="34" xmlns="http://www.w3.org/2000/svg" xmlns:xlink="http://www.w3.org/1999/xlink" xmlns:svgjs="http://svgjs.com/svgjs" viewBox="0.076 0 21.847 34" fill="#161615" x="246" y="3410"><svg xmlns="http://www.w3.org/2000/svg" xmlns:xlink="http://www.w3.org/1999/xlink" width="22" height="34" viewBox="0.006 0.337 21.227 33.035"><path paint-order="stroke fill markers" fill-rule="evenodd" d="M21.233.337H2.819L.006 8.074l9.207 25.298L21.233.337z"/></svg></svg><svg width="22" height="34" xmlns="http://www.w3.org/2000/svg" xmlns:xlink="http://www.w3.org/1999/xlink" xmlns:svgjs="http://svgjs.com/svgjs" viewBox="0.076 0 21.848 34" fill="#161615" x="160" y="3410"><svg xmlns="http://www.w3.org/2000/svg" xmlns:xlink="http://www.w3.org/1999/xlink" width="22" height="34" viewBox="0 0.337 21.227 33.033"><path paint-order="stroke fill markers" fill-rule="evenodd" d="M21.227 8.074L18.413.337H0L12.023 33.37l9.204-25.296z"/></svg></svg><svg width="23" height="34" xmlns="http://www.w3.org/2000/svg" xmlns:xlink="http://www.w3.org/1999/xlink" xmlns:svgjs="http://svgjs.com/svgjs" viewBox="0.577 0 21.846 34" fill="#161615" x="183" y="3450"><svg xmlns="http://www.w3.org/2000/svg" xmlns:xlink="http://www.w3.org/1999/xlink" width="23" height="34" viewBox="0.995 0.966 21.224 33.031"><path paint-order="stroke fill markers" fill-rule="evenodd" d="M.995 26.264l2.812 7.728 18.411.006L10.198.966.996 26.264z"/></svg></svg><svg width="46" height="74" xmlns="http://www.w3.org/2000/svg" xmlns:xlink="http://www.w3.org/1999/xlink" xmlns:svgjs="http://svgjs.com/svgjs" viewBox="0.287 0 45.427 74" fill="#161615" x="160" y="3410"><svg xmlns="http://www.w3.org/2000/svg" xmlns:xlink="http://www.w3.org/1999/xlink" width="46" height="74" viewBox="0 0.337 45.218 73.661"><path paint-order="stroke fill markers" fill-rule="evenodd" d="M45.218.337H26.811l-.004.003L0 73.994l18.413.003L45.218.337z"/></svg></svg><svg width="46" height="74" xmlns="http://www.w3.org/2000/svg" xmlns:xlink="http://www.w3.org/1999/xlink" xmlns:svgjs="http://svgjs.com/svgjs" viewBox="0.283 0 45.434 74" fill="#161615" x="222" y="3410"><svg xmlns="http://www.w3.org/2000/svg" xmlns:xlink="http://www.w3.org/1999/xlink" width="46" height="74" viewBox="0.01 0.337 45.225 73.659"><path paint-order="stroke fill markers" fill-rule="evenodd" d="M18.429.343l-.003-.006H.01L26.815 73.99l18.42.005L18.43.343z"/></svg></svg><svg width="26" height="45" xmlns="http://www.w3.org/2000/svg" xmlns:xlink="http://www.w3.org/1999/xlink" xmlns:svgjs="http://svgjs.com/svgjs" viewBox="0.174 0 25.652 45" fill="#161615" x="204" y="3414"><svg xmlns="http://www.w3.org/2000/svg" xmlns:xlink="http://www.w3.org/1999/xlink" width="26" height="45" viewBox="0.416 0.14 25.419 44.591"><path paint-order="stroke fill markers" fill-rule="evenodd" d="M18.645 44.731h-.004L.416 44.712 16.628.14l9.206 25.297-7.19 19.294z"/></svg></svg><svg width="6" height="6" xmlns="http://www.w3.org/2000/svg" xmlns:xlink="http://www.w3.org/1999/xlink" xmlns:svgjs="http://svgjs.com/svgjs" fill="#161615" x="284" y="3399"><svg xmlns="http://www.w3.org/2000/svg" xmlns:xlink="http://www.w3.org/1999/xlink" width="6" height="6" viewBox="0.799 0.11 4.935 4.935"><path paint-order="stroke fill markers" fill-rule="evenodd" d="M3.266 5.046A2.468 2.468 0 1 0 3.267.11a2.468 2.468 0 0 0 0 4.936z"/></svg></svg><svg width="6" height="6" xmlns="http://www.w3.org/2000/svg" xmlns:xlink="http://www.w3.org/1999/xlink" xmlns:svgjs="http://svgjs.com/svgjs" fill="#161615" x="284" y="3408"><svg xmlns="http://www.w3.org/2000/svg" xmlns:xlink="http://www.w3.org/1999/xlink" width="6" height="6" viewBox="0.799 0.319 4.935 4.935"><path paint-order="stroke fill markers" fill-rule="evenodd" d="M3.266 5.253A2.467 2.467 0 1 0 3.268.32a2.467 2.467 0 0 0-.002 4.934z"/></svg></svg><svg width="6" height="6" xmlns="http://www.w3.org/2000/svg" xmlns:xlink="http://www.w3.org/1999/xlink" xmlns:svgjs="http://svgjs.com/svgjs" fill="#161615" x="284" y="3417"><svg xmlns="http://www.w3.org/2000/svg" xmlns:xlink="http://www.w3.org/1999/xlink" width="6" height="6" viewBox="0.799 0.525 4.935 4.935"><path paint-order="stroke fill markers" fill-rule="evenodd" d="M3.266 5.46a2.467 2.467 0 1 0 0-4.935 2.467 2.467 0 0 0 0 4.935z"/></svg></svg><svg width="6" height="6" xmlns="http://www.w3.org/2000/svg" xmlns:xlink="http://www.w3.org/1999/xlink" xmlns:svgjs="http://svgjs.com/svgjs" fill="#161615" x="284" y="3426"><svg xmlns="http://www.w3.org/2000/svg" xmlns:xlink="http://www.w3.org/1999/xlink" width="6" height="6" viewBox="0.799 0.731 4.935 4.935"><path paint-order="stroke fill markers" fill-rule="evenodd" d="M3.266 5.666a2.468 2.468 0 1 0 0-4.935 2.468 2.468 0 0 0 0 4.935z"/></svg></svg><svg width="6" height="6" xmlns="http://www.w3.org/2000/svg" xmlns:xlink="http://www.w3.org/1999/xlink" xmlns:svgjs="http://svgjs.com/svgjs" fill="#161615" x="284" y="3435"><svg xmlns="http://www.w3.org/2000/svg" xmlns:xlink="http://www.w3.org/1999/xlink" width="6" height="6" viewBox="0.799 0.937 4.935 4.935"><path paint-order="stroke fill markers" fill-rule="evenodd" d="M3.266 5.872A2.468 2.468 0 1 0 3.267.937a2.468 2.468 0 0 0 0 4.935z"/></svg></svg><svg width="6" height="6" xmlns="http://www.w3.org/2000/svg" xmlns:xlink="http://www.w3.org/1999/xlink" xmlns:svgjs="http://svgjs.com/svgjs" fill="#161615" x="284" y="3445"><svg xmlns="http://www.w3.org/2000/svg" xmlns:xlink="http://www.w3.org/1999/xlink" width="6" height="6" viewBox="0.799 0.145 4.935 4.935"><path paint-order="stroke fill markers" fill-rule="evenodd" d="M3.266 5.08A2.468 2.468 0 1 0 3.267.145a2.468 2.468 0 0 0 0 4.935z"/></svg></svg><svg width="6" height="6" xmlns="http://www.w3.org/2000/svg" xmlns:xlink="http://www.w3.org/1999/xlink" xmlns:svgjs="http://svgjs.com/svgjs" fill="#161615" x="284" y="3454"><svg xmlns="http://www.w3.org/2000/svg" xmlns:xlink="http://www.w3.org/1999/xlink" width="6" height="6" viewBox="0.799 0.351 4.935 4.935"><path paint-order="stroke fill markers" fill-rule="evenodd" d="M3.266 5.287a2.468 2.468 0 1 0 0-4.936 2.468 2.468 0 0 0 0 4.936z"/></svg></svg><svg width="6" height="6" xmlns="http://www.w3.org/2000/svg" xmlns:xlink="http://www.w3.org/1999/xlink" xmlns:svgjs="http://svgjs.com/svgjs" fill="#161615" x="284" y="3463"><svg xmlns="http://www.w3.org/2000/svg" xmlns:xlink="http://www.w3.org/1999/xlink" width="6" height="6" viewBox="0.799 0.557 4.935 4.935"><path paint-order="stroke fill markers" fill-rule="evenodd" d="M3.266 5.493a2.468 2.468 0 1 0 0-4.936 2.468 2.468 0 0 0 0 4.936z"/></svg></svg><svg width="6" height="6" xmlns="http://www.w3.org/2000/svg" xmlns:xlink="http://www.w3.org/1999/xlink" xmlns:svgjs="http://svgjs.com/svgjs" viewBox="0.001 0 5.998 6" fill="#161615" x="284" y="3472"><svg xmlns="http://www.w3.org/2000/svg" xmlns:xlink="http://www.w3.org/1999/xlink" width="6" height="6" viewBox="0.799 0.765 4.935 4.937"><path paint-order="stroke fill markers" fill-rule="evenodd" d="M3.266 5.702A2.469 2.469 0 1 0 3.265.765a2.469 2.469 0 0 0 .001 4.937z"/></svg></svg><svg width="6" height="6" xmlns="http://www.w3.org/2000/svg" xmlns:xlink="http://www.w3.org/1999/xlink" xmlns:svgjs="http://svgjs.com/svgjs" fill="#161615" x="284" y="3481"><svg xmlns="http://www.w3.org/2000/svg" xmlns:xlink="http://www.w3.org/1999/xlink" width="6" height="6" viewBox="0.799 0.973 4.935 4.935"><path paint-order="stroke fill markers" fill-rule="evenodd" d="M3.266 5.908A2.468 2.468 0 1 0 3.267.973a2.468 2.468 0 0 0 0 4.935z"/></svg></svg><svg width="6" height="6" xmlns="http://www.w3.org/2000/svg" xmlns:xlink="http://www.w3.org/1999/xlink" xmlns:svgjs="http://svgjs.com/svgjs" fill="#161615" x="284" y="3491"><svg xmlns="http://www.w3.org/2000/svg" xmlns:xlink="http://www.w3.org/1999/xlink" width="6" height="6" viewBox="0.799 0.178 4.935 4.935"><path paint-order="stroke fill markers" fill-rule="evenodd" d="M3.266 5.113A2.467 2.467 0 1 0 3.268.178a2.467 2.467 0 0 0-.002 4.935z"/></svg></svg><svg width="22" height="22" xmlns="http://www.w3.org/2000/svg" xmlns:xlink="http://www.w3.org/1999/xlink" xmlns:svgjs="http://svgjs.com/svgjs" viewBox="0 0.001 22 21.999" fill="#161615" x="597" y="3424"><svg xmlns="http://www.w3.org/2000/svg" xmlns:xlink="http://www.w3.org/1999/xlink" width="22" height="22" viewBox="0.843 0.95 20.259 20.258"><path paint-order="stroke fill markers" fill-rule="evenodd" d="M10.941 21.207c-1.437 0-2.776-.264-4.019-.79a9.614 9.614 0 0 1-3.198-2.138 9.82 9.82 0 0 1-2.115-3.164c-.514-1.198-.766-2.48-.766-3.842v-.365c0-1.36.252-2.643.766-3.844a9.84 9.84 0 0 1 2.127-3.165 10.198 10.198 0 0 1 3.221-2.154C8.192 1.216 9.544.95 11.004.95c1.438 0 2.776.256 4.022.78a9.935 9.935 0 0 1 3.197 2.137c.894.911 1.6 1.967 2.11 3.168a9.654 9.654 0 0 1 .769 3.846v.333a9.67 9.67 0 0 1-.77 3.847 10 10 0 0 1-2.124 3.18c-.906.913-1.984 1.633-3.22 2.166-1.243.534-2.591.8-4.047.8zm0-.79c1.353 0 2.6-.236 3.731-.722a8.775 8.775 0 0 0 2.926-1.99 9.237 9.237 0 0 0 1.908-2.932c.455-1.12.69-2.304.69-3.56v-.332c0-1.25-.225-2.431-.671-3.538a8.918 8.918 0 0 0-1.892-2.91c-.815-.832-1.786-1.487-2.91-1.976-1.127-.48-2.368-.727-3.72-.727-1.358 0-2.604.247-3.734.727a8.924 8.924 0 0 0-2.921 1.986 9.236 9.236 0 0 0-2.598 6.465v.365c0 1.247.23 2.43.686 3.538a8.947 8.947 0 0 0 4.816 4.884c1.127.486 2.352.722 3.69.722zM7.251 5.62h4.13c1.333 0 2.36.328 3.09.981.273.244.49.533.657.88.167.348.251.734.251 1.162V8.7c0 .818-.261 1.473-.767 1.96-.512.482-1.173.818-1.982 1.006l3.315 4.365h-1.6l-3.09-4.138h-2.75v4.138H7.253V5.62zm4.004 5.233c.787 0 1.46-.177 1.998-.52.545-.345.816-.87.816-1.58V8.7c0-.633-.253-1.122-.751-1.471-.504-.344-1.173-.52-2.006-.52H8.506v4.146h2.75z"/></svg></svg><svg width="22" height="22" xmlns="http://www.w3.org/2000/svg" xmlns:xlink="http://www.w3.org/1999/xlink" xmlns:svgjs="http://svgjs.com/svgjs" viewBox="0 0.001 22 21.999" fill="none" x="597" y="3424"><svg xmlns="http://www.w3.org/2000/svg" xmlns:xlink="http://www.w3.org/1999/xlink" width="22" height="22" viewBox="0.843 0.95 20.259 20.258"><path paint-order="stroke fill markers" d="M10.941 21.207c-1.437 0-2.776-.264-4.019-.79a9.614 9.614 0 0 1-3.198-2.138 9.82 9.82 0 0 1-2.115-3.164c-.514-1.198-.766-2.48-.766-3.842v-.365c0-1.36.252-2.643.766-3.844a9.84 9.84 0 0 1 2.127-3.165 10.198 10.198 0 0 1 3.221-2.154C8.192 1.216 9.544.95 11.004.95c1.438 0 2.776.256 4.022.78a9.935 9.935 0 0 1 3.197 2.137c.894.911 1.6 1.967 2.11 3.168a9.654 9.654 0 0 1 .769 3.846v.333a9.67 9.67 0 0 1-.77 3.847 10 10 0 0 1-2.124 3.18c-.906.913-1.984 1.633-3.22 2.166-1.243.534-2.591.8-4.047.8zm0-.79c1.353 0 2.6-.236 3.731-.722a8.775 8.775 0 0 0 2.926-1.99 9.237 9.237 0 0 0 1.908-2.932c.455-1.12.69-2.304.69-3.56v-.332c0-1.25-.225-2.431-.671-3.538a8.918 8.918 0 0 0-1.892-2.91c-.815-.832-1.786-1.487-2.91-1.976-1.127-.48-2.368-.727-3.72-.727-1.358 0-2.604.247-3.734.727a8.924 8.924 0 0 0-2.921 1.986 9.236 9.236 0 0 0-2.598 6.465v.365c0 1.247.23 2.43.686 3.538a8.947 8.947 0 0 0 4.816 4.884c1.127.486 2.352.722 3.69.722zM7.251 5.62h4.13c1.333 0 2.36.328 3.09.981.273.244.49.533.657.88.167.348.251.734.251 1.162V8.7c0 .818-.261 1.473-.767 1.96-.512.482-1.173.818-1.982 1.006l3.315 4.365h-1.6l-3.09-4.138h-2.75v4.138H7.253V5.62zm4.004 5.233c.787 0 1.46-.177 1.998-.52.545-.345.816-.87.816-1.58V8.7c0-.633-.253-1.122-.751-1.471-.504-.344-1.173-.52-2.006-.52H8.506v4.146h2.75z"/></svg></svg><svg width="292" height="69" xmlns="http://www.w3.org/2000/svg" xmlns:xlink="http://www.w3.org/1999/xlink" xmlns:svgjs="http://svgjs.com/svgjs" viewBox="0 0.502 292 67.997" fill="#161615" x="304" y="3413"><svg xmlns="http://www.w3.org/2000/svg" width="292" height="69" viewBox="0.648 0.789 290.638 67.68"><path paint-order="stroke fill markers" fill-rule="evenodd" d="M219.727 66.512c1.169-5.073 3.6-6.82 4.049-8.748 3.81-5.72 7.127-11.908 13.397-15.318.377-.448.504-.853 0-1.154-1.135-1.784-2.58-3.14-4.447-3.9-.033-.036-6.182-1.889-7.301-1.207-2.308 1.037-3.206.389-2.58-2.086.647-1.08 1.355-2.161 2.742-3.241 1.963-1.418 4.297-.49 6.699.88 3.648 2.038 6.711 4.365 8.895 7.136 1.853-1.961 4.443-3.985 8.347-6.093 2.015-.755 2.963-2.594 3.735-2.086 2.382.817 2.851 2.309 2.743 4.007-.053.843-.11 1.685-.162 2.525.015.295.037.587.052.88.289.588-.356 5.563-.494 5.82-.813.93-1.583 1.083-2.25-.33-.487-4.454-.197-3.104-.44-7.358-.41-.911-1.018-1.228-1.867-.824-2.845 1.023-5.19 2.605-6.863 4.944-.419.218-.48.583-.166 1.096 3.384 4.944 6.7 8.147 9.94 9.28.978.88.726 1.353-.054 1.646-.568-.111-1.137-.178-1.704 0-5.085-.896-7.38-3.933-9.664-8.565-.603-.939-1.208-1.181-1.812-.219-1.752 1.549-6.58 5.25-7.466 6.645-.496.53-.99 1.06-1.484 1.593-.88.701-1.682 1.805-2.416 3.239-2.129 2.432-3.838 5.074-5.38 7.796-.567.715-.869 1.326-1.437 2.04-.437.641-.818 1.383-.376 2.024.49.609.425 1.056-.108 1.373-.77.244-1.538.327-2.307-.604-.29-.35-.1-.786.179-1.191zM187.78 54.854c3.605-14.27 8.841-24.72 16.694-29.083 1.463-.331 2.172.196 2.537 1.123.706 1.417.53 2.831-.178 4.248-.598.866-1.31.941-2.065.705-1.67-.416-2.238-.836-2.254-.833-5.756 4.832-8.255 11.63-10.075 18.827-.076.763.18.971.826.53a82801.99 82801.99 0 0 0 15.397-17.108c.933-.742 1.728-.667 2.3.638.474 1.545.116 4.52-.228 8.025-.286 2.936.895 7.972 5.065 6.734 2.672-1.18 7.82-5.862 13.39-11.15.101.296.198.591.295.888-2.013 3.425-4.857 7.216-15.099 14.274-1.457.38-2.912.627-4.365.767-1.005-.046-1.966-.164-2.362-1.298-.03-.35-1.131-3.865-1.46-6.21.025-1.605-.614-2.526-1.312-3.404-.303-.52-.696-.625-1.24-.06-2.249 2.017-4.449 4.061-6.435 6.763-2.068 2.81-4.984 4.923-7.662 6.804-1.113.365-1.984.386-1.769-1.18zM131.86 38.162c2.476-2.146 4.956-4.288 7.431-6.433 1.34-1.026 2.44-.935 3.303.24-.707 5.012-1.413 10.026-2.123 15.04-.17 1.26.345 1.155 1.12.531 5.076-5.904 10.284-11.48 15.99-15.81 1.498-1.18 2.293-.764 2.533.886-.747 4.776-1.492 9.554-2.241 14.333.115 1.394.476 1.319 1.062-.118 4.561-3.933 9.124-7.863 13.684-11.797 1.37-.82 2.055-.38 2.48.53 1.06 2.405 1.433 5.037 1.073 7.911-.23 1.849.506 3.694.753 5.539.272.914.772.796 1.358.294l7.787-4.01c1.184-.347 1.088.166 1.002.766-.285 2.245-5.2 5.207-12.565 8.554-.806.38-1.612.486-2.418-.236-.519-.567-.956-1.164-1.001-1.889-.356-2.928-.71-5.86-1.063-8.789-.375-1.47-1.437-1.652-3.067-.765-3.823 4.058-7.975 7.897-12.742 11.325-.982 1.112-1.71 1.15-2.065-.412.108-4.517.816-8.913 1.71-13.272-.12-1.244-.741-1.295-1.651-.65-4.008 4.872-8.198 9.62-13.154 13.862-2.073.887-3.336.65-3.363-1.299.106-.61-.145-1.334.011-1.934 1.028-3.954 1.354-7.63 1.112-10.511.044-2.453-1.525-3.05-2.716-1.886-.212.748-.672 1.332-1.356 1.768-.86.252-1.262-.035-1.18-.884.098-.295.196-.59.296-.884zm-30.988 4.28c.39-.535.636-1.183 1.152-1.464 1.737-.948 3.269-2.05 5.386-4.175.849-.85 2.273-1.204 3.734-1.927 1.02-.128 1.018.428.6 1.261-2.024 2.976-2.142 6.323-.72 9.97 1.668 3.265 3.678 2.704 5.826.6 3.497-2.45 4.252-5.576 2.285-9.369-1.153-1.474-2.962-1.301-4.67-2.297-.716-.416-1.28-.718-.077-1.187 2.884-1.08 5.387-1.128 7.149.84 1 .67 1.926.79 2.762.182 2.38-.155 4.687-.088 6.908.24 1.28.378 1.106.981.302 1.679-2.57.459-5.167.722-7.57 2.343-.1.18-.199.362-.3.542-.928 6.2-4.7 8.231-8.05 11.473l-4.685 3.242c-1.384.725-2.46.317-3.363-.718-1.96-3.798-2.6-7.476-1.741-11.114.21-.616.192-.943-.362-.602-1.568.31-2.977 1.268-4.386 2.223-.94-.045-.883-.905-.18-1.742zm-31.174-9.31c.358-.988 1.36-.624 1.621.179l.06 13.877c.354.94.807.983 1.323.481l13.754-9.552c.722-.398 1.202-.239 1.443.483 1.31 2.23 2.177 4.911 3.002 7.628.386.675 1.117.425 1.982-.182 2.655-1.012 4.859-2.328 7.03-3.664.55-.245.688.125.6.843.07 1.387-.693 2.295-2.224 2.882-1.664.664-2.647 1.27-4.428 3.077-.688.701-1.774 1.075-2.72 1.311-1.578.392-2.562.942-4.024 1.92-.685.675-1.279.443-1.8-.483a2890.78 2890.78 0 0 1-1.081-5.886c-.182-.74-.782-1.12-1.623-.959-6.221 2.737-10.346 5.996-15.8 9.908-.737.385-1.283.338-1.38-.718-.098-4.895.279-9.844 1.622-14.898l2.643-6.247zM53.995 14.503a4.297 4.297 0 1 1 0 8.595 4.297 4.297 0 0 1 0-8.595zM44.172 33.46c3.346-2.186 6.834-3.728 10.59-4.069 1.507-.054 2.254.568 1.919 2.15-.54 8.416-1.244 16.758-3.224 24.555-.112 1.464-2.217 1.581-2.226.307-.336-2.864.156-6.804 1.075-9.209.486-4.528.82-7.057 1.305-11.588-.129-1.593-.717-2.675-2.071-2.837-2.76-.827-5.647 3.096-6.986 3.22-1.124-.235-2.173-1.473-.382-2.529zM.674 65.683c4.129-4.406 10.025-6.54 16.618-7.78-9.12-4.86-14.05-19.06-15.431-41.153 1.142-.749 2.286-1.495 3.428-2.243 2.794 17.18 4.739 36.148 14.774 38.12l2.772-.263c14.468-14.127 14.633-41.45 5.539-49.729L32.726.79c9.018 14.973 6.677 37.15-7.519 55.663 4.892-1.433 9.573-1.602 14.114-.923 2.13.526.77 1.963-1.298 2.189-13.59 2.159-24.762 4.537-33.05 8.346-.97.448-4.673 2.793-4.299-.38zm254.318.829c1.169-5.073 3.6-6.82 4.05-8.748 3.811-5.72 7.125-11.908 13.397-15.318.376-.448.502-.853 0-1.154-1.135-1.784-2.58-3.14-4.449-3.9-.031-.036-6.182-1.889-7.302-1.207-2.305 1.037-3.203.389-2.58-2.086.65-1.08 1.359-2.161 2.745-3.241 1.964-1.418 4.296-.49 6.7.88 3.646 2.038 6.71 4.365 8.894 7.136 1.854-1.961 4.443-3.985 8.346-6.093 2.015-.755 2.961-2.594 3.734-2.086 2.383.817 2.853 2.309 2.745 4.007l-.164 2.525.054.88c.288.588-.359 5.563-.494 5.82-.816.93-1.581 1.083-2.25-.33-.486-4.454-.195-3.104-.44-7.358-.41-.911-1.017-1.228-1.868-.824-2.845 1.023-5.19 2.605-6.861 4.944-.42.218-.48.583-.166 1.096 3.384 4.944 6.7 8.147 9.94 9.28.974.88.724 1.353-.055 1.646-.57-.111-1.137-.178-1.704 0-5.085-.896-7.38-3.933-9.664-8.565-.605-.939-1.207-1.181-1.813-.219-1.75 1.549-6.577 5.25-7.464 6.645-.496.53-.992 1.06-1.486 1.593-.88.701-1.68 1.805-2.414 3.239-2.13 2.432-3.84 5.074-5.382 7.796-.567.715-.87 1.326-1.437 2.04-.437.641-.817 1.383-.376 2.024.491.609.427 1.056-.11 1.373-.767.244-1.537.327-2.304-.604-.292-.35-.1-.786.178-1.191z"/></svg></svg></svg>