<svg width="22" height="24" xmlns="http://www.w3.org/2000/svg" xmlns:xlink="http://www.w3.org/1999/xlink" xmlns:svgjs="http://svgjs.com/svgjs" viewBox="1603 24 22 24"><svg width="12" height="12" xmlns="http://www.w3.org/2000/svg" xmlns:xlink="http://www.w3.org/1999/xlink" xmlns:svgjs="http://svgjs.com/svgjs" x="1608" y="24"><svg xmlns="http://www.w3.org/2000/svg" xmlns:xlink="http://www.w3.org/1999/xlink" width="12" height="12" viewBox="0.243 0 11.541 11.541"><path paint-order="stroke fill markers" fill-rule="evenodd" d="M6.013 11.54a5.765 5.765 0 0 1-5.77-5.77C.243 2.58 2.823 0 6.013 0a5.766 5.766 0 0 1 5.77 5.77c0 3.192-2.579 5.77-5.77 5.77z"/></svg></svg><svg width="22" height="12" xmlns="http://www.w3.org/2000/svg" xmlns:xlink="http://www.w3.org/1999/xlink" xmlns:svgjs="http://svgjs.com/svgjs" viewBox="0 0.026 22 11.949" x="1603" y="36"><svg xmlns="http://www.w3.org/2000/svg" width="22" height="12" viewBox="0.895 0.114 20.394 11.076"><path paint-order="stroke fill markers" fill-rule="evenodd" d="M21.288 11.19V5.736c0-3.093-2.53-5.622-5.622-5.622H6.672c-.833 0-1.62.187-2.33.518C2.323 1.485.896 3.49.896 5.813v5.377h20.393z"/></svg></svg></svg>