<svg width="127" height="75" xmlns="http://www.w3.org/2000/svg" xmlns:xlink="http://www.w3.org/1999/xlink" xmlns:svgjs="http://svgjs.com/svgjs" viewBox="350 4171 127 75"><svg width="127" height="75" xmlns="http://www.w3.org/2000/svg" xmlns:xlink="http://www.w3.org/1999/xlink" xmlns:svgjs="http://svgjs.com/svgjs" viewBox="350 4171 127 75" x="350" y="4171"><svg width="127" height="75" xmlns="http://www.w3.org/2000/svg" xmlns:xlink="http://www.w3.org/1999/xlink" xmlns:svgjs="http://svgjs.com/svgjs" viewBox="0 0.023 127 74.954" fill="#172972" x="350" y="4171"><svg xmlns="http://www.w3.org/2000/svg" xmlns:xlink="http://www.w3.org/1999/xlink" width="127" height="75" viewBox="0.728 0.494 125.912 74.312"><path paint-order="stroke fill markers" fill-rule="evenodd" d="M89.484 74.806l-.004-.005-.004.003-51.597-.003C17.36 74.799.729 58.168.729 37.65.728 17.132 17.36.5 37.878.499l51.594.006.011-.011L126.64 37.65 89.484 74.806z"/></svg></svg></svg><svg width="48" height="48" xmlns="http://www.w3.org/2000/svg" xmlns:xlink="http://www.w3.org/1999/xlink" xmlns:svgjs="http://svgjs.com/svgjs" fill="#fff" x="375" y="4184"><svg xmlns="http://www.w3.org/2000/svg" width="48" height="48" viewBox="0 0.672 47.226 47.226"><path paint-order="stroke fill markers" fill-rule="evenodd" d="M13.835.672c.797.15 1.607.252 2.39.456 4.619 1.203 7.984 5.23 8.42 9.975.179 1.95-.046 3.83-.743 5.652-.122.315-.058.484.177.702 6.931 6.421 13.852 12.854 20.785 19.273 1.02.945 1.92 1.947 2.223 3.357.038.176.092.35.139.525v1.475c-.022.04-.058.077-.065.119-.427 2.461-2.078 3.97-4.095 5.15-.512.299-1.159.368-1.743.542h-1.2c-1.865-.27-3.154-1.417-4.38-2.746-6.287-6.823-12.609-13.615-18.908-20.428-.263-.285-.462-.311-.811-.177-5.844 2.243-12.2-.186-14.86-5.666a11.625 11.625 0 0 1-1.078-3.788c-.016-.135-.057-.267-.086-.4V12.57c.03-.13.074-.26.09-.393.161-1.242.492-2.436 1.029-3.566.484-1.017 1.64-1.228 2.447-.47.178.168.349.345.523.519l6.152 6.146 3.94-3.934c-.065-.05-.173-.116-.259-.203-2.104-2.11-4.209-4.218-6.306-6.334-.958-.968-.735-2.117.529-2.64.635-.263 1.294-.48 1.958-.656.618-.165 1.258-.248 1.887-.368h1.845zM3.27 12.191c-.93 5.697 3.265 10.376 8.932 10.084 1.375-.07 2.648-.48 3.873-1.085.84-.414 1.47-.289 2.117.39.128.133.252.27.377.405l16.679 18.113c1.186 1.289 2.367 2.584 3.566 3.86.855.912 2.195 1.17 3.089.488.711-.543 1.3-1.25 1.916-1.91.148-.158.222-.405.276-.624.26-1.064-.175-1.875-.937-2.58-4.793-4.439-9.58-8.882-14.37-13.324-2.592-2.403-5.185-4.806-7.775-7.212-.73-.679-.833-1.254-.381-2.138.811-1.59 1.09-3.27.96-5.045-.25-3.452-2.617-6.462-5.929-7.474-1.337-.409-2.693-.46-4.136-.21.169.177.28.3.398.416 1.793 1.794 3.587 3.586 5.379 5.382.83.831.826 1.651-.007 2.485a7905.57 7905.57 0 0 1-5.704 5.708c-.837.836-1.733.837-2.57 0-1.783-1.78-3.565-3.564-5.348-5.346-.115-.116-.237-.225-.405-.383z"/></svg></svg></svg>