<svg width="127" height="75" xmlns="http://www.w3.org/2000/svg" xmlns:xlink="http://www.w3.org/1999/xlink" xmlns:svgjs="http://svgjs.com/svgjs" viewBox="909 4171 127 75"><svg width="127" height="75" xmlns="http://www.w3.org/2000/svg" xmlns:xlink="http://www.w3.org/1999/xlink" xmlns:svgjs="http://svgjs.com/svgjs" viewBox="909 4171 127 75" x="909" y="4171"><svg width="127" height="75" xmlns="http://www.w3.org/2000/svg" xmlns:xlink="http://www.w3.org/1999/xlink" xmlns:svgjs="http://svgjs.com/svgjs" viewBox="0 0.023 127 74.954" fill="#172972" x="909" y="4171"><svg xmlns="http://www.w3.org/2000/svg" xmlns:xlink="http://www.w3.org/1999/xlink" width="127" height="75" viewBox="0.728 0.494 125.912 74.312"><path paint-order="stroke fill markers" fill-rule="evenodd" d="M89.485 74.806l-.005-.005-.003.003-51.598-.003C17.362 74.799.73 58.168.728 37.65.73 17.132 17.362.5 37.879.499l51.594.006.012-.011L126.64 37.65 89.485 74.806z"/></svg></svg></svg><svg width="50" height="47" xmlns="http://www.w3.org/2000/svg" xmlns:xlink="http://www.w3.org/1999/xlink" xmlns:svgjs="http://svgjs.com/svgjs" viewBox="924 4181 50 47" x="924" y="4181"><svg width="50" height="3" xmlns="http://www.w3.org/2000/svg" xmlns:xlink="http://www.w3.org/1999/xlink" xmlns:svgjs="http://svgjs.com/svgjs" viewBox="0 0.189 50 2.622" fill="#fff" x="924" y="4225"><svg xmlns="http://www.w3.org/2000/svg" xmlns:xlink="http://www.w3.org/1999/xlink" width="50" height="3" viewBox="0 0.028 49.989 2.622"><path paint-order="stroke fill markers" fill-rule="evenodd" d="M0 1.303c1.834-1.745 48.331-1.678 49.989.07-1.838 1.746-48.339 1.68-49.99-.07z"/></svg></svg><svg width="38" height="42" xmlns="http://www.w3.org/2000/svg" xmlns:xlink="http://www.w3.org/1999/xlink" xmlns:svgjs="http://svgjs.com/svgjs" viewBox="0.019 0 37.961 42" fill="#fff" x="930" y="4181"><svg xmlns="http://www.w3.org/2000/svg" width="38" height="42" viewBox="0.358 0.673 37.146 41.098"><path paint-order="stroke fill markers" fill-rule="evenodd" d="M28.525 38.997l.005-.607 8.592-4.336-.148-.655-9.944 1.79-.107-.76 6.854-5.693-.218-.649c-3.844 1.924-7.686 3.85-12.127 6.072l4.279-10.086-.397-.383c-1.63 2.555-3.258 5.11-5.318 8.344V26.98c0-6.483-.039-21.791-.042-22.962-.005-1.117-.619-2.231-.949-3.346-.396 1.138-1.132 2.275-1.137 3.417-.004 1.147-.05 16.455-.05 22.962v5.195l-4.845-8.464-.507.325 3.657 9.98-11.53-6.057-.184.702 6.949 5.72-.212.7-10.012-1.8c-.031.232-.064.464-.096.695l9.405 4.632L.358 41.32l.07.451h37.049l.027-.484-8.979-2.29z"/></svg></svg></svg></svg>