<svg width="127" height="75" xmlns="http://www.w3.org/2000/svg" xmlns:xlink="http://www.w3.org/1999/xlink" xmlns:svgjs="http://svgjs.com/svgjs" viewBox="1457 4171 127 75"><svg width="127" height="75" xmlns="http://www.w3.org/2000/svg" xmlns:xlink="http://www.w3.org/1999/xlink" xmlns:svgjs="http://svgjs.com/svgjs" viewBox="1457 4171 127 75" x="1457" y="4171"><svg width="127" height="75" xmlns="http://www.w3.org/2000/svg" xmlns:xlink="http://www.w3.org/1999/xlink" xmlns:svgjs="http://svgjs.com/svgjs" viewBox="0 0.023 127 74.954" fill="#172972" x="1457" y="4171"><svg xmlns="http://www.w3.org/2000/svg" xmlns:xlink="http://www.w3.org/1999/xlink" width="127" height="75" viewBox="0.728 0.494 125.912 74.312"><path paint-order="stroke fill markers" fill-rule="evenodd" d="M89.485 74.806l-.006-.005-.002.003-51.598-.003C17.361 74.799.729 58.168.729 37.65.728 17.132 17.36.5 37.878.499l51.594.006.012-.011L126.64 37.65 89.485 74.806z"/></svg></svg></svg><svg width="50" height="34" xmlns="http://www.w3.org/2000/svg" xmlns:xlink="http://www.w3.org/1999/xlink" xmlns:svgjs="http://svgjs.com/svgjs" viewBox="0 0.297 50 33.405" fill="#fff" x="1477" y="4191"><svg xmlns="http://www.w3.org/2000/svg" width="50" height="34" viewBox="0.331 0.822 49.575 33.121"><path paint-order="stroke fill markers" fill-rule="evenodd" d="M.331 7.504c.362-.81.998-1.068 1.864-1.066 6.764.02 13.529.008 20.293.016.574.001 1.05-.136 1.378-.629a1.388 1.388 0 0 0-1.077-2.168c-.226-.014-.453-.003-.679-.003H6.756c-.177 0-.355.003-.532-.008-.786-.046-1.343-.605-1.36-1.359-.016-.756.509-1.35 1.282-1.443.16-.019.323-.013.484-.013L36.223.822c1.222 0 1.6.468 1.37 1.664-.338 1.757-.668 3.516-.998 5.275-.023.122-.021.247-.034.415h3.22c.759 0 1.518.02 2.276-.005.604-.02.994.234 1.285.756 1.483 2.663 2.99 5.312 4.473 7.975.184.33.377.486.78.476 1.067-.027 1.458.468 1.263 1.514l-.89 4.792c.88.472 1.017.775.821 1.76-.116.584-.217 1.172-.338 1.757-.166.802-.773 1.333-1.588 1.37a15.87 15.87 0 0 1-1.598.001c-.358-.02-.48.125-.6.447-.996 2.676-2.87 4.379-5.712 4.842-3.232.526-5.628-1.672-5.508-4.953.004-.08.001-.16.001-.3-.176-.01-.345-.027-.515-.027-4.359-.001-8.718.002-13.077-.007-.337-.001-.497.078-.609.434-.855 2.713-3.61 4.843-6.33 4.932-2.968.098-5.039-2.007-4.89-4.969.006-.109 0-.219 0-.391-.585 0-1.145.002-1.704 0-1.197-.004-1.577-.454-1.356-1.633.72-3.835 1.447-7.668 2.17-11.502.03-.155.042-.314.073-.55h-.744c-1.146 0-2.293.005-3.44-.001-.988-.006-1.621-.56-1.62-1.406.002-.836.654-1.413 1.625-1.414 6.167-.003 12.335-.001 18.502-.002.835 0 1.402-.403 1.552-1.096.186-.853-.43-1.636-1.34-1.7-.144-.01-.29-.003-.435-.003-6.733 0-13.465-.009-20.198.01-.866.003-1.465-.282-1.779-1.101v-.678zm34.47 9.82h9.939c-.016-.073-.016-.108-.03-.135-1.152-2.052-2.3-4.105-3.467-6.147-.073-.128-.298-.239-.454-.24-1.483-.018-2.968-.012-4.452-.009-.107 0-.214.03-.321.047L34.8 17.324zM17.87 27.736c.014-1.387-.966-2.432-2.348-2.504-1.854-.096-3.66 1.462-3.84 3.313-.15 1.544.91 2.744 2.46 2.783 1.889.05 3.71-1.705 3.728-3.592zm22.896-2.511c-1.66.002-3.31 1.384-3.615 3.025-.316 1.704.824 3.103 2.511 3.079 1.75-.025 3.4-1.512 3.61-3.25.194-1.622-.89-2.858-2.506-2.854z"/></svg></svg></svg>