<svg id="SvgjsSvg175410" width="163" height="36" xmlns="http://www.w3.org/2000/svg" version="1.1" xmlns:xlink="http://www.w3.org/1999/xlink" xmlns:svgjs="http://svgjs.com/svgjs" viewBox="163 647 163 36"><defs id="SvgjsDefs175411"></defs><svg id="SvgjsSvg175412" width="15" height="17" xmlns="http://www.w3.org/2000/svg" version="1.1" xmlns:xlink="http://www.w3.org/1999/xlink" xmlns:svgjs="http://svgjs.com/svgjs" viewBox="0.03155517578125 0 14.93695068359375 16.99993896484375" fill="#161615" opacity="1" x="214" y="656"><defs id="SvgjsDefs175413"></defs><svg version="1.1" xmlns="http://www.w3.org/2000/svg" xmlns:xlink="http://www.w3.org/1999/xlink" width="15" height="17" viewBox="0.0827603 0.754683 14.2404 16.2073"><g><path fill="#161615" stroke="none" paint-order="stroke fill markers" fill-rule="evenodd" d=" M 3.6239696741104126 0.7546828985214233 C 3.6239696741104126 0.7546828985214233 7.190667986869812 7.329715967178345 7.190667986869812 7.329715967178345 C 7.190667986869812 7.329715967178345 10.803070664405823 0.7546828985214233 10.803070664405823 0.7546828985214233 C 10.803070664405823 0.7546828985214233 14.323185682296753 0.7546828985214233 14.323185682296753 0.7546828985214233 C 14.323185682296753 0.7546828985214233 14.323185682296753 16.96194016933441 14.323185682296753 16.96194016933441 C 14.323185682296753 16.96194016933441 11.057960391044617 16.96194016933441 11.057960391044617 16.96194016933441 C 11.057960391044617 16.96194016933441 11.057960391044617 6.659195423126221 11.057960391044617 6.659195423126221 C 11.057960391044617 6.659195423126221 7.260103464126587 13.302768230438232 7.260103464126587 13.302768230438232 C 7.260103464126587 13.302768230438232 7.190667986869812 13.302768230438232 7.190667986869812 13.302768230438232 C 7.190667986869812 13.302768230438232 0.08276033401489258 0.7546828985214233 0.08276033401489258 0.7546828985214233 C 0.08276033401489258 0.7546828985214233 3.6239696741104126 0.7546828985214233 3.6239696741104126 0.7546828985214233 C 3.6239696741104126 0.7546828985214233 3.6239696741104126 0.7546828985214233 3.6239696741104126 0.7546828985214233 Z"></path></g></svg></svg><svg id="SvgjsSvg175416" width="12" height="17" xmlns="http://www.w3.org/2000/svg" version="1.1" xmlns:xlink="http://www.w3.org/1999/xlink" xmlns:svgjs="http://svgjs.com/svgjs" viewBox="0.4744873046875 0 11.051025390625 16.99993896484375" fill="#161615" opacity="1" x="231" y="656"><defs id="SvgjsDefs175417"></defs><svg version="1.1" xmlns="http://www.w3.org/2000/svg" xmlns:xlink="http://www.w3.org/1999/xlink" width="12" height="17" viewBox="0.725524 0.754683 10.5357 16.2073"><g><path fill="#161615" stroke="none" paint-order="stroke fill markers" fill-rule="evenodd" d=" M 0.7255240678787231 7.283491492271423 C 0.7255240678787231 7.283491492271423 10.31201457977295 7.283491492271423 10.31201457977295 7.283491492271423 C 10.31201457977295 7.283491492271423 10.31201457977295 10.317304730415344 10.31201457977295 10.317304730415344 C 10.31201457977295 10.317304730415344 4.059305906295776 10.317304730415344 4.059305906295776 10.317304730415344 C 4.059305906295776 10.317304730415344 4.059305906295776 13.930252194404602 4.059305906295776 13.930252194404602 C 4.059305906295776 13.930252194404602 11.261259078979492 13.930252194404602 11.261259078979492 13.930252194404602 C 11.261259078979492 13.930252194404602 11.261259078979492 16.96194016933441 11.261259078979492 16.96194016933441 C 11.261259078979492 16.96194016933441 0.7255240678787231 16.96194016933441 0.7255240678787231 16.96194016933441 C 0.7255240678787231 16.96194016933441 0.7255240678787231 7.283491492271423 0.7255240678787231 7.283491492271423 C 0.7255240678787231 7.283491492271423 0.7255240678787231 7.283491492271423 0.7255240678787231 7.283491492271423 Z M 0.7255240678787231 0.7546828985214233 C 0.7255240678787231 0.7546828985214233 11.168971419334412 0.7546828985214233 11.168971419334412 0.7546828985214233 C 11.168971419334412 0.7546828985214233 11.168971419334412 3.785839557647705 11.168971419334412 3.785839557647705 C 11.168971419334412 3.785839557647705 0.7255240678787231 3.785839557647705 0.7255240678787231 3.785839557647705 C 0.7255240678787231 3.785839557647705 0.7255240678787231 0.7546828985214233 0.7255240678787231 0.7546828985214233 C 0.7255240678787231 0.7546828985214233 0.7255240678787231 0.7546828985214233 0.7255240678787231 0.7546828985214233 Z"></path></g></svg></svg><svg id="SvgjsSvg175420" width="12" height="4" xmlns="http://www.w3.org/2000/svg" version="1.1" xmlns:xlink="http://www.w3.org/1999/xlink" xmlns:svgjs="http://svgjs.com/svgjs" viewBox="0 0.41644287109375 12 3.1671142578125" fill="#161615" opacity="1" x="244" y="656"><defs id="SvgjsDefs175421"></defs><svg version="1.1" xmlns="http://www.w3.org/2000/svg" xmlns:xlink="http://www.w3.org/1999/xlink" width="12" height="4" viewBox="0.03494 0.754683 11.485 3.03116"><g><path fill="#161615" stroke="none" paint-order="stroke fill markers" fill-rule="evenodd" d=" M 0.03494000434875488 0.7546828985214233 C 0.03494000434875488 0.7546828985214233 11.519919514656067 0.7546828985214233 11.519919514656067 0.7546828985214233 C 11.519919514656067 0.7546828985214233 11.519919514656067 3.785839557647705 11.519919514656067 3.785839557647705 C 11.519919514656067 3.785839557647705 0.03494000434875488 3.785839557647705 0.03494000434875488 3.785839557647705 C 0.03494000434875488 3.785839557647705 0.03494000434875488 0.7546828985214233 0.03494000434875488 0.7546828985214233 C 0.03494000434875488 0.7546828985214233 0.03494000434875488 0.7546828985214233 0.03494000434875488 0.7546828985214233 Z"></path></g></svg></svg><svg id="SvgjsSvg175424" width="4" height="10" xmlns="http://www.w3.org/2000/svg" version="1.1" xmlns:xlink="http://www.w3.org/1999/xlink" xmlns:svgjs="http://svgjs.com/svgjs" viewBox="0.27679443359375 0 3.4464111328125 10" fill="#161615" opacity="1" x="248" y="663"><defs id="SvgjsDefs175425"></defs><svg version="1.1" xmlns="http://www.w3.org/2000/svg" xmlns:xlink="http://www.w3.org/1999/xlink" width="4" height="10" viewBox="0.10966 0.283491 3.33554 9.67845"><g><path fill="#161615" stroke="none" paint-order="stroke fill markers" fill-rule="evenodd" d=" M 0.10965991020202637 0.28349149227142334 C 0.10965991020202637 0.28349149227142334 3.4451996088027954 0.28349149227142334 3.4451996088027954 0.28349149227142334 C 3.4451996088027954 0.28349149227142334 3.4451996088027954 9.961940169334412 3.4451996088027954 9.961940169334412 C 3.4451996088027954 9.961940169334412 0.10965991020202637 9.961940169334412 0.10965991020202637 9.961940169334412 C 0.10965991020202637 9.961940169334412 0.10965991020202637 0.28349149227142334 0.10965991020202637 0.28349149227142334 C 0.10965991020202637 0.28349149227142334 0.10965991020202637 0.28349149227142334 0.10965991020202637 0.28349149227142334 Z"></path></g></svg></svg><svg id="SvgjsSvg175428" width="15" height="17" xmlns="http://www.w3.org/2000/svg" version="1.1" xmlns:xlink="http://www.w3.org/1999/xlink" xmlns:svgjs="http://svgjs.com/svgjs" viewBox="0.5657958984375 0 13.868408203125 16.99993896484375" fill="#161615" opacity="1" x="257" y="656"><defs id="SvgjsDefs175429"></defs><svg version="1.1" xmlns="http://www.w3.org/2000/svg" xmlns:xlink="http://www.w3.org/1999/xlink" width="15" height="17" viewBox="0.866663 0.754683 13.2217 16.2073"><g><path fill="#161615" stroke="none" paint-order="stroke fill markers" fill-rule="evenodd" d=" M 0.866662859916687 0.7546828985214233 C 0.866662859916687 0.7546828985214233 2.0250927209854126 0.7546828985214233 2.0250927209854126 0.7546828985214233 C 2.0250927209854126 0.7546828985214233 7.4647910594940186 10.224324464797974 7.4647910594940186 10.224324464797974 C 7.4647910594940186 10.224324464797974 12.930857300758362 0.7546828985214233 12.930857300758362 0.7546828985214233 C 12.930857300758362 0.7546828985214233 14.08840823173523 0.7546828985214233 14.08840823173523 0.7546828985214233 C 14.08840823173523 0.7546828985214233 14.08840823173523 16.96194016933441 14.08840823173523 16.96194016933441 C 14.08840823173523 16.96194016933441 12.930857300758362 16.96194016933441 12.930857300758362 16.96194016933441 C 12.930857300758362 16.96194016933441 12.930857300758362 2.88525927066803 12.930857300758362 2.88525927066803 C 12.930857300758362 2.88525927066803 7.511374354362488 12.285298466682434 7.511374354362488 12.285298466682434 C 7.511374354362488 12.285298466682434 7.419086694717407 12.285298466682434 7.419086694717407 12.285298466682434 C 7.419086694717407 12.285298466682434 1.9785094261169434 2.88525927066803 1.9785094261169434 2.88525927066803 C 1.9785094261169434 2.88525927066803 1.9785094261169434 16.96194016933441 1.9785094261169434 16.96194016933441 C 1.9785094261169434 16.96194016933441 0.866662859916687 16.96194016933441 0.866662859916687 16.96194016933441 C 0.866662859916687 16.96194016933441 0.866662859916687 0.7546828985214233 0.866662859916687 0.7546828985214233 C 0.866662859916687 0.7546828985214233 0.866662859916687 0.7546828985214233 0.866662859916687 0.7546828985214233 Z"></path></g></svg></svg><svg id="SvgjsSvg175432" width="15" height="17" xmlns="http://www.w3.org/2000/svg" version="1.1" xmlns:xlink="http://www.w3.org/1999/xlink" xmlns:svgjs="http://svgjs.com/svgjs" viewBox="0.31317138671875 0 14.37371826171875 17" fill="#161615" opacity="1" x="273" y="656"><defs id="SvgjsDefs175433"></defs><svg version="1.1" xmlns="http://www.w3.org/2000/svg" xmlns:xlink="http://www.w3.org/1999/xlink" width="15" height="17" viewBox="0.947568 0.638856 13.8018 16.3236"><g><path fill="#161615" stroke="none" paint-order="stroke fill markers" fill-rule="evenodd" d=" M 7.270590901374817 0.638856053352356 C 7.270590901374817 0.638856053352356 8.427262902259827 0.638856053352356 8.427262902259827 0.638856053352356 C 8.427262902259827 0.638856053352356 14.749407052993774 16.96247148513794 14.749407052993774 16.96247148513794 C 14.749407052993774 16.96247148513794 13.49781060218811 16.96247148513794 13.49781060218811 16.96247148513794 C 13.49781060218811 16.96247148513794 11.783896923065186 12.42344057559967 11.783896923065186 12.42344057559967 C 11.783896923065186 12.42344057559967 3.8427635431289673 12.42344057559967 3.8427635431289673 12.42344057559967 C 3.8427635431289673 12.42344057559967 2.1288498640060425 16.96247148513794 2.1288498640060425 16.96247148513794 C 2.1288498640060425 16.96247148513794 0.9475678205490112 16.96247148513794 0.9475678205490112 16.96247148513794 C 0.9475678205490112 16.96247148513794 7.270590901374817 0.638856053352356 7.270590901374817 0.638856053352356 C 7.270590901374817 0.638856053352356 7.270590901374817 0.638856053352356 7.270590901374817 0.638856053352356 Z M 11.368162989616394 11.38206160068512 C 11.368162989616394 11.38206160068512 7.8243168592453 2.0510934591293335 7.8243168592453 2.0510934591293335 C 7.8243168592453 2.0510934591293335 4.260255336761475 11.38206160068512 4.260255336761475 11.38206160068512 C 4.260255336761475 11.38206160068512 11.368162989616394 11.38206160068512 11.368162989616394 11.38206160068512 C 11.368162989616394 11.38206160068512 11.368162989616394 11.38206160068512 11.368162989616394 11.38206160068512 Z"></path></g></svg></svg><svg id="SvgjsSvg175436" width="13" height="17" xmlns="http://www.w3.org/2000/svg" version="1.1" xmlns:xlink="http://www.w3.org/1999/xlink" xmlns:svgjs="http://svgjs.com/svgjs" viewBox="0.099609375 0 12.80084228515625 16.99993896484375" fill="#161615" opacity="1" x="290" y="656"><defs id="SvgjsDefs175437"></defs><svg version="1.1" xmlns="http://www.w3.org/2000/svg" xmlns:xlink="http://www.w3.org/1999/xlink" width="13" height="17" viewBox="0.0812086 0.754683 12.2039 16.2073"><g><path fill="#161615" stroke="none" paint-order="stroke fill markers" fill-rule="evenodd" d=" M 12.007411003112793 0.7546828985214233 C 12.007411003112793 0.7546828985214233 6.867427825927734 8.626126527786255 6.867427825927734 8.626126527786255 C 6.867427825927734 8.626126527786255 12.285152912139893 16.96194016933441 12.285152912139893 16.96194016933441 C 12.285152912139893 16.96194016933441 10.964120984077454 16.96194016933441 10.964120984077454 16.96194016933441 C 10.964120984077454 16.96194016933441 6.148463010787964 9.460292339324951 6.148463010787964 9.460292339324951 C 6.148463010787964 9.460292339324951 1.3793883323669434 16.96194016933441 1.3793883323669434 16.96194016933441 C 1.3793883323669434 16.96194016933441 0.08120858669281006 16.96194016933441 0.08120858669281006 16.96194016933441 C 0.08120858669281006 16.96194016933441 5.499812602996826 8.650567054748535 5.499812602996826 8.650567054748535 C 5.499812602996826 8.650567054748535 0.3352193832397461 0.7546828985214233 0.3352193832397461 0.7546828985214233 C 0.3352193832397461 0.7546828985214233 1.656251311302185 0.7546828985214233 1.656251311302185 0.7546828985214233 C 1.656251311302185 0.7546828985214233 6.172194123268127 7.793023347854614 6.172194123268127 7.793023347854614 C 6.172194123268127 7.793023347854614 10.710989117622375 0.7546828985214233 10.710989117622375 0.7546828985214233 C 10.710989117622375 0.7546828985214233 12.007411003112793 0.7546828985214233 12.007411003112793 0.7546828985214233 C 12.007411003112793 0.7546828985214233 12.007411003112793 0.7546828985214233 12.007411003112793 0.7546828985214233 Z"></path></g></svg></svg><svg id="SvgjsSvg175440" width="13" height="17" xmlns="http://www.w3.org/2000/svg" version="1.1" xmlns:xlink="http://www.w3.org/1999/xlink" xmlns:svgjs="http://svgjs.com/svgjs" viewBox="0.09912109375 0 12.8017578125 16.99993896484375" fill="#161615" opacity="1" x="304" y="656"><defs id="SvgjsDefs175441"></defs><svg version="1.1" xmlns="http://www.w3.org/2000/svg" xmlns:xlink="http://www.w3.org/1999/xlink" width="13" height="17" viewBox="0.639807 0.754683 12.2048 16.2073"><g><path fill="#161615" stroke="none" paint-order="stroke fill markers" fill-rule="evenodd" d=" M 12.565130114555359 0.7546828985214233 C 12.565130114555359 0.7546828985214233 7.4233890771865845 8.626126527786255 7.4233890771865845 8.626126527786255 C 7.4233890771865845 8.626126527786255 12.844629883766174 16.96194016933441 12.844629883766174 16.96194016933441 C 12.844629883766174 16.96194016933441 11.522719025611877 16.96194016933441 11.522719025611877 16.96194016933441 C 11.522719025611877 16.96194016933441 6.70618212223053 9.460292339324951 6.70618212223053 9.460292339324951 C 6.70618212223053 9.460292339324951 1.9379863739013672 16.96194016933441 1.9379863739013672 16.96194016933441 C 1.9379863739013672 16.96194016933441 0.6398066282272339 16.96194016933441 0.6398066282272339 16.96194016933441 C 0.6398066282272339 16.96194016933441 6.05841064453125 8.650567054748535 6.05841064453125 8.650567054748535 C 6.05841064453125 8.650567054748535 0.8964542150497437 0.7546828985214233 0.8964542150497437 0.7546828985214233 C 0.8964542150497437 0.7546828985214233 2.215728282928467 0.7546828985214233 2.215728282928467 0.7546828985214233 C 2.215728282928467 0.7546828985214233 6.730792164802551 7.793023347854614 6.730792164802551 7.793023347854614 C 6.730792164802551 7.793023347854614 11.267829298973083 0.7546828985214233 11.267829298973083 0.7546828985214233 C 11.267829298973083 0.7546828985214233 12.565130114555359 0.7546828985214233 12.565130114555359 0.7546828985214233 C 12.565130114555359 0.7546828985214233 12.565130114555359 0.7546828985214233 12.565130114555359 0.7546828985214233 Z"></path></g></svg></svg><svg id="SvgjsSvg175444" width="4" height="10" xmlns="http://www.w3.org/2000/svg" version="1.1" xmlns:xlink="http://www.w3.org/1999/xlink" xmlns:svgjs="http://svgjs.com/svgjs" viewBox="0.30108642578125 0 3.3978271484375 10" fill="#161615" opacity="1" x="214" y="663"><defs id="SvgjsDefs175445"></defs><svg version="1.1" xmlns="http://www.w3.org/2000/svg" xmlns:xlink="http://www.w3.org/1999/xlink" width="4" height="10" viewBox="0.0827603 0.28296 3.28896 9.67951"><g><path fill="#161615" stroke="none" paint-order="stroke fill markers" fill-rule="evenodd" d=" M 3.3717167377471924 6.089179277420044 C 3.3717167377471924 6.089179277420044 3.3717167377471924 9.96247148513794 3.3717167377471924 9.96247148513794 C 3.3717167377471924 9.96247148513794 0.08276033401489258 9.96247148513794 0.08276033401489258 9.96247148513794 C 0.08276033401489258 9.96247148513794 0.08276033401489258 0.2829601764678955 0.08276033401489258 0.2829601764678955 C 0.08276033401489258 0.2829601764678955 3.3717167377471924 6.089179277420044 3.3717167377471924 6.089179277420044 C 3.3717167377471924 6.089179277420044 3.3717167377471924 6.089179277420044 3.3717167377471924 6.089179277420044 Z"></path></g></svg></svg><svg id="SvgjsSvg175448" width="8" height="8" xmlns="http://www.w3.org/2000/svg" version="1.1" xmlns:xlink="http://www.w3.org/1999/xlink" xmlns:svgjs="http://svgjs.com/svgjs" viewBox="0 0.00067138671875 8 7.9986572265625" fill="#161615" opacity="1" x="318" y="656"><defs id="SvgjsDefs175449"></defs><svg version="1.1" xmlns="http://www.w3.org/2000/svg" xmlns:xlink="http://www.w3.org/1999/xlink" width="8" height="8" viewBox="0.15072 0.427924 7.1835 7.18233"><g><path fill="#161615" stroke="none" paint-order="stroke fill markers" fill-rule="evenodd" d=" M 3.731481194496155 7.61025071144104 C 3.221701741218567 7.61025071144104 2.7470794916152954 7.516739130020142 2.3058565855026245 7.330247282981873 C 1.8663915395736694 7.147474646568298 1.4875726699829102 6.893505692481995 1.1720367670059204 6.571528315544128 C 0.8512272834777832 6.252738833427429 0.6033689975738525 5.878161191940308 0.42230939865112305 5.450983285903931 C 0.24124979972839355 5.026461958885193 0.1507200002670288 4.571655631065369 0.1507200002670288 4.088689565658569 C 0.1507200002670288 4.088689565658569 0.1507200002670288 3.9590485095977783 0.1507200002670288 3.9590485095977783 C 0.1507200002670288 3.476082444190979 0.24124979972839355 3.021276116371155 0.42230939865112305 2.5956921577453613 C 0.6033689975738525 2.1685142517089844 0.8547430038452148 1.7939366102218628 1.17643141746521 1.4724905490875244 C 1.4963619709014893 1.1526384353637695 1.8778176307678223 0.898138165473938 2.319040536880493 0.7105836868286133 C 2.7567477226257324 0.5224978923797607 3.2357646226882935 0.42792367935180664 3.7534544467926025 0.42792367935180664 C 4.26323390007019 0.42792367935180664 4.737856149673462 0.5187786817550659 5.179957985877991 0.7042078971862793 C 5.61766517162323 0.8912310600280762 5.996484041213989 1.1430747509002686 6.313777804374695 1.4629268646240234 C 6.6301926374435425 1.7859668731689453 6.880687713623047 2.1589505672454834 7.061747312545776 2.5855971574783325 C 7.243685841560364 3.010649800300598 7.3342156410217285 3.46598744392395 7.3342156410217285 3.9484221935272217 C 7.3342156410217285 3.9484221935272217 7.3342156410217285 4.067968249320984 7.3342156410217285 4.067968249320984 C 7.3342156410217285 4.5498716831207275 7.243685841560364 5.005740642547607 7.061747312545776 5.431855916976929 C 6.880687713623047 5.859033823013306 6.6301926374435425 6.234674096107483 6.308504223823547 6.5587767362594604 C 5.986815810203552 6.881816744804382 5.604481220245361 7.137910962104797 5.166774034500122 7.327059388160706 C 4.725551128387451 7.515676498413086 4.247413158416748 7.61025071144104 3.731481194496155 7.61025071144104 C 3.731481194496155 7.61025071144104 3.731481194496155 7.61025071144104 3.731481194496155 7.61025071144104 Z M 3.731481194496155 7.330247282981873 C 4.211377024650574 7.330247282981873 4.6534788608551025 7.246830701828003 5.05427098274231 7.075747013092041 C 5.458578824996948 6.90200674533844 5.803998351097107 6.667696475982666 6.0922874212265015 6.369628310203552 C 6.380576491355896 6.072091460227966 6.604703664779663 5.724079608917236 6.768184661865234 5.328780651092529 C 6.92990779876709 4.931887745857239 7.012527227401733 4.5121482610702515 7.012527227401733 4.067968249320984 C 7.012527227401733 4.067968249320984 7.012527227401733 3.9484221935272217 7.012527227401733 3.9484221935272217 C 7.012527227401733 3.5053048133850098 6.932544589042664 3.0882219076156616 6.775216102600098 2.695048213005066 C 6.616129755973816 2.3013432025909424 6.391123652458191 1.9565192461013794 6.104592442512512 1.6621702909469604 C 5.814545512199402 1.3667587041854858 5.470883846282959 1.135636329650879 5.072728514671326 0.9624273777008057 C 4.671936392784119 0.7908123731613159 4.232471346855164 0.7042078971862793 3.7534544467926025 0.7042078971862793 C 3.2718007564544678 0.7042078971862793 2.829698920249939 0.7908123731613159 2.42978572845459 0.9624273777008057 C 2.025477886199951 1.135636329650879 1.6818162202835083 1.369415283203125 1.3935271501541138 1.666420817375183 C 1.1026012897491455 1.9650202989578247 0.8784741163253784 2.3098442554473877 0.715872049331665 2.704611897468567 C 0.5541489124298096 3.0977855920791626 0.4724084138870239 3.5153998136520386 0.4724084138870239 3.9590485095977783 C 0.4724084138870239 3.9590485095977783 0.4724084138870239 4.088689565658569 0.4724084138870239 4.088689565658569 C 0.4724084138870239 4.530744314193726 0.5541489124298096 4.950483798980713 0.715872049331665 5.343126177787781 C 0.8784741163253784 5.736831188201904 1.1026012897491455 6.080061197280884 1.3935271501541138 6.374410152435303 C 1.6818162202835083 6.669821739196777 2.0237200260162354 6.90200674533844 2.4227542877197266 7.075747013092041 C 2.8226674795150757 7.246830701828003 3.257737874984741 7.330247282981873 3.731481194496155 7.330247282981873 C 3.731481194496155 7.330247282981873 3.731481194496155 7.330247282981873 3.731481194496155 7.330247282981873 Z M 2.4227542877197266 2.0835037231445312 C 2.4227542877197266 2.0835037231445312 3.887051820755005 2.0835037231445312 3.887051820755005 2.0835037231445312 C 4.3599162101745605 2.0835037231445312 4.724672198295593 2.1993305683135986 4.983077645301819 2.4315155744552612 C 5.079759955406189 2.5186513662338257 5.157105803489685 2.6206640005111694 5.215994119644165 2.7433979511260986 C 5.274882435798645 2.8671945333480835 5.305644989013672 3.0032113790512085 5.305644989013672 3.1551676988601685 C 5.305644989013672 3.1551676988601685 5.305644989013672 3.175357699394226 5.305644989013672 3.175357699394226 C 5.305644989013672 3.46598744392395 5.212478399276733 3.697641134262085 5.03317666053772 3.8703187704086304 C 4.851238131523132 4.041402459144592 4.617442727088928 4.160417199134827 4.330032587051392 4.2273629903793335 C 4.330032587051392 4.2273629903793335 5.506041049957275 5.775085926055908 5.506041049957275 5.775085926055908 C 5.506041049957275 5.775085926055908 4.938252210617065 5.775085926055908 4.938252210617065 5.775085926055908 C 4.938252210617065 5.775085926055908 3.8431053161621094 4.307060360908508 3.8431053161621094 4.307060360908508 C 3.8431053161621094 4.307060360908508 2.867492914199829 4.307060360908508 2.867492914199829 4.307060360908508 C 2.867492914199829 4.307060360908508 2.867492914199829 5.775085926055908 2.867492914199829 5.775085926055908 C 2.867492914199829 5.775085926055908 2.4227542877197266 5.775085926055908 2.4227542877197266 5.775085926055908 C 2.4227542877197266 5.775085926055908 2.4227542877197266 2.0835037231445312 2.4227542877197266 2.0835037231445312 C 2.4227542877197266 2.0835037231445312 2.4227542877197266 2.0835037231445312 2.4227542877197266 2.0835037231445312 Z M 3.8431053161621094 3.9388585090637207 C 4.121726155281067 3.9388585090637207 4.3599162101745605 3.87775719165802 4.551522970199585 3.7555545568466187 C 4.744887590408325 3.633883237838745 4.840690970420837 3.4463287591934204 4.840690970420837 3.1960790157318115 C 4.840690970420837 3.1960790157318115 4.840690970420837 3.175357699394226 4.840690970420837 3.175357699394226 C 4.840690970420837 2.951673746109009 4.751040101051331 2.77740216255188 4.574375152587891 2.654136896133423 C 4.395952343940735 2.5319342613220215 4.158641219139099 2.4687076807022095 3.8633207082748413 2.4687076807022095 C 3.8633207082748413 2.4687076807022095 2.867492914199829 2.4687076807022095 2.867492914199829 2.4687076807022095 C 2.867492914199829 2.4687076807022095 2.867492914199829 3.9388585090637207 2.867492914199829 3.9388585090637207 C 2.867492914199829 3.9388585090637207 3.8431053161621094 3.9388585090637207 3.8431053161621094 3.9388585090637207 C 3.8431053161621094 3.9388585090637207 3.8431053161621094 3.9388585090637207 3.8431053161621094 3.9388585090637207 Z"></path></g></svg></svg><svg id="SvgjsSvg175452" width="8" height="8" xmlns="http://www.w3.org/2000/svg" version="1.1" xmlns:xlink="http://www.w3.org/1999/xlink" xmlns:svgjs="http://svgjs.com/svgjs" viewBox="0 0.00067138671875 8 7.9986572265625" fill="none" opacity="1" x="318" y="656"><defs id="SvgjsDefs175453"></defs><svg version="1.1" xmlns="http://www.w3.org/2000/svg" xmlns:xlink="http://www.w3.org/1999/xlink" width="8" height="8" viewBox="0.15072 0.427924 7.1835 7.18233"><g><path fill="none" stroke="none" paint-order="stroke fill markers" fill-rule="evenodd" d=" M 3.731481194496155 7.61025071144104 C 3.221701741218567 7.61025071144104 2.7470794916152954 7.516739130020142 2.3058565855026245 7.330247282981873 C 1.8663915395736694 7.147474646568298 1.4875726699829102 6.893505692481995 1.1720367670059204 6.571528315544128 C 0.8512272834777832 6.252738833427429 0.6033689975738525 5.878161191940308 0.42230939865112305 5.450983285903931 C 0.24124979972839355 5.026461958885193 0.1507200002670288 4.571655631065369 0.1507200002670288 4.088689565658569 C 0.1507200002670288 4.088689565658569 0.1507200002670288 3.9590485095977783 0.1507200002670288 3.9590485095977783 C 0.1507200002670288 3.476082444190979 0.24124979972839355 3.021276116371155 0.42230939865112305 2.5956921577453613 C 0.6033689975738525 2.1685142517089844 0.8547430038452148 1.7939366102218628 1.17643141746521 1.4724905490875244 C 1.4963619709014893 1.1526384353637695 1.8778176307678223 0.898138165473938 2.319040536880493 0.7105836868286133 C 2.7567477226257324 0.5224978923797607 3.2357646226882935 0.42792367935180664 3.7534544467926025 0.42792367935180664 C 4.26323390007019 0.42792367935180664 4.737856149673462 0.5187786817550659 5.179957985877991 0.7042078971862793 C 5.61766517162323 0.8912310600280762 5.996484041213989 1.1430747509002686 6.313777804374695 1.4629268646240234 C 6.6301926374435425 1.7859668731689453 6.880687713623047 2.1589505672454834 7.061747312545776 2.5855971574783325 C 7.243685841560364 3.010649800300598 7.3342156410217285 3.46598744392395 7.3342156410217285 3.9484221935272217 C 7.3342156410217285 3.9484221935272217 7.3342156410217285 4.067968249320984 7.3342156410217285 4.067968249320984 C 7.3342156410217285 4.5498716831207275 7.243685841560364 5.005740642547607 7.061747312545776 5.431855916976929 C 6.880687713623047 5.859033823013306 6.6301926374435425 6.234674096107483 6.308504223823547 6.5587767362594604 C 5.986815810203552 6.881816744804382 5.604481220245361 7.137910962104797 5.166774034500122 7.327059388160706 C 4.725551128387451 7.515676498413086 4.247413158416748 7.61025071144104 3.731481194496155 7.61025071144104 C 3.731481194496155 7.61025071144104 3.731481194496155 7.61025071144104 3.731481194496155 7.61025071144104 Z M 3.731481194496155 7.330247282981873 C 4.211377024650574 7.330247282981873 4.6534788608551025 7.246830701828003 5.05427098274231 7.075747013092041 C 5.458578824996948 6.90200674533844 5.803998351097107 6.667696475982666 6.0922874212265015 6.369628310203552 C 6.380576491355896 6.072091460227966 6.604703664779663 5.724079608917236 6.768184661865234 5.328780651092529 C 6.92990779876709 4.931887745857239 7.012527227401733 4.5121482610702515 7.012527227401733 4.067968249320984 C 7.012527227401733 4.067968249320984 7.012527227401733 3.9484221935272217 7.012527227401733 3.9484221935272217 C 7.012527227401733 3.5053048133850098 6.932544589042664 3.0882219076156616 6.775216102600098 2.695048213005066 C 6.616129755973816 2.3013432025909424 6.391123652458191 1.9565192461013794 6.104592442512512 1.6621702909469604 C 5.814545512199402 1.3667587041854858 5.470883846282959 1.135636329650879 5.072728514671326 0.9624273777008057 C 4.671936392784119 0.7908123731613159 4.232471346855164 0.7042078971862793 3.7534544467926025 0.7042078971862793 C 3.2718007564544678 0.7042078971862793 2.829698920249939 0.7908123731613159 2.42978572845459 0.9624273777008057 C 2.025477886199951 1.135636329650879 1.6818162202835083 1.369415283203125 1.3935271501541138 1.666420817375183 C 1.1026012897491455 1.9650202989578247 0.8784741163253784 2.3098442554473877 0.715872049331665 2.704611897468567 C 0.5541489124298096 3.0977855920791626 0.4724084138870239 3.5153998136520386 0.4724084138870239 3.9590485095977783 C 0.4724084138870239 3.9590485095977783 0.4724084138870239 4.088689565658569 0.4724084138870239 4.088689565658569 C 0.4724084138870239 4.530744314193726 0.5541489124298096 4.950483798980713 0.715872049331665 5.343126177787781 C 0.8784741163253784 5.736831188201904 1.1026012897491455 6.080061197280884 1.3935271501541138 6.374410152435303 C 1.6818162202835083 6.669821739196777 2.0237200260162354 6.90200674533844 2.4227542877197266 7.075747013092041 C 2.8226674795150757 7.246830701828003 3.257737874984741 7.330247282981873 3.731481194496155 7.330247282981873 C 3.731481194496155 7.330247282981873 3.731481194496155 7.330247282981873 3.731481194496155 7.330247282981873 Z M 2.4227542877197266 2.0835037231445312 C 2.4227542877197266 2.0835037231445312 3.887051820755005 2.0835037231445312 3.887051820755005 2.0835037231445312 C 4.3599162101745605 2.0835037231445312 4.724672198295593 2.1993305683135986 4.983077645301819 2.4315155744552612 C 5.079759955406189 2.5186513662338257 5.157105803489685 2.6206640005111694 5.215994119644165 2.7433979511260986 C 5.274882435798645 2.8671945333480835 5.305644989013672 3.0032113790512085 5.305644989013672 3.1551676988601685 C 5.305644989013672 3.1551676988601685 5.305644989013672 3.175357699394226 5.305644989013672 3.175357699394226 C 5.305644989013672 3.46598744392395 5.212478399276733 3.697641134262085 5.03317666053772 3.8703187704086304 C 4.851238131523132 4.041402459144592 4.617442727088928 4.160417199134827 4.330032587051392 4.2273629903793335 C 4.330032587051392 4.2273629903793335 5.506041049957275 5.775085926055908 5.506041049957275 5.775085926055908 C 5.506041049957275 5.775085926055908 4.938252210617065 5.775085926055908 4.938252210617065 5.775085926055908 C 4.938252210617065 5.775085926055908 3.8431053161621094 4.307060360908508 3.8431053161621094 4.307060360908508 C 3.8431053161621094 4.307060360908508 2.867492914199829 4.307060360908508 2.867492914199829 4.307060360908508 C 2.867492914199829 4.307060360908508 2.867492914199829 5.775085926055908 2.867492914199829 5.775085926055908 C 2.867492914199829 5.775085926055908 2.4227542877197266 5.775085926055908 2.4227542877197266 5.775085926055908 C 2.4227542877197266 5.775085926055908 2.4227542877197266 2.0835037231445312 2.4227542877197266 2.0835037231445312 C 2.4227542877197266 2.0835037231445312 2.4227542877197266 2.0835037231445312 2.4227542877197266 2.0835037231445312 Z M 3.8431053161621094 3.9388585090637207 C 4.121726155281067 3.9388585090637207 4.3599162101745605 3.87775719165802 4.551522970199585 3.7555545568466187 C 4.744887590408325 3.633883237838745 4.840690970420837 3.4463287591934204 4.840690970420837 3.1960790157318115 C 4.840690970420837 3.1960790157318115 4.840690970420837 3.175357699394226 4.840690970420837 3.175357699394226 C 4.840690970420837 2.951673746109009 4.751040101051331 2.77740216255188 4.574375152587891 2.654136896133423 C 4.395952343940735 2.5319342613220215 4.158641219139099 2.4687076807022095 3.8633207082748413 2.4687076807022095 C 3.8633207082748413 2.4687076807022095 2.867492914199829 2.4687076807022095 2.867492914199829 2.4687076807022095 C 2.867492914199829 2.4687076807022095 2.867492914199829 3.9388585090637207 2.867492914199829 3.9388585090637207 C 2.867492914199829 3.9388585090637207 3.8431053161621094 3.9388585090637207 3.8431053161621094 3.9388585090637207 C 3.8431053161621094 3.9388585090637207 3.8431053161621094 3.9388585090637207 3.8431053161621094 3.9388585090637207 Z"></path></g></svg></svg><svg id="SvgjsSvg175456" width="6" height="15" xmlns="http://www.w3.org/2000/svg" version="1.1" xmlns:xlink="http://www.w3.org/1999/xlink" xmlns:svgjs="http://svgjs.com/svgjs" viewBox="0.270751953125 0 5.45843505859375 14.99993896484375" fill="#161615" opacity="1" x="176" y="653"><defs id="SvgjsDefs175457"></defs><svg version="1.1" xmlns="http://www.w3.org/2000/svg" xmlns:xlink="http://www.w3.org/1999/xlink" width="6" height="15" viewBox="0.261519 0.0901978 5.26128 14.4582"><g><path fill="#161615" stroke="none" paint-order="stroke fill markers" fill-rule="evenodd" d=" M 0.26151955127716064 9.059871196746826 C 1.0587091445922852 11.251017570495605 1.7961314916610718 13.27904999256134 2.2584487199783325 14.548363447189331 C 2.2584487199783325 14.548363447189331 5.522795081138611 5.5760334730148315 5.522795081138611 5.5760334730148315 C 5.522795081138611 5.5760334730148315 3.524986982345581 0.09019780158996582 3.524986982345581 0.09019780158996582 C 3.524986982345581 0.09019780158996582 3.4924665689468384 0.17892754077911377 3.4924665689468384 0.17892754077911377 C 3.4924665689468384 0.17892754077911377 0.26151955127716064 9.059871196746826 0.26151955127716064 9.059871196746826 C 0.26151955127716064 9.059871196746826 0.26151955127716064 9.059871196746826 0.26151955127716064 9.059871196746826 Z"></path></g></svg></svg><svg id="SvgjsSvg175460" width="9" height="12" xmlns="http://www.w3.org/2000/svg" version="1.1" xmlns:xlink="http://www.w3.org/1999/xlink" xmlns:svgjs="http://svgjs.com/svgjs" viewBox="0.643798828125 0 7.71240234375 12" fill="#161615" opacity="1" x="184" y="666"><defs id="SvgjsDefs175461"></defs><svg version="1.1" xmlns="http://www.w3.org/2000/svg" xmlns:xlink="http://www.w3.org/1999/xlink" width="9" height="12" viewBox="0.989295 0.149409 7.52716 11.7118"><g><path fill="#161615" stroke="none" paint-order="stroke fill markers" fill-rule="evenodd" d=" M 0.9892953634262085 11.860140562057495 C 0.9892953634262085 11.860140562057495 7.518867015838623 11.86120319366455 7.518867015838623 11.86120319366455 C 7.518867015838623 11.86120319366455 8.516452670097351 9.118019700050354 8.516452670097351 9.118019700050354 C 8.516452670097351 9.118019700050354 5.252106308937073 0.14940893650054932 5.252106308937073 0.14940893650054932 C 5.252106308937073 0.14940893650054932 0.9892953634262085 11.860140562057495 0.9892953634262085 11.860140562057495 C 0.9892953634262085 11.860140562057495 0.9892953634262085 11.860140562057495 0.9892953634262085 11.860140562057495 Z"></path></g></svg></svg><svg id="SvgjsSvg175464" width="9" height="13" xmlns="http://www.w3.org/2000/svg" version="1.1" xmlns:xlink="http://www.w3.org/1999/xlink" xmlns:svgjs="http://svgjs.com/svgjs" viewBox="0.32318115234375 0 8.3536376953125 13" fill="#161615" opacity="1" x="193" y="651"><defs id="SvgjsDefs175465"></defs><svg version="1.1" xmlns="http://www.w3.org/2000/svg" xmlns:xlink="http://www.w3.org/1999/xlink" width="9" height="13" viewBox="0.497339 0.740656 7.52716 11.7139"><g><path fill="#161615" stroke="none" paint-order="stroke fill markers" fill-rule="evenodd" d=" M 8.024495959281921 0.7406556606292725 C 8.024495959281921 0.7406556606292725 1.4949243068695068 0.7406556606292725 1.4949243068695068 0.7406556606292725 C 1.4949243068695068 0.7406556606292725 0.4973386526107788 3.484370470046997 0.4973386526107788 3.484370470046997 C 0.4973386526107788 3.484370470046997 3.762563943862915 12.454575181007385 3.762563943862915 12.454575181007385 C 3.762563943862915 12.454575181007385 8.024495959281921 0.7406556606292725 8.024495959281921 0.7406556606292725 C 8.024495959281921 0.7406556606292725 8.024495959281921 0.7406556606292725 8.024495959281921 0.7406556606292725 Z"></path></g></svg></svg><svg id="SvgjsSvg175468" width="8" height="13" xmlns="http://www.w3.org/2000/svg" version="1.1" xmlns:xlink="http://www.w3.org/1999/xlink" xmlns:svgjs="http://svgjs.com/svgjs" viewBox="0 0.275146484375 8 12.44976806640625" fill="#161615" opacity="1" x="163" y="651"><defs id="SvgjsDefs175469"></defs><svg version="1.1" xmlns="http://www.w3.org/2000/svg" xmlns:xlink="http://www.w3.org/1999/xlink" width="8" height="13" viewBox="-0.000656605 0.740656 7.52716 11.7139"><g><path fill="#161615" stroke="none" paint-order="stroke fill markers" fill-rule="evenodd" d=" M 7.526500701904297 3.484370470046997 C 7.526500701904297 3.484370470046997 6.528915047645569 0.7406556606292725 6.528915047645569 0.7406556606292725 C 6.528915047645569 0.7406556606292725 -0.0006566047668457031 0.7406556606292725 -0.0006566047668457031 0.7406556606292725 C -0.0006566047668457031 0.7406556606292725 4.2630332708358765 12.454575181007385 4.2630332708358765 12.454575181007385 C 4.2630332708358765 12.454575181007385 7.526500701904297 3.484370470046997 7.526500701904297 3.484370470046997 C 7.526500701904297 3.484370470046997 7.526500701904297 3.484370470046997 7.526500701904297 3.484370470046997 Z"></path></g></svg></svg><svg id="SvgjsSvg175472" width="9" height="12" xmlns="http://www.w3.org/2000/svg" version="1.1" xmlns:xlink="http://www.w3.org/1999/xlink" xmlns:svgjs="http://svgjs.com/svgjs" viewBox="0.64459228515625 0 7.7108154296875 11.99993896484375" fill="#161615" opacity="1" x="171" y="666"><defs id="SvgjsDefs175473"></defs><svg version="1.1" xmlns="http://www.w3.org/2000/svg" xmlns:xlink="http://www.w3.org/1999/xlink" width="9" height="12" viewBox="0.508266 0.148346 7.52628 11.7129"><g><path fill="#161615" stroke="none" paint-order="stroke fill markers" fill-rule="evenodd" d=" M 0.5082656145095825 9.118551015853882 C 0.5082656145095825 9.118551015853882 1.5058512687683105 11.85907793045044 1.5058512687683105 11.85907793045044 C 1.5058512687683105 11.85907793045044 8.034543991088867 11.86120319366455 8.034543991088867 11.86120319366455 C 8.034543991088867 11.86120319366455 3.771733045578003 0.14834630489349365 3.771733045578003 0.14834630489349365 C 3.771733045578003 0.14834630489349365 0.5082656145095825 9.118551015853882 0.5082656145095825 9.118551015853882 C 0.5082656145095825 9.118551015853882 0.5082656145095825 9.118551015853882 0.5082656145095825 9.118551015853882 Z"></path></g></svg></svg><svg id="SvgjsSvg175476" width="17" height="27" xmlns="http://www.w3.org/2000/svg" version="1.1" xmlns:xlink="http://www.w3.org/1999/xlink" xmlns:svgjs="http://svgjs.com/svgjs" viewBox="0.21246337890625 0 16.5750732421875 26.99993896484375" fill="#161615" opacity="1" x="163" y="651"><defs id="SvgjsDefs175477"></defs><svg version="1.1" xmlns="http://www.w3.org/2000/svg" xmlns:xlink="http://www.w3.org/1999/xlink" width="17" height="27" viewBox="-0.000656605 0.740646 16.0352 26.1206"><g><path fill="#161615" stroke="none" paint-order="stroke fill markers" fill-rule="evenodd" d=" M 16.034543991088867 0.7406556606292725 C 16.034543991088867 0.7406556606292725 9.506730198860168 0.7406556606292725 9.506730198860168 0.7406556606292725 C 9.506730198860168 0.7406556606292725 9.50585126876831 0.7417182922363281 9.50585126876831 0.7417182922363281 C 9.50585126876831 0.7417182922363281 -0.0006566047668457031 26.860140562057495 -0.0006566047668457031 26.860140562057495 C -0.0006566047668457031 26.860140562057495 6.528915047645569 26.86120319366455 6.528915047645569 26.86120319366455 C 6.528915047645569 26.86120319366455 16.034543991088867 0.7406556606292725 16.034543991088867 0.7406556606292725 C 16.034543991088867 0.7406556606292725 16.034543991088867 0.7406556606292725 16.034543991088867 0.7406556606292725 Z"></path></g></svg></svg><svg id="SvgjsSvg175480" width="18" height="27" xmlns="http://www.w3.org/2000/svg" version="1.1" xmlns:xlink="http://www.w3.org/1999/xlink" xmlns:svgjs="http://svgjs.com/svgjs" viewBox="0.71136474609375 0 16.57720947265625 27" fill="#161615" opacity="1" x="184" y="651"><defs id="SvgjsDefs175481"></defs><svg version="1.1" xmlns="http://www.w3.org/2000/svg" xmlns:xlink="http://www.w3.org/1999/xlink" width="18" height="27" viewBox="0.988417 0.740656 16.037 26.12"><g><path fill="#161615" stroke="none" paint-order="stroke fill markers" fill-rule="evenodd" d=" M 7.519745945930481 0.7433122396469116 C 7.519745945930481 0.7433122396469116 7.518867015838623 0.7406556606292725 7.518867015838623 0.7406556606292725 C 7.518867015838623 0.7406556606292725 0.9884164333343506 0.7406556606292725 0.9884164333343506 0.7406556606292725 C 0.9884164333343506 0.7406556606292725 10.494045376777649 26.85907793045044 10.494045376777649 26.85907793045044 C 10.494045376777649 26.85907793045044 17.02537488937378 26.860671877861023 17.02537488937378 26.860671877861023 C 17.02537488937378 26.860671877861023 7.519745945930481 0.7433122396469116 7.519745945930481 0.7433122396469116 C 7.519745945930481 0.7433122396469116 7.519745945930481 0.7433122396469116 7.519745945930481 0.7433122396469116 Z"></path></g></svg></svg><svg id="SvgjsSvg175484" width="10" height="16" xmlns="http://www.w3.org/2000/svg" version="1.1" xmlns:xlink="http://www.w3.org/1999/xlink" xmlns:svgjs="http://svgjs.com/svgjs" viewBox="0.43768310546875 0 9.1246337890625 15.99993896484375" fill="#161615" opacity="1" x="178" y="653"><defs id="SvgjsDefs175485"></defs><svg version="1.1" xmlns="http://www.w3.org/2000/svg" xmlns:xlink="http://www.w3.org/1999/xlink" width="10" height="16" viewBox="0.749771 0.0896665 9.01343 15.8051"><g><path fill="#161615" stroke="none" paint-order="stroke fill markers" fill-rule="evenodd" d=" M 7.221332907676697 15.8840913772583 C 7.221332907676697 15.8840913772583 7.219575047492981 15.8840913772583 7.219575047492981 15.8840913772583 C 7.219575047492981 15.8840913772583 0.7497706413269043 15.894717693328857 0.7497706413269043 15.894717693328857 C 0.7497706413269043 15.894717693328857 6.498852372169495 0.08966648578643799 6.498852372169495 0.08966648578643799 C 6.498852372169495 0.08966648578643799 9.763198733329773 9.059871196746826 9.763198733329773 9.059871196746826 C 9.763198733329773 9.059871196746826 7.221332907676697 15.8840913772583 7.221332907676697 15.8840913772583 C 7.221332907676697 15.8840913772583 7.221332907676697 15.8840913772583 7.221332907676697 15.8840913772583 Z"></path></g></svg></svg><svg id="SvgjsSvg175488" width="3" height="3" xmlns="http://www.w3.org/2000/svg" version="1.1" xmlns:xlink="http://www.w3.org/1999/xlink" xmlns:svgjs="http://svgjs.com/svgjs" viewBox="0 0.00030517578125 3 2.9993896484375" fill="#161615" opacity="1" x="207" y="647"><defs id="SvgjsDefs175489"></defs><svg version="1.1" xmlns="http://www.w3.org/2000/svg" xmlns:xlink="http://www.w3.org/1999/xlink" width="3" height="3" viewBox="0.253474 0.602768 1.74995 1.74962"><g><path fill="#161615" stroke="none" paint-order="stroke fill markers" fill-rule="evenodd" d=" M 1.1288878917694092 2.3523911237716675 C 1.6122994422912598 2.3523911237716675 2.00342333316803 1.9602800607681274 2.00342333316803 1.4773139953613281 C 2.00342333316803 0.993816614151001 1.6122994422912598 0.6027681827545166 1.1288878917694092 0.6027681827545166 C 0.6454763412475586 0.6027681827545166 0.25347352027893066 0.993816614151001 0.25347352027893066 1.4773139953613281 C 0.25347352027893066 1.9602800607681274 0.6454763412475586 2.3523911237716675 1.1288878917694092 2.3523911237716675 C 1.1288878917694092 2.3523911237716675 1.1288878917694092 2.3523911237716675 1.1288878917694092 2.3523911237716675 Z"></path></g></svg></svg><svg id="SvgjsSvg175492" width="3" height="3" xmlns="http://www.w3.org/2000/svg" version="1.1" xmlns:xlink="http://www.w3.org/1999/xlink" xmlns:svgjs="http://svgjs.com/svgjs" viewBox="0.00018310546875 0 2.9996337890625 3" fill="#161615" opacity="1" x="207" y="650"><defs id="SvgjsDefs175493"></defs><svg version="1.1" xmlns="http://www.w3.org/2000/svg" xmlns:xlink="http://www.w3.org/1999/xlink" width="3" height="3" viewBox="0.253474 0.867704 1.74995 1.75015"><g><path fill="#161615" stroke="none" paint-order="stroke fill markers" fill-rule="evenodd" d=" M 1.1288878917694092 2.617858052253723 C 1.6122994422912598 2.617858052253723 2.00342333316803 2.225746989250183 2.00342333316803 1.7427809238433838 C 2.00342333316803 1.2592835426330566 1.6122994422912598 0.8677037954330444 1.1288878917694092 0.8677037954330444 C 0.6454763412475586 0.8677037954330444 0.25347352027893066 1.2592835426330566 0.25347352027893066 1.7427809238433838 C 0.25347352027893066 2.225746989250183 0.6454763412475586 2.617858052253723 1.1288878917694092 2.617858052253723 C 1.1288878917694092 2.617858052253723 1.1288878917694092 2.617858052253723 1.1288878917694092 2.617858052253723 Z"></path></g></svg></svg><svg id="SvgjsSvg175496" width="3" height="2" xmlns="http://www.w3.org/2000/svg" version="1.1" xmlns:xlink="http://www.w3.org/1999/xlink" xmlns:svgjs="http://svgjs.com/svgjs" viewBox="0.5001220703125 0 1.999755859375 2" fill="#161615" opacity="1" x="207" y="654"><defs id="SvgjsDefs175497"></defs><svg version="1.1" xmlns="http://www.w3.org/2000/svg" xmlns:xlink="http://www.w3.org/1999/xlink" width="3" height="2" viewBox="0.253474 0.132108 1.74995 1.75015"><g><path fill="#161615" stroke="none" paint-order="stroke fill markers" fill-rule="evenodd" d=" M 1.1288878917694092 1.8822623491287231 C 1.6122994422912598 1.8822623491287231 2.00342333316803 1.490151286125183 2.00342333316803 1.0077165365219116 C 2.00342333316803 0.5236878395080566 1.6122994422912598 0.13210809230804443 1.1288878917694092 0.13210809230804443 C 0.6454763412475586 0.13210809230804443 0.25347352027893066 0.5236878395080566 0.25347352027893066 1.0077165365219116 C 0.25347352027893066 1.490151286125183 0.6454763412475586 1.8822623491287231 1.1288878917694092 1.8822623491287231 C 1.1288878917694092 1.8822623491287231 1.1288878917694092 1.8822623491287231 1.1288878917694092 1.8822623491287231 Z"></path></g></svg></svg><svg id="SvgjsSvg175500" width="3" height="3" xmlns="http://www.w3.org/2000/svg" version="1.1" xmlns:xlink="http://www.w3.org/1999/xlink" xmlns:svgjs="http://svgjs.com/svgjs" viewBox="0.00018310546875 0 2.9996337890625 3" fill="#161615" opacity="1" x="207" y="657"><defs id="SvgjsDefs175501"></defs><svg version="1.1" xmlns="http://www.w3.org/2000/svg" xmlns:xlink="http://www.w3.org/1999/xlink" width="3" height="3" viewBox="0.253474 0.396512 1.74995 1.75015"><g><path fill="#161615" stroke="none" paint-order="stroke fill markers" fill-rule="evenodd" d=" M 1.1288878917694092 2.146666646003723 C 1.6122994422912598 2.146666646003723 2.00342333316803 1.754555583000183 2.00342333316803 1.2715895175933838 C 2.00342333316803 0.7880921363830566 1.6122994422912598 0.39651238918304443 1.1288878917694092 0.39651238918304443 C 0.6454763412475586 0.39651238918304443 0.25347352027893066 0.7880921363830566 0.25347352027893066 1.2715895175933838 C 0.25347352027893066 1.754555583000183 0.6454763412475586 2.146666646003723 1.1288878917694092 2.146666646003723 C 1.1288878917694092 2.146666646003723 1.1288878917694092 2.146666646003723 1.1288878917694092 2.146666646003723 Z"></path></g></svg></svg><svg id="SvgjsSvg175504" width="3" height="3" xmlns="http://www.w3.org/2000/svg" version="1.1" xmlns:xlink="http://www.w3.org/1999/xlink" xmlns:svgjs="http://svgjs.com/svgjs" viewBox="0 0.00030517578125 3 2.9993896484375" fill="#161615" opacity="1" x="207" y="660"><defs id="SvgjsDefs175505"></defs><svg version="1.1" xmlns="http://www.w3.org/2000/svg" xmlns:xlink="http://www.w3.org/1999/xlink" width="3" height="3" viewBox="0.253474 0.661448 1.74995 1.74962"><g><path fill="#161615" stroke="none" paint-order="stroke fill markers" fill-rule="evenodd" d=" M 1.1288878917694092 2.411070942878723 C 1.6122994422912598 2.411070942878723 2.00342333316803 2.019491195678711 2.00342333316803 1.5365251302719116 C 2.00342333316803 1.0524964332580566 1.6122994422912598 0.6614480018615723 1.1288878917694092 0.6614480018615723 C 0.6454763412475586 0.6614480018615723 0.25347352027893066 1.0524964332580566 0.25347352027893066 1.5365251302719116 C 0.25347352027893066 2.019491195678711 0.6454763412475586 2.411070942878723 1.1288878917694092 2.411070942878723 C 1.1288878917694092 2.411070942878723 1.1288878917694092 2.411070942878723 1.1288878917694092 2.411070942878723 Z"></path></g></svg></svg><svg id="SvgjsSvg175508" width="3" height="3" xmlns="http://www.w3.org/2000/svg" version="1.1" xmlns:xlink="http://www.w3.org/1999/xlink" xmlns:svgjs="http://svgjs.com/svgjs" viewBox="0.00018310546875 0 2.9996337890625 3" fill="#161615" opacity="1" x="207" y="663"><defs id="SvgjsDefs175509"></defs><svg version="1.1" xmlns="http://www.w3.org/2000/svg" xmlns:xlink="http://www.w3.org/1999/xlink" width="3" height="3" viewBox="0.253474 0.926384 1.74995 1.75015"><g><path fill="#161615" stroke="none" paint-order="stroke fill markers" fill-rule="evenodd" d=" M 1.1288878917694092 2.676537871360779 C 1.6122994422912598 2.676537871360779 2.00342333316803 2.2844268083572388 2.00342333316803 1.8014607429504395 C 2.00342333316803 1.3179633617401123 1.6122994422912598 0.9263836145401001 1.1288878917694092 0.9263836145401001 C 0.6454763412475586 0.9263836145401001 0.25347352027893066 1.3179633617401123 0.25347352027893066 1.8014607429504395 C 0.25347352027893066 2.2844268083572388 0.6454763412475586 2.676537871360779 1.1288878917694092 2.676537871360779 C 1.1288878917694092 2.676537871360779 1.1288878917694092 2.676537871360779 1.1288878917694092 2.676537871360779 Z"></path></g></svg></svg><svg id="SvgjsSvg175512" width="3" height="2" xmlns="http://www.w3.org/2000/svg" version="1.1" xmlns:xlink="http://www.w3.org/1999/xlink" xmlns:svgjs="http://svgjs.com/svgjs" viewBox="0.5001220703125 0 1.999755859375 2" fill="#161615" opacity="1" x="207" y="667"><defs id="SvgjsDefs175513"></defs><svg version="1.1" xmlns="http://www.w3.org/2000/svg" xmlns:xlink="http://www.w3.org/1999/xlink" width="3" height="2" viewBox="0.253474 0.190788 1.74995 1.75015"><g><path fill="#161615" stroke="none" paint-order="stroke fill markers" fill-rule="evenodd" d=" M 1.1288878917694092 1.9409421682357788 C 1.6122994422912598 1.9409421682357788 2.00342333316803 1.5488311052322388 2.00342333316803 1.0658650398254395 C 2.00342333316803 0.5823676586151123 1.6122994422912598 0.1907879114151001 1.1288878917694092 0.1907879114151001 C 0.6454763412475586 0.1907879114151001 0.25347352027893066 0.5823676586151123 0.25347352027893066 1.0658650398254395 C 0.25347352027893066 1.5488311052322388 0.6454763412475586 1.9409421682357788 1.1288878917694092 1.9409421682357788 C 1.1288878917694092 1.9409421682357788 1.1288878917694092 1.9409421682357788 1.1288878917694092 1.9409421682357788 Z"></path></g></svg></svg><svg id="SvgjsSvg175516" width="3" height="3" xmlns="http://www.w3.org/2000/svg" version="1.1" xmlns:xlink="http://www.w3.org/1999/xlink" xmlns:svgjs="http://svgjs.com/svgjs" viewBox="0 0.00030517578125 3 2.9993896484375" fill="#161615" opacity="1" x="207" y="670"><defs id="SvgjsDefs175517"></defs><svg version="1.1" xmlns="http://www.w3.org/2000/svg" xmlns:xlink="http://www.w3.org/1999/xlink" width="3" height="3" viewBox="0.253474 0.455724 1.74995 1.74962"><g><path fill="#161615" stroke="none" paint-order="stroke fill markers" fill-rule="evenodd" d=" M 1.1288878917694092 2.205346465110779 C 1.6122994422912598 2.205346465110779 2.00342333316803 1.8137667179107666 2.00342333316803 1.3302693367004395 C 2.00342333316803 0.8467719554901123 1.6122994422912598 0.45572352409362793 1.1288878917694092 0.45572352409362793 C 0.6454763412475586 0.45572352409362793 0.25347352027893066 0.8467719554901123 0.25347352027893066 1.3302693367004395 C 0.25347352027893066 1.8137667179107666 0.6454763412475586 2.205346465110779 1.1288878917694092 2.205346465110779 C 1.1288878917694092 2.205346465110779 1.1288878917694092 2.205346465110779 1.1288878917694092 2.205346465110779 Z"></path></g></svg></svg><svg id="SvgjsSvg175520" width="3" height="3" xmlns="http://www.w3.org/2000/svg" version="1.1" xmlns:xlink="http://www.w3.org/1999/xlink" xmlns:svgjs="http://svgjs.com/svgjs" viewBox="0.00018310546875 0 2.9996337890625 3" fill="#161615" opacity="1" x="207" y="673"><defs id="SvgjsDefs175521"></defs><svg version="1.1" xmlns="http://www.w3.org/2000/svg" xmlns:xlink="http://www.w3.org/1999/xlink" width="3" height="3" viewBox="0.253474 0.72119 1.74995 1.75015"><g><path fill="#161615" stroke="none" paint-order="stroke fill markers" fill-rule="evenodd" d=" M 1.1288878917694092 2.4713447093963623 C 1.6122994422912598 2.4713447093963623 2.00342333316803 2.0787023305892944 2.00342333316803 1.596267580986023 C 2.00342333316803 1.112238883972168 1.6122994422912598 0.7211904525756836 1.1288878917694092 0.7211904525756836 C 0.6454763412475586 0.7211904525756836 0.25347352027893066 1.112238883972168 0.25347352027893066 1.596267580986023 C 0.25347352027893066 2.0787023305892944 0.6454763412475586 2.4713447093963623 1.1288878917694092 2.4713447093963623 C 1.1288878917694092 2.4713447093963623 1.1288878917694092 2.4713447093963623 1.1288878917694092 2.4713447093963623 Z"></path></g></svg></svg><svg id="SvgjsSvg175524" width="3" height="3" xmlns="http://www.w3.org/2000/svg" version="1.1" xmlns:xlink="http://www.w3.org/1999/xlink" xmlns:svgjs="http://svgjs.com/svgjs" viewBox="0.00018310546875 0 2.9996337890625 3" fill="#161615" opacity="1" x="207" y="676"><defs id="SvgjsDefs175525"></defs><svg version="1.1" xmlns="http://www.w3.org/2000/svg" xmlns:xlink="http://www.w3.org/1999/xlink" width="3" height="3" viewBox="0.253474 0.985595 1.74995 1.75015"><g><path fill="#161615" stroke="none" paint-order="stroke fill markers" fill-rule="evenodd" d=" M 1.1288878917694092 2.7357490062713623 C 1.6122994422912598 2.7357490062713623 2.00342333316803 2.3436379432678223 2.00342333316803 1.860671877861023 C 2.00342333316803 1.3771744966506958 1.6122994422912598 0.9855947494506836 1.1288878917694092 0.9855947494506836 C 0.6454763412475586 0.9855947494506836 0.25347352027893066 1.3771744966506958 0.25347352027893066 1.860671877861023 C 0.25347352027893066 2.3436379432678223 0.6454763412475586 2.7357490062713623 1.1288878917694092 2.7357490062713623 C 1.1288878917694092 2.7357490062713623 1.1288878917694092 2.7357490062713623 1.1288878917694092 2.7357490062713623 Z"></path></g></svg></svg><svg id="SvgjsSvg175528" width="3" height="3" xmlns="http://www.w3.org/2000/svg" version="1.1" xmlns:xlink="http://www.w3.org/1999/xlink" xmlns:svgjs="http://svgjs.com/svgjs" viewBox="0.00018310546875 0 2.9996337890625 3" fill="#161615" opacity="1" x="207" y="680"><defs id="SvgjsDefs175529"></defs><svg version="1.1" xmlns="http://www.w3.org/2000/svg" xmlns:xlink="http://www.w3.org/1999/xlink" width="3" height="3" viewBox="0.253474 0.249468 1.74995 1.75015"><g><path fill="#161615" stroke="none" paint-order="stroke fill markers" fill-rule="evenodd" d=" M 1.1288878917694092 1.9996219873428345 C 1.6122994422912598 1.9996219873428345 2.00342333316803 1.6075109243392944 2.00342333316803 1.1245448589324951 C 2.00342333316803 0.641047477722168 1.6122994422912598 0.24946773052215576 1.1288878917694092 0.24946773052215576 C 0.6454763412475586 0.24946773052215576 0.25347352027893066 0.641047477722168 0.25347352027893066 1.1245448589324951 C 0.25347352027893066 1.6075109243392944 0.6454763412475586 1.9996219873428345 1.1288878917694092 1.9996219873428345 C 1.1288878917694092 1.9996219873428345 1.1288878917694092 1.9996219873428345 1.1288878917694092 1.9996219873428345 Z"></path></g></svg></svg></svg>